<svg id="レイヤー_1" data-name="レイヤー 1" xmlns="http://www.w3.org/2000/svg" viewBox="0 0 200 200"><defs><style>.cls-1{opacity:0.2;}.cls-2{fill:#fd425f;}.cls-3{fill:#fff;}.cls-4{fill:#f88667;}.cls-5{fill:#00bad1;}.cls-6{fill:#110239;}.cls-7{fill:#e45940;}.cls-8{fill:#d0d1de;}.cls-9{fill:#abadc4;}.cls-10{fill:#00a7cc;}</style></defs><g class="cls-1"><circle class="cls-2" cx="91.03" cy="101.42" r="61"/><circle class="cls-3" cx="91.03" cy="101.42" r="46.23" transform="translate(-20.75 179.38) rotate(-82.98)"/><circle class="cls-2" cx="91.03" cy="101.42" r="33.02" transform="translate(-20.87 23.63) rotate(-13.28)"/><path class="cls-3" d="M113.76,101.42A22.73,22.73,0,1,1,91,78.69,22.73,22.73,0,0,1,113.76,101.42Z"/><path class="cls-2" d="M101.52,101.42A10.49,10.49,0,1,1,91,90.93,10.49,10.49,0,0,1,101.52,101.42Z"/><path class="cls-4" d="M118.19,74.18s-.89,2.15-.85,2.08a6.15,6.15,0,0,0-1.44-.64,11.35,11.35,0,0,1-1.7-.12,2.92,2.92,0,0,1-1-.51c-.17-.1-.45-.43-.2-.51s.48.24.62.3a3.25,3.25,0,0,0,.66.07l-.56-.24a6.74,6.74,0,0,1-1.26-.58c-.13-.13-.1-.41.25-.34a5,5,0,0,1,.88.29l.74.27s-.57-.22-.78-.32-.86-.35-1.26-.53-.3-.6.06-.58a9.87,9.87,0,0,1,1.28.54c.14,0,.75.33.75.33s-.73-.33-.85-.41-.94-.39-1-.64,0-.35.29-.3a3.94,3.94,0,0,1,1,.35,9.11,9.11,0,0,0,1.59.65c.23,0,.48,0,.48-.31l.4-.73s.27.13.41.8C116.77,73.46,117.38,73.91,118.19,74.18Z"/><path class="cls-5" d="M142.41,82.75a3.67,3.67,0,0,0-3.18-3.54c-2.91-.43-8.3-1.27-9.93-1.64C127,77,117.78,74,117.78,74l-1,2.44s10.07,5,11.88,5.45,11.1,3.69,12.9,2.65A1.88,1.88,0,0,0,142.41,82.75Z"/><polygon class="cls-6" points="149.76 106.96 149.18 105.21 123.04 105.21 123.6 106.96 149.76 106.96"/><polygon class="cls-6" points="152.87 116.28 152.28 114.51 126 114.51 126.57 116.28 152.87 116.28"/><polygon class="cls-6" points="145.83 97.64 145.25 95.89 119.11 95.89 119.67 97.64 145.83 97.64"/><polygon class="cls-6" points="156.01 125.69 155.41 123.91 129 123.91 129.56 125.69 156.01 125.69"/><polygon class="cls-6" points="159.18 135.21 158.58 133.41 132.02 133.41 132.6 135.21 159.18 135.21"/><polygon class="cls-6" points="162.39 144.83 161.78 143.01 135.08 143.01 135.66 144.83 162.39 144.83"/><polygon class="cls-6" points="165.63 154.56 165.01 152.71 138.17 152.71 138.76 154.56 165.63 154.56"/><path class="cls-6" d="M168.63,168.56h.12a1.21,1.21,0,0,0,1.15-1.6L145.36,93.45a1.21,1.21,0,0,0-1.15-.83h-1.69l25,75.11A1.23,1.23,0,0,0,168.63,168.56Z"/><path class="cls-6" d="M142.05,168.56h.13a1.21,1.21,0,0,0,1.15-1.58L119.87,93.46a1.22,1.22,0,0,0-1.16-.84h0a1.21,1.21,0,0,0-1.15,1.58l23.35,73.51A1.21,1.21,0,0,0,142.05,168.56Z"/><path class="cls-4" d="M142,71.24a1.29,1.29,0,0,0-.16.17,10.92,10.92,0,0,1-1.66,1.45c-.37.24-.94.4-1.26.66l-.4.28a28.83,28.83,0,0,1,.57,4.82s3.31-.24,4.52-1.58A33.56,33.56,0,0,1,142,71.24Z"/><path class="cls-7" d="M140.21,76.77a4.85,4.85,0,0,1,1.51-2.5,8.4,8.4,0,0,1,.79-.58,16.93,16.93,0,0,1-.52-2.45,1.29,1.29,0,0,0-.16.17,10.92,10.92,0,0,1-1.66,1.45c-.37.24-.94.4-1.26.66l-.4.28a28.83,28.83,0,0,1,.57,4.82s.57-.05,1.32-.19A2.48,2.48,0,0,1,140.21,76.77Z"/><path class="cls-6" d="M140.15,130.29s-.09,3.3-.6,3.75-7.08.65-7.65,0-.23-1.61,1.18-2,2.25,0,3.2-.41.69-1.88.69-1.88Z"/><path class="cls-6" d="M156.43,130.18s.51,3.21,0,3.68-7.18,1-7.77.42-.3-1.61,1.1-2.05,2.21-.18,3.17-.53c.76-.28.25-1.81.25-1.81Z"/><path class="cls-8" d="M151.58,111.68a98.3,98.3,0,0,0-1.37-18.35,8.33,8.33,0,0,0-3.28.64c-2,.91-4,1.78-6,2.66a128.8,128.8,0,0,1,5.64,16.73c.54,2.87,6.55,17.53,6.55,17.53l3.63-.46C156.66,128.07,151.57,112.47,151.58,111.68Z"/><path class="cls-9" d="M144.12,95.27a31.41,31.41,0,0,1-3.24,1.32,136.6,136.6,0,0,1,5.19,14.93c.51-1.54,3-5.25,3.92-9.33a21.88,21.88,0,0,0,.31-8.3v0A15.66,15.66,0,0,0,144.12,95.27Z"/><path class="cls-8" d="M146.84,94.77c-1.42.48-4,1.17-5.94,1.86-1.35,3.43-5.36,11.51-5.56,15.16-.23,4,1.16,19.31,1.16,19.31h4.16s.39-17.22,1-18.32c1.92-3.65,4-6.54,5.25-8.81a28.2,28.2,0,0,0,3.06-8c.16-.79.85-3.43-.49-4.25C148.35,92,148,94.37,146.84,94.77Z"/><path class="cls-5" d="M139.39,97.46a16.91,16.91,0,0,0,6.93,1.08c2.55-.24,3.86-.28,5.35-1.09,0,0-1.59-12.41-3.43-16.32s-4.85-4.67-4.85-4.67a10.33,10.33,0,0,1-4.32,1.35s.05,7.63.19,10.68S139.39,97.46,139.39,97.46Z"/><path class="cls-10" d="M139.22,87.37c0-.33,0-.69,0-1.06v-.14q0-.54,0-1.11v-.19c0-.42,0-.85,0-1.28v0a2.42,2.42,0,0,0,.47,0A10.71,10.71,0,0,0,142.93,82a4.73,4.73,0,0,1,.55-.28c.21,1.63-.53,3.62-.84,4.91-.88,3.59-1.35,8.13-.6,11.59a18.79,18.79,0,0,1-2.65-.76s0-5.93-.13-9c0-.27,0-.59,0-.92C139.23,87.5,139.22,87.44,139.22,87.37Z"/><path class="cls-4" d="M143.7,68.15s-1.41-3-3.29-2.83-3.09.42-3.34,1.15a20.94,20.94,0,0,1-1.15,3.46c-.48.74-1.52,1.71-1.5,2s1.1.45,1.16.59.64,2.57,1,2.82,4-1.16,4.57-2.23S143.87,70.05,143.7,68.15Z"/><path class="cls-6" d="M139.87,68.43a3.88,3.88,0,0,0-.57.16c-.27,0-.56.07-.83.12a3.41,3.41,0,0,1-1.68,0c-.81-.26-.55-1.07-.92-1.64-.19-.27-.57-.27-.77-.58a2,2,0,0,1-.25-1c0-.86.85-.94,1.51-1.1s.82-.62,1.19-1.2c.91-1.44,2.2.56,3.21.43.52-.06,1.06-.4,1.56-.11a3.49,3.49,0,0,1,1,1.07c.3.4.6.24,1,.4a2.62,2.62,0,0,1,.92.7,2.83,2.83,0,0,1,.69,2.27c-.13.66-.67,1-.69,1.71a4.15,4.15,0,0,1-.26,1.75c-.4.73-1.27.83-1.85,1.33a2.51,2.51,0,0,1-2.1.65c-.08-.52,0-1.4.43-1.66a2.7,2.7,0,0,0,.69-.36.81.81,0,0,0-.77-1.36c-.59.08-.86,1.7-1.51,1.44-.49-.2.1-1,.24-1.3s.27-1.3-.08-1.61A.25.25,0,0,0,139.87,68.43Z"/><path class="cls-4" d="M124.11,97.53a2.59,2.59,0,0,0-.49,0,2.09,2.09,0,0,1-1.07-.13,4.14,4.14,0,0,0-1.79-.44c-.3.06-2.11.48-1.67,1.22.06.1.28.26.35.23l.7-.26a3.92,3.92,0,0,0-.48.21,1.14,1.14,0,0,0-.25.18c-.1.15,0,.48.21.54s.28-.1.41-.18h0c-.13.1-.4.17-.23.55s.32.16.5.11a.73.73,0,0,0,.19-.07,2.18,2.18,0,0,0-.37.2c-.17.15.2.65.54.61s.69-.32.81-.29a1.93,1.93,0,0,0,.42,0,2.47,2.47,0,0,0,1.22-.24c.17-.08.5-.21.67-.3a7.76,7.76,0,0,0,1-.69C124.5,98.27,124.05,98.13,124.11,97.53Z"/><path class="cls-5" d="M124.74,99.8l-1.46-2.89s7.24-4.64,9.89-7.31,5.51-8.11,7.53-8.45,4.05.77,2.88,3.58-7.09,6.54-8.3,7.77S125.92,99.14,124.74,99.8Z"/><path class="cls-2" d="M144.84,31.34c-1.29-.56-5.42-2.71-8.73,5.12C133,43.92,129.61,54,129.61,54s8.22-6.76,14-12.4C149.74,35.7,146.05,32.11,144.84,31.34Z"/><path class="cls-6" d="M137.79,37.31l-7.89,8.13a57.25,57.25,0,0,0-6.44,8l-32.24,48,36.53-39.55a57.13,57.13,0,0,0,10-15.08L140.85,40A9.49,9.49,0,0,1,137.79,37.31Z"/><path class="cls-2" d="M128.29,54.64s-5.32-14.81-.35-24.4,11.46,8.67,11.46,8.67Z"/><path class="cls-2" d="M128.25,54.55s15.73,0,23.07-7.95-12-7.84-12-7.84Z"/><path class="cls-4" d="M116.49,74.22c-.12,0-.24.27-.36.23l0-.36c-.05-.32-1.26-.4-1.53-.54-.81-.42-.48-.93-.11-.82s.82.25,1,.35a4,4,0,0,0,.84.09,6.52,6.52,0,0,1,1,.73C117.85,74.17,116.94,74.4,116.49,74.22Z"/><path class="cls-5" d="M59.62,120.89a36.84,36.84,0,0,0-11.35,5.23c-4.87,3.61-9.92,14.78-10.91,22.63s-3,14,0,18,12.62,4.83,20.91,5.64,19.74-1.18,22-4.06,2.12-24.72-2.21-33S65.93,120.71,59.62,120.89Z"/><path class="cls-10" d="M70.68,167.87a14.47,14.47,0,0,1-4.76-2.29c-3-2.43-4.75-3.16-8.43-3.12-3.36,0-6.61,0-9.49-1.88a8.71,8.71,0,0,1-3.39-8.48,13.24,13.24,0,0,1,2.44-5.68c1.89-2.51,2.25-4.32,1.58-7.46a20.33,20.33,0,0,1,.18-10.67,9.67,9.67,0,0,1,3.41-4.57,27,27,0,0,0-3.95,2.4c-4.87,3.61-9.92,14.78-10.91,22.63s-3,14,0,18,12.62,4.83,20.91,5.64,19.74-1.18,22-4.06a8.55,8.55,0,0,0,1-3.59C78.48,167.57,74.74,169.22,70.68,167.87Z"/><path class="cls-5" d="M58.72,122.51s-7-1.69-7.91-7,1.83-7.1,4-5.88,2.47.56,3.95-.36,3.65.56,4.74,2.12,1.28-.27,3.85-.48,3.45,2.17,2.1,5.28S66.77,122.65,58.72,122.51Z"/><path class="cls-10" d="M66.27,119.55c-1.8.46-.74-1.87-1-2.68-.47,0-.65.81-.8,1.15a2.13,2.13,0,0,1-1.92,1.22c-1.13,0-1.28-1.25-1.76-2-.2-.32-.3-.31-.42.08s0,.9-.4,1.23c-.72.61-1.92-.08-2.48-.57s-.86-1.4-1.51-1.91a.84.84,0,0,0-.2.45c-.17.76-.12,2.2-1.35,1.94-1-.23-1.76-1.94-2.09-2.81a9.33,9.33,0,0,1-.75-3.28,10.58,10.58,0,0,1,.09-1.39,4.19,4.19,0,0,1,.26-1.07h0c-1,.88-1.61,2.74-1.09,5.64.81,4.49,6,6.38,7.49,6.84a2.56,2.56,0,0,0,.82.13c6.34,0,8.31-2.19,9.55-4.68h0A11.77,11.77,0,0,1,66.27,119.55Z"/><path class="cls-3" d="M61.66,138.18c3.41.34,6.49,1.87,6.43,5.29l-5.7-.1c0-1.29-1.32-1.59-2.16-1.61-.52,0-2.21,0-2.23,1,0,2.34,10.5.09,10.39,6.71-.07,4-3.21,5.4-7,5.61l.18,4.23-3.48-.06.29-4.25c-3.54-.44-6.81-2.16-6.74-5.73l5.7.1v.12c0,1.58,1.76,1.91,2.65,1.93s2.56,0,2.58-1.16c0-2.43-10.5-.4-10.39-6.8.07-3.7,3-5.07,6.51-5.31l-.14-4.26L62,134Z"/><path class="cls-6" d="M53.65,120,53,123.33S54.8,125,59.65,125a14.51,14.51,0,0,0,7.46-1.71l-.32-3A27.36,27.36,0,0,1,53.65,120Z"/></g></svg>