<svg xmlns="http://www.w3.org/2000/svg" xmlns:xlink="http://www.w3.org/1999/xlink" viewBox="0 0 400 200"><defs><style>.cls-1{fill:url(#linear-gradient);}.cls-2{isolation:isolate;}.cls-3{clip-path:url(#clip-path);}.cls-4{fill:url(#linear-gradient-3);}.cls-5{fill:#636363;}.cls-5,.cls-7{mix-blend-mode:overlay;}.cls-6{fill:url(#linear-gradient-4);}.cls-8{fill:#fff;}.cls-9{mix-blend-mode:color-dodge;}.cls-10{fill:url(#linear-gradient-5);}.cls-11{fill:url(#linear-gradient-6);}.cls-12{fill:url(#linear-gradient-7);}.cls-13{fill:url(#linear-gradient-8);}.cls-14,.cls-16,.cls-18{mix-blend-mode:color-burn;}.cls-14{fill:url(#radial-gradient);}.cls-15{fill:url(#linear-gradient-9);}.cls-16{fill:url(#radial-gradient-2);}.cls-17{fill:url(#linear-gradient-10);}.cls-18{fill:url(#radial-gradient-3);}.cls-19{fill:url(#linear-gradient-11);}</style><linearGradient id="linear-gradient" y1="100" x2="400" y2="100" gradientUnits="userSpaceOnUse"><stop offset="0" stop-color="#fe9700"/><stop offset="1" stop-color="#ffe263"/></linearGradient><clipPath id="clip-path"><rect id="SVGID" class="cls-1" width="400" height="200"/></clipPath><linearGradient id="linear-gradient-3" x1="73.51" y1="81.74" x2="44.92" y2="-1.58" gradientUnits="userSpaceOnUse"><stop offset="0" stop-color="#fe8900"/><stop offset="1" stop-color="#fe5500"/></linearGradient><linearGradient id="linear-gradient-4" x1="308.83" y1="84.88" x2="350.75" y2="206.6" xlink:href="#linear-gradient-3"/><linearGradient id="linear-gradient-5" x1="35.04" y1="54.29" x2="125.51" y2="54.29" gradientUnits="userSpaceOnUse"><stop offset="0"/><stop offset="0.11" stop-color="#060606"/><stop offset="0.25" stop-color="#161616"/><stop offset="0.41" stop-color="#323232"/><stop offset="0.59" stop-color="#575757"/><stop offset="0.78" stop-color="#888"/><stop offset="0.97" stop-color="#c3c3c3"/><stop offset="1" stop-color="#ccc"/></linearGradient><linearGradient id="linear-gradient-6" x1="280.03" y1="146.14" x2="376.55" y2="146.14" xlink:href="#linear-gradient-5"/><linearGradient id="linear-gradient-7" x1="213.89" y1="146.67" x2="302.44" y2="146.67" xlink:href="#linear-gradient-5"/><linearGradient id="linear-gradient-8" x1="28.97" y1="115.86" x2="77.25" y2="115.86" xlink:href="#linear-gradient-5"/><radialGradient id="radial-gradient" cx="246.68" cy="98.5" r="18.85" gradientTransform="translate(-0.22 -0.43) scale(1.34 1.17)" gradientUnits="userSpaceOnUse"><stop offset="0.2" stop-color="gray"/><stop offset="0.44" stop-color="#aaa"/><stop offset="0.82" stop-color="#e7e7e7"/><stop offset="1" stop-color="#fff"/></radialGradient><linearGradient id="linear-gradient-9" x1="330.3" y1="121.14" x2="330.3" y2="94.2" xlink:href="#linear-gradient"/><radialGradient id="radial-gradient-2" cx="166.41" cy="133.28" r="6.55" gradientTransform="translate(-0.22 -0.43) scale(1.34 1.17)" gradientUnits="userSpaceOnUse"><stop offset="0.2" stop-color="#4d4d4d"/><stop offset="0.58" stop-color="#a9a9a9"/><stop offset="0.87" stop-color="#e7e7e7"/><stop offset="1" stop-color="#fff"/></radialGradient><linearGradient id="linear-gradient-10" x1="222.72" y1="157.91" x2="222.72" y2="148.55" gradientUnits="userSpaceOnUse"><stop offset="0" stop-color="#fe5500"/><stop offset="1" stop-color="#fe8900"/></linearGradient><radialGradient id="radial-gradient-3" cx="79.55" cy="82.04" r="9.52" gradientTransform="translate(-0.22 -0.43) scale(1.34 1.17)" gradientUnits="userSpaceOnUse"><stop offset="0.2" stop-color="#666"/><stop offset="0.52" stop-color="#a9a9a9"/><stop offset="0.85" stop-color="#e7e7e7"/><stop offset="1" stop-color="#fff"/></radialGradient><linearGradient id="linear-gradient-11" x1="106.39" y1="98.82" x2="106.39" y2="85.22" xlink:href="#linear-gradient-10"/></defs><g class="cls-2"><g id="レイヤー_1" data-name="レイヤー 1"><rect id="SVGID-2" data-name="SVGID" class="cls-1" width="400" height="200"/><g class="cls-3"><path class="cls-4" d="M150.42-30.53c-5.38-.8-10.79-1.46-16.19-2.15C96.89-37.43,97-64.95,74.9-63.59c-14.64.91-26.11,21.48-36.52,9.84C15.27-79.61-10.84-63.58-18.16-42.42-21.89-31.63-20-24.9-20.57-9.85c-.84,23-32,16.81-57,30.21-23.67,12.71-24.24,35.28-7,46.74C-57.62,85-27.64,62.32-4.33,80.4c41.69,32.33,47.14,10.94,79.73-2.25,28.31-11.46,47.31,2.78,73.51,2.21,21.28.6,37.56-6.08,49.89-20C230.4,24.49,200.47-23.12,150.42-30.53Z"/><path class="cls-5" d="M266-196.66c-44.2,17.86-48.15,56.09-88.39,36.8-12-5.76-21-12.28-32.53-14.41-32.92-6.08-42.63,35.45-72.88,31.8-19.29-2.33-48.3-9.37-72.28,14.69C-12.45-115.41-13-100.86-14.35-83.12c-2.83,37-37.63,48-49.06,88-9.74,34.06,9.4,60.74,42.1,65.78C16.31,76.44,43,56.9,83.89,39.68c36-15.18,59.21,8.38,101.59,15.68,29.25,5,54.07-8.15,71.54-29.16C279.86-1.27,282.11-25.39,286-54.2c4.25-31.82,23-46.21,37.82-62C369.46-165.19,313.61-215.92,266-196.66Z"/><path class="cls-6" d="M378.43,107.29c-11.18,2.07-11.74-1.65-33.81-14.39-23.25-13.43-58.35-4.53-68.95,23.73-3.61,9.64-3.72,17.43-6.19,28.61-3.89,17.61-17.43,22.67-29.08,28.35-12.71,6.18-46.27,18.12-39.35,54,4,20.73,21.63,36.69,47.57,34.92,14.16-1,26.95-6.11,40.46-10.59,47.06-15.6,45-12.5,94.65-7.6.1-1.19,2,0,9.13-.54,33.35-2.65,36.91-25.75,42.11-51.5,7.78-38.52,37-41.22,43.45-63.18,2-6.9-1-16.27-10.88-23.23C439.39,86.17,398.31,103.61,378.43,107.29Z"/><path class="cls-5" d="M357.74,108.06c-44.21,17.86-48.15,56.1-88.39,36.81-12-5.76-21-12.28-32.53-14.41-32.92-6.09-42.63,35.44-72.89,31.79-19.29-2.32-48.29-9.37-72.27,14.69-12.32,12.37-12.87,26.92-14.23,44.66-2.82,37-37.62,48-49.05,88-9.74,34.07,9.4,60.74,42.1,65.79,37.62,5.8,64.35-13.73,105.2-31,36-15.17,59.21,8.39,101.59,15.69,29.25,5,54.07-8.15,71.54-29.17,22.83-27.47,25.09-51.59,28.93-80.39,4.24-31.82,23-46.22,37.82-62.05C461.25,139.53,405.4,88.81,357.74,108.06Z"/><g class="cls-7"><path class="cls-8" d="M-27.77,124.58c-2-18.5,5-38,18.77-52.15S25.64,49.09,46.83,47.87c21.73-1.26,43,5.26,63.59,11.56,21.73,6.66,44.2,13.54,67,11.14,16.31-1.72,31.71-8.11,46.6-14.29,17.58-7.3,35.76-14.84,55.3-14.52a146.42,146.42,0,0,1,19.79,2.15c9,1.39,18.25,2.83,27.37,1.77C340,44.11,353.13,37,363.45,25.74c8.77-9.59,14.58-20.69,20.62-34.4,3.38-7.68,6.6-15.86,5.71-24-.85-7.75-6.71-16.41-16.25-18l.07-.34c9.74,1.6,15.71,10.41,16.57,18.29.9,8.22-2.34,16.44-5.73,24.15C378.39,5.21,372.56,16.34,363.76,26,353.38,37.31,340.17,44.44,326.56,46c-9.18,1.07-18.49-.37-27.49-1.77a147.36,147.36,0,0,0-19.72-2.14c-19.46-.33-37.59,7.2-55.13,14.49-14.92,6.19-30.34,12.59-46.72,14.31a90.5,90.5,0,0,1-9.57.5c-19.62,0-38.91-5.91-57.64-11.65C89.74,53.47,68.49,47,46.86,48.22,25.77,49.43,5,58.57-8.69,72.65s-20.69,33.48-18.69,51.89Z"/></g><g class="cls-7"><path class="cls-8" d="M65.68,247.85c-2.87-10.45-.56-21.55,6.7-32.11,6.67-9.71,16.87-17.94,28.7-23.16,23.42-10.33,50.25-11,76.19-11.55,23.26-.53,52.2-1.2,75.84-12.12,4.86-2.24,9.61-5,14.2-7.59,9.51-5.45,19.34-11.08,30.64-12.73,13.41-2,26.71,1.93,39.57,5.7,5.36,1.57,10.89,3.19,16.36,4.37,40.46,8.72,87.07-8.3,108.43-39.6l.34.18c-10.44,15.3-27.21,27.75-47.19,35.05s-41.89,9-61.67,4.71c-5.49-1.18-11-2.81-16.39-4.38-12.82-3.76-26.07-7.64-39.39-5.69-11.21,1.64-21,7.25-30.48,12.68-4.6,2.63-9.36,5.36-14.24,7.61-23.72,10.95-52.71,11.62-76,12.16-25.9.6-52.68,1.22-76,11.51C79.52,202.48,59.79,225,66.07,247.77Z"/></g><g class="cls-7"><path class="cls-8" d="M0,83.63c-21,0-40.7-7.14-55.51-20.1s-23-30.22-23-48.57,8.16-35.61,23-48.58S-21-53.72,0-53.72s40.7,7.14,55.51,20.1,23,30.22,23,48.58-8.16,35.61-23,48.57S21,83.63,0,83.63Zm0-137c-43.06,0-78.09,30.65-78.09,68.33S-43.06,83.29,0,83.29,78.09,52.63,78.09,15,43.06-53.37,0-53.37Z"/><path class="cls-8" d="M0,75.07c-37.88,0-68.7-27-68.7-60.11S-37.88-45.16,0-45.16,68.7-18.19,68.7,15,37.88,75.07,0,75.07ZM0-44.81C-37.66-44.81-68.31-18-68.31,15S-37.66,74.72,0,74.72,68.31,47.91,68.31,15,37.66-44.81,0-44.81Z"/><path class="cls-8" d="M0,66.51c-32.49,0-58.92-23.13-58.92-51.55S-32.49-36.6,0-36.6,58.92-13.47,58.92,15,32.49,66.51,0,66.51ZM0-36.25c-32.27,0-58.52,23-58.52,51.21S-32.27,66.16,0,66.16s58.52-23,58.52-51.2S32.27-36.25,0-36.25Z"/><path class="cls-8" d="M0,57.94c-27.09,0-49.13-19.28-49.13-43S-27.09-28,0-28,49.13-8.75,49.13,15,27.09,57.94,0,57.94ZM0-27.69C-26.87-27.69-48.73-8.56-48.73,15S-26.87,57.6,0,57.6,48.73,38.47,48.73,15,26.87-27.69,0-27.69Z"/><path class="cls-8" d="M0,49.38c-21.69,0-39.34-15.44-39.34-34.42S-21.69-19.47,0-19.47,39.34-4,39.34,15,21.69,49.38,0,49.38Zm0-68.5C-21.48-19.12-38.95-3.84-38.95,15S-21.48,49,0,49,39,33.75,39,15,21.48-19.12,0-19.12Z"/></g><g class="cls-7"><path class="cls-8" d="M412.49,274.3c-21,0-40.7-7.14-55.52-20.1S334,224,334,205.62s8.16-35.61,23-48.57,34.54-20.11,55.52-20.11,40.69,7.14,55.51,20.11,23,30.21,23,48.57-8.16,35.61-23,48.58S433.47,274.3,412.49,274.3Zm0-137c-43.06,0-78.09,30.65-78.09,68.33s35,68.33,78.09,68.33,78.09-30.65,78.09-68.33S455.55,137.29,412.49,137.29Z"/><path class="cls-8" d="M412.49,265.74c-37.88,0-68.7-27-68.7-60.12s30.82-60.11,68.7-60.11,68.7,27,68.7,60.11S450.37,265.74,412.49,265.74Zm0-119.88c-37.67,0-68.31,26.81-68.31,59.76s30.64,59.77,68.31,59.77,68.3-26.81,68.3-59.77S450.15,145.86,412.49,145.86Z"/><path class="cls-8" d="M412.49,257.17c-32.49,0-58.92-23.12-58.92-51.55s26.43-51.55,58.92-51.55,58.91,23.13,58.91,51.55S445,257.17,412.49,257.17Zm0-102.75c-32.27,0-58.52,23-58.52,51.2s26.25,51.21,58.52,51.21,58.52-23,58.52-51.21S444.76,154.42,412.49,154.42Z"/><path class="cls-8" d="M412.49,248.61c-27.09,0-49.13-19.28-49.13-43s22-43,49.13-43,49.13,19.29,49.13,43S439.58,248.61,412.49,248.61Zm0-85.63c-26.87,0-48.74,19.13-48.74,42.64s21.87,42.64,48.74,42.64,48.73-19.13,48.73-42.64S439.36,163,412.49,163Z"/><path class="cls-8" d="M412.49,240.05c-21.7,0-39.35-15.45-39.35-34.43s17.65-34.42,39.35-34.42,39.34,15.44,39.34,34.42S434.18,240.05,412.49,240.05Zm0-68.51c-21.48,0-38.95,15.29-38.95,34.08S391,239.7,412.49,239.7s38.94-15.29,38.94-34.08S434,171.54,412.49,171.54Z"/></g></g><g class="cls-9"><polygon class="cls-10" points="35.6 93.88 35.04 93.38 124.95 14.71 125.51 15.2 35.6 93.88"/></g><g class="cls-9"><polygon class="cls-11" points="280.6 188.36 280.03 187.87 375.99 103.91 376.55 104.4 280.6 188.36"/></g><g class="cls-9"><polygon class="cls-12" points="214.45 185.41 213.89 184.92 301.88 107.94 302.44 108.43 214.45 185.41"/></g><g class="cls-9"><polygon class="cls-13" points="29.53 136.99 28.97 136.49 76.69 94.74 77.25 95.23 29.53 136.99"/></g><ellipse class="cls-14" cx="330.2" cy="115.02" rx="25.25" ry="22.1"/><ellipse class="cls-15" cx="330.3" cy="108.65" rx="18.45" ry="16.15"/><ellipse class="cls-16" cx="222.69" cy="155.79" rx="8.77" ry="7.68"/><ellipse class="cls-17" cx="222.72" cy="153.57" rx="6.41" ry="5.61"/><ellipse class="cls-18" cx="106.34" cy="95.73" rx="12.75" ry="11.15"/><ellipse class="cls-19" cx="106.39" cy="92.51" rx="9.31" ry="8.15"/><g class="cls-7"><ellipse class="cls-8" cx="144.92" cy="15.87" rx="0.7" ry="0.61"/><ellipse class="cls-8" cx="149.68" cy="15.87" rx="0.7" ry="0.61"/><ellipse class="cls-8" cx="154.44" cy="15.87" rx="0.7" ry="0.61"/><ellipse class="cls-8" cx="159.21" cy="15.87" rx="0.7" ry="0.61"/><ellipse class="cls-8" cx="163.97" cy="15.87" rx="0.7" ry="0.61"/><ellipse class="cls-8" cx="168.73" cy="15.87" rx="0.7" ry="0.61"/><ellipse class="cls-8" cx="173.49" cy="15.87" rx="0.7" ry="0.61"/><ellipse class="cls-8" cx="178.25" cy="15.87" rx="0.7" ry="0.61"/><ellipse class="cls-8" cx="183.01" cy="15.87" rx="0.7" ry="0.61"/><ellipse class="cls-8" cx="187.78" cy="15.87" rx="0.7" ry="0.61"/><ellipse class="cls-8" cx="192.54" cy="15.87" rx="0.7" ry="0.61"/><ellipse class="cls-8" cx="197.3" cy="15.87" rx="0.7" ry="0.61"/><ellipse class="cls-8" cx="202.06" cy="15.87" rx="0.7" ry="0.61"/><ellipse class="cls-8" cx="206.82" cy="15.87" rx="0.7" ry="0.61"/><ellipse class="cls-8" cx="211.59" cy="15.87" rx="0.7" ry="0.61"/><ellipse class="cls-8" cx="216.35" cy="15.87" rx="0.7" ry="0.61"/><ellipse class="cls-8" cx="221.11" cy="15.87" rx="0.7" ry="0.61"/><ellipse class="cls-8" cx="225.87" cy="15.87" rx="0.7" ry="0.61"/><ellipse class="cls-8" cx="230.63" cy="15.87" rx="0.7" ry="0.61"/><ellipse class="cls-8" cx="235.4" cy="15.87" rx="0.7" ry="0.61"/><ellipse class="cls-8" cx="240.16" cy="15.87" rx="0.7" ry="0.61"/><ellipse class="cls-8" cx="244.92" cy="15.87" rx="0.7" ry="0.61"/><ellipse class="cls-8" cx="249.68" cy="15.87" rx="0.7" ry="0.61"/><ellipse class="cls-8" cx="254.44" cy="15.87" rx="0.7" ry="0.61"/><ellipse class="cls-8" cx="259.21" cy="15.87" rx="0.7" ry="0.61"/><ellipse class="cls-8" cx="263.97" cy="15.87" rx="0.7" ry="0.61"/><ellipse class="cls-8" cx="268.73" cy="15.87" rx="0.7" ry="0.61"/><ellipse class="cls-8" cx="273.49" cy="15.87" rx="0.7" ry="0.61"/><ellipse class="cls-8" cx="278.25" cy="15.87" rx="0.7" ry="0.61"/><ellipse class="cls-8" cx="283.01" cy="15.87" rx="0.7" ry="0.61"/><ellipse class="cls-8" cx="287.78" cy="15.87" rx="0.7" ry="0.61"/><ellipse class="cls-8" cx="292.54" cy="15.87" rx="0.7" ry="0.61"/><ellipse class="cls-8" cx="297.3" cy="15.87" rx="0.7" ry="0.61"/><ellipse class="cls-8" cx="302.06" cy="15.87" rx="0.7" ry="0.61"/><ellipse class="cls-8" cx="306.82" cy="15.87" rx="0.7" ry="0.61"/><ellipse class="cls-8" cx="311.59" cy="15.87" rx="0.7" ry="0.61"/><ellipse class="cls-8" cx="316.35" cy="15.87" rx="0.7" ry="0.61"/><ellipse class="cls-8" cx="321.11" cy="15.87" rx="0.7" ry="0.61"/><ellipse class="cls-8" cx="325.87" cy="15.87" rx="0.7" ry="0.61"/><ellipse class="cls-8" cx="330.63" cy="15.87" rx="0.7" ry="0.61"/><ellipse class="cls-8" cx="144.92" cy="20.04" rx="0.7" ry="0.61"/><ellipse class="cls-8" cx="149.68" cy="20.04" rx="0.7" ry="0.61"/><ellipse class="cls-8" cx="154.44" cy="20.04" rx="0.7" ry="0.61"/><ellipse class="cls-8" cx="159.21" cy="20.04" rx="0.7" ry="0.61"/><ellipse class="cls-8" cx="163.97" cy="20.04" rx="0.7" ry="0.61"/><ellipse class="cls-8" cx="168.73" cy="20.04" rx="0.7" ry="0.61"/><ellipse class="cls-8" cx="173.49" cy="20.04" rx="0.7" ry="0.61"/><ellipse class="cls-8" cx="178.25" cy="20.04" rx="0.7" ry="0.61"/><ellipse class="cls-8" cx="183.01" cy="20.04" rx="0.7" ry="0.61"/><ellipse class="cls-8" cx="187.78" cy="20.04" rx="0.7" ry="0.61"/><ellipse class="cls-8" cx="192.54" cy="20.04" rx="0.7" ry="0.61"/><ellipse class="cls-8" cx="197.3" cy="20.04" rx="0.7" ry="0.61"/><ellipse class="cls-8" cx="202.06" cy="20.04" rx="0.7" ry="0.61"/><ellipse class="cls-8" cx="206.82" cy="20.04" rx="0.7" ry="0.61"/><ellipse class="cls-8" cx="211.59" cy="20.04" rx="0.7" ry="0.61"/><ellipse class="cls-8" cx="216.35" cy="20.04" rx="0.7" ry="0.61"/><ellipse class="cls-8" cx="221.11" cy="20.04" rx="0.7" ry="0.61"/><ellipse class="cls-8" cx="225.87" cy="20.04" rx="0.7" ry="0.61"/><ellipse class="cls-8" cx="230.63" cy="20.04" rx="0.7" ry="0.61"/><ellipse class="cls-8" cx="235.4" cy="20.04" rx="0.7" ry="0.61"/><ellipse class="cls-8" cx="240.16" cy="20.04" rx="0.7" ry="0.61"/><ellipse class="cls-8" cx="244.92" cy="20.04" rx="0.7" ry="0.61"/><ellipse class="cls-8" cx="249.68" cy="20.04" rx="0.7" ry="0.61"/><ellipse class="cls-8" cx="254.44" cy="20.04" rx="0.7" ry="0.61"/><ellipse class="cls-8" cx="259.21" cy="20.04" rx="0.7" ry="0.61"/><ellipse class="cls-8" cx="263.97" cy="20.04" rx="0.7" ry="0.61"/><ellipse class="cls-8" cx="268.73" cy="20.04" rx="0.7" ry="0.61"/><ellipse class="cls-8" cx="273.49" cy="20.04" rx="0.7" ry="0.61"/><ellipse class="cls-8" cx="278.25" cy="20.04" rx="0.7" ry="0.61"/><ellipse class="cls-8" cx="283.01" cy="20.04" rx="0.7" ry="0.61"/><ellipse class="cls-8" cx="287.78" cy="20.04" rx="0.7" ry="0.61"/><ellipse class="cls-8" cx="292.54" cy="20.04" rx="0.7" ry="0.61"/><ellipse class="cls-8" cx="297.3" cy="20.04" rx="0.7" ry="0.61"/><ellipse class="cls-8" cx="302.06" cy="20.04" rx="0.7" ry="0.61"/><ellipse class="cls-8" cx="306.82" cy="20.04" rx="0.7" ry="0.61"/><ellipse class="cls-8" cx="311.59" cy="20.04" rx="0.7" ry="0.61"/><ellipse class="cls-8" cx="316.35" cy="20.04" rx="0.7" ry="0.61"/><ellipse class="cls-8" cx="321.11" cy="20.04" rx="0.7" ry="0.61"/><ellipse class="cls-8" cx="325.87" cy="20.04" rx="0.7" ry="0.61"/><ellipse class="cls-8" cx="330.63" cy="20.04" rx="0.7" ry="0.61"/><ellipse class="cls-8" cx="144.92" cy="24.21" rx="0.7" ry="0.61"/><ellipse class="cls-8" cx="149.68" cy="24.21" rx="0.7" ry="0.61"/><ellipse class="cls-8" cx="154.44" cy="24.21" rx="0.7" ry="0.61"/><ellipse class="cls-8" cx="159.21" cy="24.21" rx="0.7" ry="0.61"/><ellipse class="cls-8" cx="163.97" cy="24.21" rx="0.7" ry="0.61"/><ellipse class="cls-8" cx="168.73" cy="24.21" rx="0.7" ry="0.61"/><ellipse class="cls-8" cx="173.49" cy="24.21" rx="0.7" ry="0.61"/><ellipse class="cls-8" cx="178.25" cy="24.21" rx="0.7" ry="0.61"/><ellipse class="cls-8" cx="183.01" cy="24.21" rx="0.7" ry="0.61"/><ellipse class="cls-8" cx="187.78" cy="24.21" rx="0.7" ry="0.61"/><ellipse class="cls-8" cx="192.54" cy="24.21" rx="0.7" ry="0.61"/><ellipse class="cls-8" cx="197.3" cy="24.21" rx="0.7" ry="0.61"/><ellipse class="cls-8" cx="202.06" cy="24.21" rx="0.7" ry="0.61"/><ellipse class="cls-8" cx="206.82" cy="24.21" rx="0.7" ry="0.61"/><ellipse class="cls-8" cx="211.59" cy="24.21" rx="0.7" ry="0.61"/><ellipse class="cls-8" cx="216.35" cy="24.21" rx="0.7" ry="0.61"/><ellipse class="cls-8" cx="221.11" cy="24.21" rx="0.7" ry="0.61"/><ellipse class="cls-8" cx="225.87" cy="24.21" rx="0.7" ry="0.61"/><ellipse class="cls-8" cx="230.63" cy="24.21" rx="0.7" ry="0.61"/><ellipse class="cls-8" cx="235.4" cy="24.21" rx="0.7" ry="0.61"/><ellipse class="cls-8" cx="240.16" cy="24.21" rx="0.7" ry="0.61"/><ellipse class="cls-8" cx="244.92" cy="24.21" rx="0.7" ry="0.61"/><ellipse class="cls-8" cx="249.68" cy="24.21" rx="0.7" ry="0.61"/><ellipse class="cls-8" cx="254.44" cy="24.21" rx="0.7" ry="0.61"/><ellipse class="cls-8" cx="259.21" cy="24.21" rx="0.7" ry="0.61"/><ellipse class="cls-8" cx="263.97" cy="24.21" rx="0.7" ry="0.61"/><ellipse class="cls-8" cx="268.73" cy="24.21" rx="0.7" ry="0.61"/><ellipse class="cls-8" cx="273.49" cy="24.21" rx="0.7" ry="0.61"/><ellipse class="cls-8" cx="278.25" cy="24.21" rx="0.7" ry="0.61"/><ellipse class="cls-8" cx="283.01" cy="24.21" rx="0.7" ry="0.61"/><ellipse class="cls-8" cx="287.78" cy="24.21" rx="0.7" ry="0.61"/><ellipse class="cls-8" cx="292.54" cy="24.21" rx="0.7" ry="0.61"/><ellipse class="cls-8" cx="297.3" cy="24.21" rx="0.7" ry="0.61"/><ellipse class="cls-8" cx="302.06" cy="24.21" rx="0.7" ry="0.61"/><ellipse class="cls-8" cx="306.82" cy="24.21" rx="0.7" ry="0.61"/><ellipse class="cls-8" cx="311.59" cy="24.21" rx="0.7" ry="0.61"/><ellipse class="cls-8" cx="316.35" cy="24.21" rx="0.7" ry="0.61"/><ellipse class="cls-8" cx="321.11" cy="24.21" rx="0.7" ry="0.61"/><ellipse class="cls-8" cx="325.87" cy="24.21" rx="0.7" ry="0.61"/><ellipse class="cls-8" cx="330.63" cy="24.21" rx="0.7" ry="0.61"/><ellipse class="cls-8" cx="144.92" cy="28.37" rx="0.7" ry="0.61"/><ellipse class="cls-8" cx="149.68" cy="28.37" rx="0.7" ry="0.61"/><ellipse class="cls-8" cx="154.44" cy="28.37" rx="0.7" ry="0.61"/><ellipse class="cls-8" cx="159.21" cy="28.37" rx="0.7" ry="0.61"/><ellipse class="cls-8" cx="163.97" cy="28.37" rx="0.7" ry="0.61"/><ellipse class="cls-8" cx="168.73" cy="28.37" rx="0.7" ry="0.61"/><ellipse class="cls-8" cx="173.49" cy="28.37" rx="0.7" ry="0.61"/><ellipse class="cls-8" cx="178.25" cy="28.37" rx="0.7" ry="0.61"/><ellipse class="cls-8" cx="183.01" cy="28.37" rx="0.7" ry="0.61"/><ellipse class="cls-8" cx="187.78" cy="28.37" rx="0.7" ry="0.61"/><ellipse class="cls-8" cx="192.54" cy="28.37" rx="0.7" ry="0.61"/><ellipse class="cls-8" cx="197.3" cy="28.37" rx="0.7" ry="0.61"/><ellipse class="cls-8" cx="202.06" cy="28.37" rx="0.7" ry="0.61"/><ellipse class="cls-8" cx="206.82" cy="28.37" rx="0.7" ry="0.61"/><ellipse class="cls-8" cx="211.59" cy="28.37" rx="0.7" ry="0.61"/><ellipse class="cls-8" cx="216.35" cy="28.37" rx="0.7" ry="0.61"/><ellipse class="cls-8" cx="221.11" cy="28.37" rx="0.7" ry="0.61"/><ellipse class="cls-8" cx="225.87" cy="28.37" rx="0.7" ry="0.61"/><ellipse class="cls-8" cx="230.63" cy="28.37" rx="0.7" ry="0.61"/><ellipse class="cls-8" cx="235.4" cy="28.37" rx="0.7" ry="0.61"/><ellipse class="cls-8" cx="240.16" cy="28.37" rx="0.7" ry="0.61"/><ellipse class="cls-8" cx="244.92" cy="28.37" rx="0.7" ry="0.61"/><ellipse class="cls-8" cx="249.68" cy="28.37" rx="0.7" ry="0.61"/><ellipse class="cls-8" cx="254.44" cy="28.37" rx="0.7" ry="0.61"/><ellipse class="cls-8" cx="259.21" cy="28.37" rx="0.7" ry="0.61"/><ellipse class="cls-8" cx="263.97" cy="28.37" rx="0.7" ry="0.61"/><ellipse class="cls-8" cx="268.73" cy="28.37" rx="0.7" ry="0.61"/><ellipse class="cls-8" cx="273.49" cy="28.37" rx="0.7" ry="0.61"/><ellipse class="cls-8" cx="278.25" cy="28.37" rx="0.7" ry="0.61"/><ellipse class="cls-8" cx="283.01" cy="28.37" rx="0.7" ry="0.61"/><ellipse class="cls-8" cx="287.78" cy="28.37" rx="0.7" ry="0.61"/><ellipse class="cls-8" cx="292.54" cy="28.37" rx="0.7" ry="0.61"/><ellipse class="cls-8" cx="297.3" cy="28.37" rx="0.7" ry="0.61"/><ellipse class="cls-8" cx="302.06" cy="28.37" rx="0.7" ry="0.61"/><ellipse class="cls-8" cx="306.82" cy="28.37" rx="0.7" ry="0.61"/><ellipse class="cls-8" cx="311.59" cy="28.37" rx="0.7" ry="0.61"/><ellipse class="cls-8" cx="316.35" cy="28.37" rx="0.7" ry="0.61"/><ellipse class="cls-8" cx="321.11" cy="28.37" rx="0.7" ry="0.61"/><ellipse class="cls-8" cx="325.87" cy="28.37" rx="0.7" ry="0.61"/><ellipse class="cls-8" cx="330.63" cy="28.37" rx="0.7" ry="0.61"/><ellipse class="cls-8" cx="144.92" cy="32.54" rx="0.7" ry="0.61"/><ellipse class="cls-8" cx="149.68" cy="32.54" rx="0.7" ry="0.61"/><ellipse class="cls-8" cx="154.44" cy="32.54" rx="0.7" ry="0.61"/><ellipse class="cls-8" cx="159.21" cy="32.54" rx="0.7" ry="0.61"/><ellipse class="cls-8" cx="163.97" cy="32.54" rx="0.7" ry="0.61"/><ellipse class="cls-8" cx="168.73" cy="32.54" rx="0.7" ry="0.61"/><ellipse class="cls-8" cx="173.49" cy="32.54" rx="0.7" ry="0.61"/><ellipse class="cls-8" cx="178.25" cy="32.54" rx="0.7" ry="0.61"/><ellipse class="cls-8" cx="183.01" cy="32.54" rx="0.7" ry="0.61"/><ellipse class="cls-8" cx="187.78" cy="32.54" rx="0.7" ry="0.61"/><ellipse class="cls-8" cx="192.54" cy="32.54" rx="0.7" ry="0.61"/><ellipse class="cls-8" cx="197.3" cy="32.54" rx="0.7" ry="0.61"/><ellipse class="cls-8" cx="202.06" cy="32.54" rx="0.7" ry="0.61"/><ellipse class="cls-8" cx="206.82" cy="32.54" rx="0.7" ry="0.61"/><ellipse class="cls-8" cx="211.59" cy="32.54" rx="0.7" ry="0.61"/><ellipse class="cls-8" cx="216.35" cy="32.54" rx="0.7" ry="0.61"/><ellipse class="cls-8" cx="221.11" cy="32.54" rx="0.7" ry="0.61"/><ellipse class="cls-8" cx="225.87" cy="32.54" rx="0.7" ry="0.61"/><ellipse class="cls-8" cx="230.63" cy="32.54" rx="0.7" ry="0.61"/><ellipse class="cls-8" cx="235.4" cy="32.54" rx="0.7" ry="0.61"/><ellipse class="cls-8" cx="240.16" cy="32.54" rx="0.7" ry="0.61"/><ellipse class="cls-8" cx="244.92" cy="32.54" rx="0.7" ry="0.61"/><ellipse class="cls-8" cx="249.68" cy="32.54" rx="0.7" ry="0.61"/><ellipse class="cls-8" cx="254.44" cy="32.54" rx="0.7" ry="0.61"/><ellipse class="cls-8" cx="259.21" cy="32.54" rx="0.7" ry="0.61"/><ellipse class="cls-8" cx="263.97" cy="32.54" rx="0.7" ry="0.61"/><ellipse class="cls-8" cx="268.73" cy="32.54" rx="0.7" ry="0.61"/><ellipse class="cls-8" cx="273.49" cy="32.54" rx="0.7" ry="0.61"/><ellipse class="cls-8" cx="278.25" cy="32.54" rx="0.7" ry="0.61"/><ellipse class="cls-8" cx="283.01" cy="32.54" rx="0.7" ry="0.61"/><ellipse class="cls-8" cx="287.78" cy="32.54" rx="0.7" ry="0.61"/><ellipse class="cls-8" cx="292.54" cy="32.54" rx="0.7" ry="0.61"/><ellipse class="cls-8" cx="297.3" cy="32.54" rx="0.7" ry="0.61"/><ellipse class="cls-8" cx="302.06" cy="32.54" rx="0.7" ry="0.61"/><ellipse class="cls-8" cx="306.82" cy="32.54" rx="0.7" ry="0.61"/><ellipse class="cls-8" cx="311.59" cy="32.54" rx="0.7" ry="0.61"/><ellipse class="cls-8" cx="316.35" cy="32.54" rx="0.7" ry="0.61"/><ellipse class="cls-8" cx="321.11" cy="32.54" rx="0.7" ry="0.61"/><ellipse class="cls-8" cx="325.87" cy="32.54" rx="0.7" ry="0.61"/><ellipse class="cls-8" cx="330.63" cy="32.54" rx="0.7" ry="0.61"/><ellipse class="cls-8" cx="144.92" cy="36.71" rx="0.7" ry="0.61"/><ellipse class="cls-8" cx="149.68" cy="36.71" rx="0.7" ry="0.61"/><ellipse class="cls-8" cx="154.44" cy="36.71" rx="0.7" ry="0.61"/><ellipse class="cls-8" cx="159.21" cy="36.71" rx="0.7" ry="0.61"/><ellipse class="cls-8" cx="163.97" cy="36.71" rx="0.7" ry="0.61"/><ellipse class="cls-8" cx="168.73" cy="36.71" rx="0.7" ry="0.61"/><ellipse class="cls-8" cx="173.49" cy="36.71" rx="0.7" ry="0.61"/><ellipse class="cls-8" cx="178.25" cy="36.71" rx="0.7" ry="0.61"/><ellipse class="cls-8" cx="183.01" cy="36.71" rx="0.7" ry="0.61"/><ellipse class="cls-8" cx="187.78" cy="36.71" rx="0.7" ry="0.61"/><ellipse class="cls-8" cx="192.54" cy="36.71" rx="0.7" ry="0.61"/><ellipse class="cls-8" cx="197.3" cy="36.71" rx="0.7" ry="0.61"/><ellipse class="cls-8" cx="202.06" cy="36.71" rx="0.7" ry="0.61"/><ellipse class="cls-8" cx="206.82" cy="36.71" rx="0.7" ry="0.61"/><ellipse class="cls-8" cx="211.59" cy="36.71" rx="0.7" ry="0.61"/><ellipse class="cls-8" cx="216.35" cy="36.71" rx="0.7" ry="0.61"/><ellipse class="cls-8" cx="221.11" cy="36.71" rx="0.7" ry="0.61"/><ellipse class="cls-8" cx="225.87" cy="36.71" rx="0.7" ry="0.61"/><ellipse class="cls-8" cx="230.63" cy="36.71" rx="0.7" ry="0.61"/><ellipse class="cls-8" cx="235.4" cy="36.71" rx="0.7" ry="0.61"/><ellipse class="cls-8" cx="240.16" cy="36.71" rx="0.7" ry="0.61"/><ellipse class="cls-8" cx="244.92" cy="36.71" rx="0.7" ry="0.61"/><ellipse class="cls-8" cx="249.68" cy="36.71" rx="0.7" ry="0.61"/><ellipse class="cls-8" cx="254.44" cy="36.71" rx="0.7" ry="0.61"/><ellipse class="cls-8" cx="259.21" cy="36.71" rx="0.7" ry="0.61"/><ellipse class="cls-8" cx="263.97" cy="36.71" rx="0.7" ry="0.61"/><ellipse class="cls-8" cx="268.73" cy="36.71" rx="0.7" ry="0.61"/><ellipse class="cls-8" cx="273.49" cy="36.71" rx="0.7" ry="0.61"/><ellipse class="cls-8" cx="278.25" cy="36.71" rx="0.7" ry="0.61"/><ellipse class="cls-8" cx="283.01" cy="36.71" rx="0.7" ry="0.61"/><ellipse class="cls-8" cx="287.78" cy="36.71" rx="0.7" ry="0.61"/><ellipse class="cls-8" cx="292.54" cy="36.71" rx="0.7" ry="0.61"/><ellipse class="cls-8" cx="297.3" cy="36.71" rx="0.7" ry="0.61"/><ellipse class="cls-8" cx="302.06" cy="36.71" rx="0.7" ry="0.61"/><ellipse class="cls-8" cx="306.82" cy="36.71" rx="0.7" ry="0.61"/><ellipse class="cls-8" cx="311.59" cy="36.71" rx="0.7" ry="0.61"/><ellipse class="cls-8" cx="316.35" cy="36.71" rx="0.7" ry="0.61"/><ellipse class="cls-8" cx="321.11" cy="36.71" rx="0.7" ry="0.61"/><ellipse class="cls-8" cx="325.87" cy="36.71" rx="0.7" ry="0.61"/><ellipse class="cls-8" cx="330.63" cy="36.71" rx="0.7" ry="0.61"/><ellipse class="cls-8" cx="144.92" cy="40.87" rx="0.7" ry="0.61"/><ellipse class="cls-8" cx="149.68" cy="40.87" rx="0.7" ry="0.61"/><ellipse class="cls-8" cx="154.44" cy="40.87" rx="0.7" ry="0.61"/><ellipse class="cls-8" cx="159.21" cy="40.87" rx="0.7" ry="0.61"/><ellipse class="cls-8" cx="163.97" cy="40.87" rx="0.7" ry="0.61"/><ellipse class="cls-8" cx="168.73" cy="40.87" rx="0.7" ry="0.61"/><ellipse class="cls-8" cx="173.49" cy="40.87" rx="0.7" ry="0.61"/><ellipse class="cls-8" cx="178.25" cy="40.87" rx="0.7" ry="0.61"/><ellipse class="cls-8" cx="183.01" cy="40.87" rx="0.7" ry="0.61"/><ellipse class="cls-8" cx="187.78" cy="40.87" rx="0.7" ry="0.61"/><ellipse class="cls-8" cx="192.54" cy="40.87" rx="0.7" ry="0.61"/><ellipse class="cls-8" cx="197.3" cy="40.87" rx="0.7" ry="0.61"/><ellipse class="cls-8" cx="202.06" cy="40.87" rx="0.7" ry="0.61"/><ellipse class="cls-8" cx="206.82" cy="40.87" rx="0.7" ry="0.61"/><ellipse class="cls-8" cx="211.59" cy="40.87" rx="0.7" ry="0.61"/><ellipse class="cls-8" cx="216.35" cy="40.87" rx="0.7" ry="0.61"/><ellipse class="cls-8" cx="221.11" cy="40.87" rx="0.7" ry="0.61"/><ellipse class="cls-8" cx="225.87" cy="40.87" rx="0.7" ry="0.61"/><ellipse class="cls-8" cx="230.63" cy="40.87" rx="0.7" ry="0.61"/><ellipse class="cls-8" cx="235.4" cy="40.87" rx="0.7" ry="0.61"/><ellipse class="cls-8" cx="240.16" cy="40.87" rx="0.7" ry="0.61"/><ellipse class="cls-8" cx="244.92" cy="40.87" rx="0.7" ry="0.61"/><ellipse class="cls-8" cx="249.68" cy="40.87" rx="0.7" ry="0.61"/><ellipse class="cls-8" cx="254.44" cy="40.87" rx="0.7" ry="0.61"/><ellipse class="cls-8" cx="259.21" cy="40.87" rx="0.7" ry="0.61"/><ellipse class="cls-8" cx="263.97" cy="40.87" rx="0.7" ry="0.61"/><ellipse class="cls-8" cx="268.73" cy="40.87" rx="0.7" ry="0.61"/><ellipse class="cls-8" cx="273.49" cy="40.87" rx="0.7" ry="0.61"/><ellipse class="cls-8" cx="278.25" cy="40.87" rx="0.7" ry="0.61"/><ellipse class="cls-8" cx="283.01" cy="40.87" rx="0.7" ry="0.61"/><ellipse class="cls-8" cx="287.78" cy="40.87" rx="0.7" ry="0.61"/><ellipse class="cls-8" cx="292.54" cy="40.87" rx="0.7" ry="0.61"/><ellipse class="cls-8" cx="297.3" cy="40.87" rx="0.7" ry="0.61"/><ellipse class="cls-8" cx="302.06" cy="40.87" rx="0.7" ry="0.61"/><ellipse class="cls-8" cx="306.82" cy="40.87" rx="0.7" ry="0.61"/><ellipse class="cls-8" cx="311.59" cy="40.87" rx="0.7" ry="0.61"/><ellipse class="cls-8" cx="316.35" cy="40.87" rx="0.7" ry="0.61"/><ellipse class="cls-8" cx="321.11" cy="40.87" rx="0.7" ry="0.61"/><ellipse class="cls-8" cx="325.87" cy="40.87" rx="0.7" ry="0.61"/><ellipse class="cls-8" cx="330.63" cy="40.87" rx="0.7" ry="0.61"/></g><g class="cls-7"><path class="cls-8" d="M16,171.54a.62.62,0,1,0,0-1.23.62.62,0,1,0,0,1.23Z"/><path class="cls-8" d="M20.73,171.54a.62.62,0,1,0,0-1.23.62.62,0,1,0,0,1.23Z"/><path class="cls-8" d="M25.5,171.54a.62.62,0,1,0-.7-.61A.67.67,0,0,0,25.5,171.54Z"/><path class="cls-8" d="M30.26,171.54a.62.62,0,1,0-.7-.61A.66.66,0,0,0,30.26,171.54Z"/><path class="cls-8" d="M35,171.54a.62.62,0,1,0-.7-.61A.66.66,0,0,0,35,171.54Z"/><path class="cls-8" d="M39.78,171.54a.62.62,0,1,0,0-1.23.62.62,0,1,0,0,1.23Z"/><path class="cls-8" d="M44.54,171.54a.62.62,0,1,0,0-1.23.62.62,0,1,0,0,1.23Z"/><path class="cls-8" d="M49.31,171.54a.62.62,0,1,0-.7-.61A.67.67,0,0,0,49.31,171.54Z"/><path class="cls-8" d="M54.07,171.54a.62.62,0,1,0-.7-.61A.67.67,0,0,0,54.07,171.54Z"/><path class="cls-8" d="M58.83,171.54a.62.62,0,1,0-.7-.61A.66.66,0,0,0,58.83,171.54Z"/><path class="cls-8" d="M63.59,171.54a.62.62,0,1,0,0-1.23.62.62,0,1,0,0,1.23Z"/><path class="cls-8" d="M68.35,171.54a.62.62,0,1,0,0-1.23.62.62,0,1,0,0,1.23Z"/><path class="cls-8" d="M73.12,171.54a.62.62,0,1,0-.7-.61A.67.67,0,0,0,73.12,171.54Z"/><path class="cls-8" d="M77.88,171.54a.62.62,0,1,0-.7-.61A.67.67,0,0,0,77.88,171.54Z"/><path class="cls-8" d="M82.64,171.54a.62.62,0,1,0-.7-.61A.66.66,0,0,0,82.64,171.54Z"/><path class="cls-8" d="M87.4,171.54a.62.62,0,1,0-.7-.61A.66.66,0,0,0,87.4,171.54Z"/><path class="cls-8" d="M92.16,171.54a.62.62,0,1,0,0-1.23.62.62,0,1,0,0,1.23Z"/><path class="cls-8" d="M96.93,171.54a.62.62,0,1,0-.7-.61A.67.67,0,0,0,96.93,171.54Z"/><path class="cls-8" d="M101.69,171.54a.62.62,0,1,0-.7-.61A.67.67,0,0,0,101.69,171.54Z"/><path class="cls-8" d="M106.45,171.54a.62.62,0,1,0-.7-.61A.66.66,0,0,0,106.45,171.54Z"/><path class="cls-8" d="M111.21,171.54a.62.62,0,1,0-.7-.61A.66.66,0,0,0,111.21,171.54Z"/><path class="cls-8" d="M116,171.54a.62.62,0,1,0,0-1.23.62.62,0,1,0,0,1.23Z"/><path class="cls-8" d="M120.73,171.54a.62.62,0,1,0,0-1.23.62.62,0,1,0,0,1.23Z"/><path class="cls-8" d="M125.5,171.54a.62.62,0,1,0-.7-.61A.67.67,0,0,0,125.5,171.54Z"/><path class="cls-8" d="M130.26,171.54a.62.62,0,1,0-.7-.61A.66.66,0,0,0,130.26,171.54Z"/><path class="cls-8" d="M135,171.54a.62.62,0,1,0-.7-.61A.66.66,0,0,0,135,171.54Z"/><path class="cls-8" d="M139.78,171.54a.62.62,0,1,0,0-1.23.62.62,0,1,0,0,1.23Z"/><path class="cls-8" d="M144.54,171.54a.62.62,0,1,0,0-1.23.62.62,0,1,0,0,1.23Z"/><path class="cls-8" d="M149.31,171.54a.62.62,0,1,0-.7-.61A.67.67,0,0,0,149.31,171.54Z"/><path class="cls-8" d="M154.07,171.54a.62.62,0,1,0-.7-.61A.67.67,0,0,0,154.07,171.54Z"/><path class="cls-8" d="M158.83,171.54a.62.62,0,1,0-.7-.61A.66.66,0,0,0,158.83,171.54Z"/><path class="cls-8" d="M163.59,171.54a.62.62,0,1,0,0-1.23.62.62,0,1,0,0,1.23Z"/><path class="cls-8" d="M168.35,171.54a.62.62,0,1,0,0-1.23.62.62,0,1,0,0,1.23Z"/><path class="cls-8" d="M173.12,171.54a.62.62,0,1,0-.7-.61A.67.67,0,0,0,173.12,171.54Z"/><path class="cls-8" d="M177.88,171.54a.62.62,0,1,0-.7-.61A.67.67,0,0,0,177.88,171.54Z"/><path class="cls-8" d="M182.64,171.54a.62.62,0,1,0-.7-.61A.66.66,0,0,0,182.64,171.54Z"/><path class="cls-8" d="M187.4,171.54a.62.62,0,1,0-.7-.61A.66.66,0,0,0,187.4,171.54Z"/><path class="cls-8" d="M192.16,171.54a.62.62,0,1,0,0-1.23.62.62,0,1,0,0,1.23Z"/><path class="cls-8" d="M196.93,171.54a.62.62,0,1,0-.7-.61A.67.67,0,0,0,196.93,171.54Z"/><path class="cls-8" d="M201.69,171.54a.62.62,0,1,0-.7-.61A.67.67,0,0,0,201.69,171.54Z"/><path class="cls-8" d="M206.45,171.54a.62.62,0,1,0-.7-.61A.66.66,0,0,0,206.45,171.54Z"/><path class="cls-8" d="M211.21,171.54a.62.62,0,1,0-.7-.61A.66.66,0,0,0,211.21,171.54Z"/><path class="cls-8" d="M216,171.54a.62.62,0,1,0,0-1.23.62.62,0,1,0,0,1.23Z"/><path class="cls-8" d="M16,175.71a.66.66,0,0,0,.7-.62.71.71,0,0,0-1.4,0A.67.67,0,0,0,16,175.71Z"/><path class="cls-8" d="M20.73,175.71a.66.66,0,0,0,.7-.62.71.71,0,0,0-1.4,0A.67.67,0,0,0,20.73,175.71Z"/><path class="cls-8" d="M25.5,175.71a.67.67,0,0,0,.7-.62.71.71,0,1,0-.7.62Z"/><path class="cls-8" d="M30.26,175.71a.66.66,0,0,0,.7-.62.71.71,0,0,0-1.4,0A.66.66,0,0,0,30.26,175.71Z"/><path class="cls-8" d="M35,175.71a.66.66,0,0,0,.7-.62.71.71,0,0,0-1.4,0A.66.66,0,0,0,35,175.71Z"/><path class="cls-8" d="M39.78,175.71a.66.66,0,0,0,.7-.62.71.71,0,0,0-1.4,0A.67.67,0,0,0,39.78,175.71Z"/><path class="cls-8" d="M44.54,175.71a.66.66,0,0,0,.7-.62.71.71,0,0,0-1.4,0A.67.67,0,0,0,44.54,175.71Z"/><path class="cls-8" d="M49.31,175.71a.67.67,0,0,0,.7-.62.71.71,0,1,0-.7.62Z"/><path class="cls-8" d="M54.07,175.71a.67.67,0,0,0,.7-.62.71.71,0,1,0-.7.62Z"/><path class="cls-8" d="M58.83,175.71a.66.66,0,0,0,.7-.62.71.71,0,0,0-1.4,0A.66.66,0,0,0,58.83,175.71Z"/><path class="cls-8" d="M63.59,175.71a.66.66,0,0,0,.7-.62.71.71,0,0,0-1.4,0A.67.67,0,0,0,63.59,175.71Z"/><path class="cls-8" d="M68.35,175.71a.66.66,0,0,0,.7-.62.71.71,0,0,0-1.4,0A.67.67,0,0,0,68.35,175.71Z"/><path class="cls-8" d="M73.12,175.71a.67.67,0,0,0,.7-.62.71.71,0,1,0-.7.62Z"/><path class="cls-8" d="M77.88,175.71a.67.67,0,0,0,.7-.62.71.71,0,1,0-.7.62Z"/><path class="cls-8" d="M82.64,175.71a.66.66,0,0,0,.7-.62.71.71,0,0,0-1.4,0A.66.66,0,0,0,82.64,175.71Z"/><path class="cls-8" d="M87.4,175.71a.66.66,0,0,0,.7-.62.71.71,0,0,0-1.4,0A.66.66,0,0,0,87.4,175.71Z"/><path class="cls-8" d="M92.16,175.71a.66.66,0,0,0,.7-.62.71.71,0,0,0-1.4,0A.67.67,0,0,0,92.16,175.71Z"/><path class="cls-8" d="M96.93,175.71a.67.67,0,0,0,.7-.62.71.71,0,1,0-.7.62Z"/><path class="cls-8" d="M101.69,175.71a.67.67,0,0,0,.7-.62.71.71,0,1,0-.7.62Z"/><path class="cls-8" d="M106.45,175.71a.66.66,0,0,0,.7-.62.71.71,0,0,0-1.4,0A.66.66,0,0,0,106.45,175.71Z"/><path class="cls-8" d="M111.21,175.71a.66.66,0,0,0,.7-.62.71.71,0,0,0-1.4,0A.66.66,0,0,0,111.21,175.71Z"/><path class="cls-8" d="M116,175.71a.66.66,0,0,0,.7-.62.71.71,0,0,0-1.4,0A.67.67,0,0,0,116,175.71Z"/><path class="cls-8" d="M120.73,175.71a.66.66,0,0,0,.7-.62.71.71,0,0,0-1.4,0A.67.67,0,0,0,120.73,175.71Z"/><path class="cls-8" d="M125.5,175.71a.67.67,0,0,0,.7-.62.71.71,0,1,0-.7.62Z"/><path class="cls-8" d="M130.26,175.71a.66.66,0,0,0,.7-.62.71.71,0,0,0-1.4,0A.66.66,0,0,0,130.26,175.71Z"/><path class="cls-8" d="M135,175.71a.66.66,0,0,0,.7-.62.71.71,0,0,0-1.4,0A.66.66,0,0,0,135,175.71Z"/><path class="cls-8" d="M139.78,175.71a.66.66,0,0,0,.7-.62.71.71,0,0,0-1.4,0A.67.67,0,0,0,139.78,175.71Z"/><path class="cls-8" d="M144.54,175.71a.66.66,0,0,0,.7-.62.71.71,0,0,0-1.4,0A.67.67,0,0,0,144.54,175.71Z"/><path class="cls-8" d="M149.31,175.71a.67.67,0,0,0,.7-.62.71.71,0,1,0-.7.62Z"/><path class="cls-8" d="M154.07,175.71a.67.67,0,0,0,.7-.62.71.71,0,1,0-.7.62Z"/><path class="cls-8" d="M158.83,175.71a.66.66,0,0,0,.7-.62.71.71,0,0,0-1.4,0A.66.66,0,0,0,158.83,175.71Z"/><path class="cls-8" d="M163.59,175.71a.66.66,0,0,0,.7-.62.71.71,0,0,0-1.4,0A.67.67,0,0,0,163.59,175.71Z"/><path class="cls-8" d="M168.35,175.71a.66.66,0,0,0,.7-.62.71.71,0,0,0-1.4,0A.67.67,0,0,0,168.35,175.71Z"/><path class="cls-8" d="M173.12,175.71a.67.67,0,0,0,.7-.62.71.71,0,1,0-.7.62Z"/><path class="cls-8" d="M177.88,175.71a.67.67,0,0,0,.7-.62.71.71,0,1,0-.7.62Z"/><path class="cls-8" d="M182.64,175.71a.66.66,0,0,0,.7-.62.71.71,0,0,0-1.4,0A.66.66,0,0,0,182.64,175.71Z"/><path class="cls-8" d="M187.4,175.71a.66.66,0,0,0,.7-.62.71.71,0,0,0-1.4,0A.66.66,0,0,0,187.4,175.71Z"/><path class="cls-8" d="M192.16,175.71a.66.66,0,0,0,.7-.62.71.71,0,0,0-1.4,0A.67.67,0,0,0,192.16,175.71Z"/><path class="cls-8" d="M196.93,175.71a.67.67,0,0,0,.7-.62.71.71,0,1,0-.7.62Z"/><path class="cls-8" d="M201.69,175.71a.67.67,0,0,0,.7-.62.71.71,0,1,0-.7.62Z"/><path class="cls-8" d="M206.45,175.71a.66.66,0,0,0,.7-.62.71.71,0,0,0-1.4,0A.66.66,0,0,0,206.45,175.71Z"/><path class="cls-8" d="M211.21,175.71a.66.66,0,0,0,.7-.62.71.71,0,0,0-1.4,0A.66.66,0,0,0,211.21,175.71Z"/><path class="cls-8" d="M216,175.71a.66.66,0,0,0,.7-.62.71.71,0,0,0-1.4,0A.67.67,0,0,0,216,175.71Z"/><path class="cls-8" d="M16,179.87a.62.62,0,1,0-.7-.61A.66.66,0,0,0,16,179.87Z"/><path class="cls-8" d="M20.73,179.87a.62.62,0,1,0-.7-.61A.66.66,0,0,0,20.73,179.87Z"/><path class="cls-8" d="M25.5,179.87a.62.62,0,1,0-.7-.61A.66.66,0,0,0,25.5,179.87Z"/><path class="cls-8" d="M30.26,179.87a.62.62,0,1,0-.7-.61A.66.66,0,0,0,30.26,179.87Z"/><path class="cls-8" d="M35,179.87a.62.62,0,1,0-.7-.61A.66.66,0,0,0,35,179.87Z"/><path class="cls-8" d="M39.78,179.87a.62.62,0,1,0-.7-.61A.66.66,0,0,0,39.78,179.87Z"/><path class="cls-8" d="M44.54,179.87a.62.62,0,1,0-.7-.61A.66.66,0,0,0,44.54,179.87Z"/><path class="cls-8" d="M49.31,179.87a.62.62,0,1,0-.7-.61A.66.66,0,0,0,49.31,179.87Z"/><path class="cls-8" d="M54.07,179.87a.62.62,0,1,0-.7-.61A.66.66,0,0,0,54.07,179.87Z"/><path class="cls-8" d="M58.83,179.87a.62.62,0,1,0-.7-.61A.66.66,0,0,0,58.83,179.87Z"/><path class="cls-8" d="M63.59,179.87a.62.62,0,1,0-.7-.61A.66.66,0,0,0,63.59,179.87Z"/><path class="cls-8" d="M68.35,179.87a.62.62,0,1,0-.7-.61A.66.66,0,0,0,68.35,179.87Z"/><path class="cls-8" d="M73.12,179.87a.62.62,0,1,0-.7-.61A.66.66,0,0,0,73.12,179.87Z"/><path class="cls-8" d="M77.88,179.87a.62.62,0,1,0-.7-.61A.66.66,0,0,0,77.88,179.87Z"/><path class="cls-8" d="M82.64,179.87a.62.62,0,1,0-.7-.61A.66.66,0,0,0,82.64,179.87Z"/><path class="cls-8" d="M87.4,179.87a.62.62,0,1,0-.7-.61A.66.66,0,0,0,87.4,179.87Z"/><path class="cls-8" d="M92.16,179.87a.62.62,0,1,0-.7-.61A.66.66,0,0,0,92.16,179.87Z"/><path class="cls-8" d="M96.93,179.87a.62.62,0,1,0-.7-.61A.66.66,0,0,0,96.93,179.87Z"/><path class="cls-8" d="M101.69,179.87a.62.62,0,1,0-.7-.61A.66.66,0,0,0,101.69,179.87Z"/><path class="cls-8" d="M106.45,179.87a.62.62,0,1,0-.7-.61A.66.66,0,0,0,106.45,179.87Z"/><path class="cls-8" d="M111.21,179.87a.62.62,0,1,0-.7-.61A.66.66,0,0,0,111.21,179.87Z"/><path class="cls-8" d="M116,179.87a.62.62,0,1,0-.7-.61A.66.66,0,0,0,116,179.87Z"/><path class="cls-8" d="M120.73,179.87a.62.62,0,1,0-.7-.61A.66.66,0,0,0,120.73,179.87Z"/><path class="cls-8" d="M125.5,179.87a.62.62,0,1,0-.7-.61A.66.66,0,0,0,125.5,179.87Z"/><path class="cls-8" d="M130.26,179.87a.62.62,0,1,0-.7-.61A.66.66,0,0,0,130.26,179.87Z"/><path class="cls-8" d="M135,179.87a.62.62,0,1,0-.7-.61A.66.66,0,0,0,135,179.87Z"/><path class="cls-8" d="M139.78,179.87a.62.62,0,1,0-.7-.61A.66.66,0,0,0,139.78,179.87Z"/><path class="cls-8" d="M144.54,179.87a.62.62,0,1,0-.7-.61A.66.66,0,0,0,144.54,179.87Z"/><path class="cls-8" d="M149.31,179.87a.62.62,0,1,0-.7-.61A.66.66,0,0,0,149.31,179.87Z"/><path class="cls-8" d="M154.07,179.87a.62.62,0,1,0-.7-.61A.66.66,0,0,0,154.07,179.87Z"/><path class="cls-8" d="M158.83,179.87a.62.62,0,1,0-.7-.61A.66.66,0,0,0,158.83,179.87Z"/><path class="cls-8" d="M163.59,179.87a.62.62,0,1,0-.7-.61A.66.66,0,0,0,163.59,179.87Z"/><path class="cls-8" d="M168.35,179.87a.62.62,0,1,0-.7-.61A.66.66,0,0,0,168.35,179.87Z"/><path class="cls-8" d="M173.12,179.87a.62.62,0,1,0-.7-.61A.66.66,0,0,0,173.12,179.87Z"/><path class="cls-8" d="M177.88,179.87a.62.62,0,1,0-.7-.61A.66.66,0,0,0,177.88,179.87Z"/><path class="cls-8" d="M182.64,179.87a.62.62,0,1,0-.7-.61A.66.66,0,0,0,182.64,179.87Z"/><path class="cls-8" d="M187.4,179.87a.62.62,0,1,0-.7-.61A.66.66,0,0,0,187.4,179.87Z"/><path class="cls-8" d="M192.16,179.87a.62.62,0,1,0-.7-.61A.66.66,0,0,0,192.16,179.87Z"/><path class="cls-8" d="M196.93,179.87a.62.62,0,1,0-.7-.61A.66.66,0,0,0,196.93,179.87Z"/><path class="cls-8" d="M201.69,179.87a.62.62,0,1,0-.7-.61A.66.66,0,0,0,201.69,179.87Z"/><path class="cls-8" d="M206.45,179.87a.62.62,0,1,0-.7-.61A.66.66,0,0,0,206.45,179.87Z"/><path class="cls-8" d="M211.21,179.87a.62.62,0,1,0-.7-.61A.66.66,0,0,0,211.21,179.87Z"/><path class="cls-8" d="M216,179.87a.62.62,0,1,0-.7-.61A.66.66,0,0,0,216,179.87Z"/><path class="cls-8" d="M16,184a.62.62,0,1,0,0-1.23A.62.62,0,1,0,16,184Z"/><path class="cls-8" d="M20.73,184a.62.62,0,1,0,0-1.23.62.62,0,1,0,0,1.23Z"/><path class="cls-8" d="M25.5,184a.62.62,0,1,0-.7-.61A.67.67,0,0,0,25.5,184Z"/><path class="cls-8" d="M30.26,184a.62.62,0,1,0-.7-.61A.66.66,0,0,0,30.26,184Z"/><path class="cls-8" d="M35,184a.62.62,0,1,0-.7-.61A.66.66,0,0,0,35,184Z"/><path class="cls-8" d="M39.78,184a.62.62,0,1,0,0-1.23.62.62,0,1,0,0,1.23Z"/><path class="cls-8" d="M44.54,184a.62.62,0,1,0,0-1.23.62.62,0,1,0,0,1.23Z"/><path class="cls-8" d="M49.31,184a.62.62,0,1,0-.7-.61A.67.67,0,0,0,49.31,184Z"/><path class="cls-8" d="M54.07,184a.62.62,0,1,0-.7-.61A.67.67,0,0,0,54.07,184Z"/><path class="cls-8" d="M58.83,184a.62.62,0,1,0-.7-.61A.66.66,0,0,0,58.83,184Z"/><path class="cls-8" d="M63.59,184a.62.62,0,1,0,0-1.23.62.62,0,1,0,0,1.23Z"/><path class="cls-8" d="M68.35,184a.62.62,0,1,0,0-1.23.62.62,0,1,0,0,1.23Z"/><path class="cls-8" d="M73.12,184a.62.62,0,1,0-.7-.61A.67.67,0,0,0,73.12,184Z"/><path class="cls-8" d="M77.88,184a.62.62,0,1,0-.7-.61A.67.67,0,0,0,77.88,184Z"/><path class="cls-8" d="M82.64,184a.62.62,0,1,0-.7-.61A.66.66,0,0,0,82.64,184Z"/><path class="cls-8" d="M87.4,184a.62.62,0,1,0-.7-.61A.66.66,0,0,0,87.4,184Z"/><path class="cls-8" d="M92.16,184a.62.62,0,1,0,0-1.23.62.62,0,1,0,0,1.23Z"/><path class="cls-8" d="M96.93,184a.62.62,0,1,0-.7-.61A.67.67,0,0,0,96.93,184Z"/><path class="cls-8" d="M101.69,184a.62.62,0,1,0-.7-.61A.67.67,0,0,0,101.69,184Z"/><path class="cls-8" d="M106.45,184a.62.62,0,1,0-.7-.61A.66.66,0,0,0,106.45,184Z"/><path class="cls-8" d="M111.21,184a.62.62,0,1,0-.7-.61A.66.66,0,0,0,111.21,184Z"/><path class="cls-8" d="M116,184a.62.62,0,1,0,0-1.23.62.62,0,1,0,0,1.23Z"/><path class="cls-8" d="M120.73,184a.62.62,0,1,0,0-1.23.62.62,0,1,0,0,1.23Z"/><path class="cls-8" d="M125.5,184a.62.62,0,1,0-.7-.61A.67.67,0,0,0,125.5,184Z"/><path class="cls-8" d="M130.26,184a.62.62,0,1,0-.7-.61A.66.66,0,0,0,130.26,184Z"/><path class="cls-8" d="M135,184a.62.62,0,1,0-.7-.61A.66.66,0,0,0,135,184Z"/><path class="cls-8" d="M139.78,184a.62.62,0,1,0,0-1.23.62.62,0,1,0,0,1.23Z"/><path class="cls-8" d="M144.54,184a.62.62,0,1,0,0-1.23.62.62,0,1,0,0,1.23Z"/><path class="cls-8" d="M149.31,184a.62.62,0,1,0-.7-.61A.67.67,0,0,0,149.31,184Z"/><path class="cls-8" d="M154.07,184a.62.62,0,1,0-.7-.61A.67.67,0,0,0,154.07,184Z"/><path class="cls-8" d="M158.83,184a.62.62,0,1,0-.7-.61A.66.66,0,0,0,158.83,184Z"/><path class="cls-8" d="M163.59,184a.62.62,0,1,0,0-1.23.62.62,0,1,0,0,1.23Z"/><path class="cls-8" d="M168.35,184a.62.62,0,1,0,0-1.23.62.62,0,1,0,0,1.23Z"/><path class="cls-8" d="M173.12,184a.62.62,0,1,0-.7-.61A.67.67,0,0,0,173.12,184Z"/><path class="cls-8" d="M177.88,184a.62.62,0,1,0-.7-.61A.67.67,0,0,0,177.88,184Z"/><path class="cls-8" d="M182.64,184a.62.62,0,1,0-.7-.61A.66.66,0,0,0,182.64,184Z"/><path class="cls-8" d="M187.4,184a.62.62,0,1,0-.7-.61A.66.66,0,0,0,187.4,184Z"/><path class="cls-8" d="M192.16,184a.62.62,0,1,0,0-1.23.62.62,0,1,0,0,1.23Z"/><path class="cls-8" d="M196.93,184a.62.62,0,1,0-.7-.61A.67.67,0,0,0,196.93,184Z"/><path class="cls-8" d="M201.69,184a.62.62,0,1,0-.7-.61A.67.67,0,0,0,201.69,184Z"/><path class="cls-8" d="M206.45,184a.62.62,0,1,0-.7-.61A.66.66,0,0,0,206.45,184Z"/><path class="cls-8" d="M211.21,184a.62.62,0,1,0-.7-.61A.66.66,0,0,0,211.21,184Z"/><path class="cls-8" d="M216,184a.62.62,0,1,0,0-1.23.62.62,0,1,0,0,1.23Z"/></g></g></g></svg>