<svg xmlns="http://www.w3.org/2000/svg" xmlns:xlink="http://www.w3.org/1999/xlink" viewBox="0 0 400 200"><defs><style>.cls-1,.cls-12,.cls-14,.cls-17,.cls-19,.cls-23,.cls-27,.cls-33,.cls-37,.cls-42,.cls-43,.cls-44,.cls-45,.cls-5,.cls-6{fill:none;}.cls-2{isolation:isolate;}.cls-3{opacity:0.45;}.cls-4{fill:#d2def9;}.cls-27,.cls-5,.cls-6{stroke:#fff;}.cls-19,.cls-23,.cls-27,.cls-37,.cls-42,.cls-43,.cls-44,.cls-45,.cls-5{stroke-miterlimit:10;}.cls-44,.cls-45,.cls-5,.cls-6{stroke-width:0.7px;}.cls-12,.cls-14,.cls-17,.cls-33,.cls-6{stroke-linejoin:round;}.cls-7{fill:#e9f1ff;}.cls-8{fill:#f777ba;}.cls-9{fill:#0b0b3a;}.cls-10{fill:#18277a;}.cls-11{fill:#212237;}.cls-12,.cls-14{stroke:#cc328a;}.cls-12,.cls-19,.cls-33,.cls-37,.cls-42,.cls-43{stroke-width:0.35px;}.cls-13{fill:#ff855a;}.cls-14,.cls-17{stroke-width:0.23px;}.cls-15{fill:#fff;}.cls-16{fill:#00276f;}.cls-17{stroke:#00276f;stroke-linecap:round;}.cls-18{fill:#ff9357;}.cls-19{stroke:#a52f2d;}.cls-20{fill:#83a3fc;}.cls-21{clip-path:url(#clip-path);}.cls-22{opacity:0.19;mix-blend-mode:screen;}.cls-23,.cls-44{stroke:#91abe5;}.cls-23,.cls-27{stroke-width:5.12px;}.cls-24{fill:#ffc7ca;}.cls-25{clip-path:url(#clip-path-2);}.cls-26{opacity:0.25;}.cls-28{fill:#b5c8f7;}.cls-29{clip-path:url(#clip-path-3);}.cls-30{fill:#9fbfff;}.cls-31{clip-path:url(#clip-path-4);}.cls-32{opacity:0.35;}.cls-33{stroke:#1a3987;}.cls-34{fill:#ffe1ad;}.cls-35{fill:#cc328a;}.cls-36{fill:#2a2a68;}.cls-37{stroke:#5565aa;}.cls-38{fill:#2e7efa;}.cls-39{fill:#4376cf;}.cls-40{fill:#9cd0ff;}.cls-41{fill:#816fc2;}.cls-42{stroke:#4c3f89;}.cls-43{stroke:#d19b4b;}.cls-45{stroke:#ff9c94;}</style><clipPath id="clip-path"><path id="SVGID" class="cls-1" d="M248.39,126.92a1.39,1.39,0,0,0-1.18,2.25,9.09,9.09,0,0,1,2.1,6.41c-.38,5.45-5.72,9.51-11.92,9.07s-10.92-5.21-10.53-10.65a9.09,9.09,0,0,1,3-6.06,1.39,1.39,0,0,0-.86-2.39l-15.07-1.07a5.73,5.73,0,0,0-6.11,5.31l-1,14.58a1.38,1.38,0,0,0,2.19,1.22,9.08,9.08,0,0,1,5.88-1.69c5.45.38,9.5,5.72,9.07,11.92s-5.21,10.92-10.66,10.54a9.1,9.1,0,0,1-5.58-2.51,1.38,1.38,0,0,0-2.34.9l-1,14.59a5.73,5.73,0,0,0,5.3,6.11l49.55,3.5a5.71,5.71,0,0,0,6.11-5.3l3.51-49.55a5.72,5.72,0,0,0-5.31-6.11Z"/></clipPath><clipPath id="clip-path-2"><path id="SVGID-2" data-name="SVGID" class="cls-1" d="M188.14,103.26c-5.41-.68-9.17-6.23-8.4-12.4s5.8-10.62,11.21-9.94a9.09,9.09,0,0,1,5.73,3.13,1.38,1.38,0,0,0,2.41-.74L201,68.49a5.73,5.73,0,0,0-5-6.39l-49.28-6.19a5.71,5.71,0,0,0-6.39,5l-6.2,49.29a5.73,5.73,0,0,0,5,6.39l15.06,1.89a1.39,1.39,0,0,0,1.3-2.19,9.15,9.15,0,0,1-1.8-6.6c.68-5.41,6.23-9.17,12.4-8.4s10.62,5.8,9.94,11.21a9.15,9.15,0,0,1-3.38,6,1.38,1.38,0,0,0,.71,2.44l15.06,1.89a5.71,5.71,0,0,0,6.39-5L196.62,103a1.38,1.38,0,0,0-2.15-1.32A9.09,9.09,0,0,1,188.14,103.26Z"/></clipPath><clipPath id="clip-path-3"><path id="SVGID-3" data-name="SVGID" class="cls-1" d="M259.85,58.9l-49.68-.51a5.72,5.72,0,0,0-5.78,5.66l-.15,14.7a1.39,1.39,0,0,1-2.28,1,9,9,0,0,0-5.83-2.26c-5.45-.05-9.93,4.94-10,11.16s4.3,11.3,9.76,11.35a9,9,0,0,0,5.88-2.13A1.38,1.38,0,0,1,204,99l-.15,14.7a5.72,5.72,0,0,0,5.66,5.78l15.2.16a1.38,1.38,0,0,1,1,2.34,9.12,9.12,0,0,0-2.69,6.32c-.06,5.45,4.94,9.93,11.15,10s11.3-4.3,11.36-9.76a9.16,9.16,0,0,0-2.56-6.37,1.38,1.38,0,0,1,1-2.32l15.19.15a5.71,5.71,0,0,0,5.78-5.66l.52-49.67A5.73,5.73,0,0,0,259.85,58.9Z"/></clipPath><clipPath id="clip-path-4"><path id="SVGID-4" data-name="SVGID" class="cls-1" d="M204.94,143.42a9.1,9.1,0,0,0-5.88,2.67,1.38,1.38,0,0,1-2.34-.92l-.83-14.84a5.73,5.73,0,0,0-6-5.4l-15.12.85a1.38,1.38,0,0,1-1.14-2.27,9.09,9.09,0,0,0,2.22-6.42c-.3-5.45-5.58-9.58-11.79-9.24s-11,5.05-10.68,10.5a9.1,9.1,0,0,0,2.92,6.13,1.39,1.39,0,0,1-.88,2.39l-15.12.84a5.72,5.72,0,0,0-5.39,6l2.78,49.59a5.7,5.7,0,0,0,6,5.39l49.6-2.78a5.72,5.72,0,0,0,5.39-6l-.84-14.84a1.39,1.39,0,0,1,2.23-1.18,9.12,9.12,0,0,0,6.14,2c5.45-.31,9.59-5.59,9.24-11.79S210.39,143.12,204.94,143.42Z"/></clipPath></defs><g class="cls-2"><g id="レイヤー_1" data-name="レイヤー 1"><g class="cls-3"><path class="cls-4" d="M56.86,50H90.74c5.32,0,7-.17,12.28,0,.06-3.27-.86-6.36-2.42-8a5.77,5.77,0,0,0-5.31-1.62C93,41,91.44,42.51,90,43.65c-.53-4.51-2.39-8.63-4.4-9.52-3.45-1.55-7,.9-8.67,3.28a14.83,14.83,0,0,0-2.33,6.64c-2.17-2.39-7-4.21-8.76-.42a10.52,10.52,0,0,0-.56,4.84A10.08,10.08,0,0,0,56.86,50Z"/></g><g class="cls-3"><path class="cls-4" d="M305.86,20.78c-.65-2.65-6.81-6.51-10.1-4.18-1-5-1.95-8.19-5.25-10.67s-8.81.76-9.69,7.56c-.88-2.8-5.38-6.56-9-3.38-3.34,2.94-3.68,7.87-3.33,10.67Z"/></g><g class="cls-3"><path class="cls-4" d="M348.69,56a6.24,6.24,0,0,0-5.22-4.11,11.13,11.13,0,0,0-5.77,1.33s1.08-4.14-.39-7.4c-1-2.22-2.59-4.31-4.79-4.86s-4.71.55-6.41,2.31a20.18,20.18,0,0,0-3.78,6.43c-.51-1.65-1.18-3.51-2.67-4.12s-3.34.46-4.14,2a10.19,10.19,0,0,0-.74,5.27,5.78,5.78,0,0,0-5.88-.31A4.79,4.79,0,0,0,306.76,56Z"/></g><path class="cls-4" d="M141.3,112.64a51.89,51.89,0,0,1-23.7-17.35c-6.11-7.83-13-25-11.81-39.5,27.07,8,38.05,33.17,39.69,48.42"/><path class="cls-5" d="M105.79,55.79s4.45,34.89,35.75,54.15"/><path class="cls-5" d="M105.79,55.79S124.25,88.88,144.5,109"/><path class="cls-5" d="M105.79,55.79s27.26,21.65,40,51.29"/><path class="cls-4" d="M141.4,170.26a55.46,55.46,0,0,1-33.5,1.2c-11-2.91-29.24-14.23-38.35-29,26.15-8.9,57.51,3.19,69.69,16.6"/><path class="cls-6" d="M69.55,142.42s28.5,30.15,70.17,25.08"/><path class="cls-6" d="M69.55,142.42s39.84,17.87,72.17,22"/><path class="cls-6" d="M69.55,142.42s39.72.25,72,19.15"/><path class="cls-7" d="M151.43,96.86a54.88,54.88,0,0,1-19-27.13c-3.5-10.68-3.93-31.9,3.45-47.42,21.45,16.9,28.29,49.4,23.71,66.72"/><path class="cls-6" d="M135.88,22.31S126.21,62.16,152.82,94"/><path class="cls-6" d="M135.88,22.31S142.49,65,156.49,94"/><path class="cls-6" d="M135.88,22.31s21.15,33.07,22.82,70"/><path class="cls-4" d="M233.52,91.86a48.61,48.61,0,0,0,24.29-13c6.7-6.44,15.37-21.47,16.19-35.06-26.17,3.85-39.69,25.71-43.24,39.64"/><path class="cls-6" d="M274,43.85s-8.76,31.76-40.34,45.48"/><path class="cls-6" d="M274,43.85s-21.51,28.23-43,44.22"/><path class="cls-6" d="M274,43.85s-28.16,16.46-43.87,42.26"/><path class="cls-4" d="M259.1,165.68c13.37,2.54,27.41.6,40-4.58s32.43-21,40.85-39c-37.68-8.8-67.82,13.68-80.11,30.73"/><path class="cls-6" d="M340,122.08s-29,38.52-79.3,40.23"/><path class="cls-6" d="M340,122.08s-39.65,26.49-80.26,34"/><path class="cls-6" d="M340,122.08s-47.15,7.29-82.39,34"/><path class="cls-7" d="M221.71,88.3c11.51-5,21-13.79,27.46-24.42s12.41-33.44,8.41-52.08c-27.48,12.75-43.18,46.09-42.68,66"/><path class="cls-6" d="M257.58,11.8s.24,45.49-36.63,73"/><path class="cls-6" d="M257.58,11.8s-18,44.34-40.59,72.07"/><path class="cls-6" d="M257.58,11.8S226.28,42.09,215,81.48"/><path class="cls-7" d="M139.55,152.71c-6.24,1-16.84,2.42-22.7-1.49-3.24-2.16-3.83-6.16-5.1-9.68a15.57,15.57,0,0,0-12.53-10.6c-2.36-.41-4.86-1.48-6-3.74-1.69-3.36.38-7.68-1-11.21-.73-1.89-2.31-3.23-3.61-4.74-3.15-3.64-3.93-9-3.93-9a14.76,14.76,0,0,0,8.07-.12,19.11,19.11,0,0,1,8.58-.93,8.61,8.61,0,0,1,5.42,3.32c1.75,2.1,3.22,3.69,5.74,4.56,3.89,1.35,13.55-1.91,14.61,3.68.28,1.52-.07,3.17.63,4.59,1.27,2.58,4.34,1.27,6.44,1.93,3.22,1,6.75,3.33,8.13,6.35,3.3,7.22,3.14,17.16,1.29,25"/><path class="cls-6" d="M85.11,102.32c10.51,11.36,26.41,15.62,36.66,27.25,3.07,3.49,5.54,7.53,8.43,11.19s6.39,7,10.66,8.45"/><path class="cls-6" d="M92.41,124.07a80.53,80.53,0,0,0,22.11-1.1s-2-10.66-3.73-14.73"/><path class="cls-6" d="M92.59,120.52c6,.44,11.11.08,18.15-.2"/><path class="cls-6" d="M91.72,115.09a68.18,68.18,0,0,0,9.8-.46"/><path class="cls-6" d="M86.66,108.21a25,25,0,0,0,5.35.21"/><path class="cls-6" d="M99.45,113.37s-2.41-7.54-4.32-11.85"/><path class="cls-6" d="M109.31,119.39s-2.42-12-4.78-17"/><path class="cls-6" d="M104.57,132.79a74.28,74.28,0,0,0,19-1"/><path class="cls-6" d="M121,128.74s-1.05-12.8-2.71-19.34"/><path class="cls-6" d="M129.22,117.7c1.21,7.89,1.37,23.54,1.37,23.54s-13.32,1.81-18.84.3"/><path class="cls-6" d="M136.29,146.8s.48-17.72-.57-27"/><path class="cls-6" d="M112.73,145.05s10.73,1.52,19.79-1.6"/><path class="cls-6" d="M138.5,148.21s3.09-14,.82-26.27"/><path class="cls-7" d="M225.35,76.55C228.19,69.22,232.79,62,230,53.9c-1.56-4.47-6.35-6.36-10-8.77-6.27-4.13-9.07-10.41-8.6-17.84.18-3-.33-6.27-2.59-8.21-3.37-2.88-8.87-1.43-12.51-3.95-2-1.36-3-3.61-4.4-5.56-3.28-4.73-9.21-7-9.21-7a19.71,19.71,0,0,1-2.38,9.77,25.45,25.45,0,0,0-3.45,10.18,10.81,10.81,0,0,0,2.28,7.41c1.92,2.64,3.32,4.82,3.61,8.09.46,5.07-5.94,16,.14,18.65,1.65.73,3.63.7,5.06,1.91,2.58,2.18.24,5.59.4,8.3.26,4.16,1.92,9,5,11.45,7.3,5.79,18.68,8.07,28.12,7.77"/><path class="cls-6" d="M182.66,3.05c10,15.58,10.47,36,20.88,51.27,3.12,4.6,7.05,8.59,10.41,13s6.21,9.5,6.67,15"/><path class="cls-6" d="M198,43.88s-11.58-5.1-15.75-8.19"/><path class="cls-6" d="M201.33,16.65c-1.18,7.44-3,13.51-5.28,22"/><path class="cls-6" d="M195.38,14.25A91,91,0,0,1,192.14,26"/><path class="cls-6" d="M189,6.4c.07.06-.16,2.07-1.25,6.54"/><path class="cls-6" d="M191.28,23.2c0,.05-7.93-4.79-12.31-8.19"/><path class="cls-6" d="M195.39,36.67c0-.05-13-5.92-18-10"/><path class="cls-6" d="M211.08,23.2c-1.13,4.3-3.3,15.44-9.75,26.54"/><path class="cls-6" d="M202.8,53.2s-14.29-4.46-21.28-8.1"/><path class="cls-6" d="M219.14,76.23s-20.32-3.83-30.6-7.4"/><path class="cls-6" d="M223.69,47.19s-1.25,13.41-7.32,23.63"/><path class="cls-7" d="M266.25,140.6c8.08-1.56,17.08-1.5,22.69-8.52,3.1-3.89,2.11-9.18,2.21-13.78.18-7.86,4.2-13.85,11.06-17.57,2.74-1.49,5.38-3.79,5.84-6.88.69-4.59-3.66-8.67-3.45-13.31.11-2.49,1.5-4.71,2.49-7,2.37-5.54,1.1-12.08,1.1-12.08a20.57,20.57,0,0,1-10,3.32,26.43,26.43,0,0,0-11,2.62,11.23,11.23,0,0,0-5.3,6.14c-1.29,3.17-2.44,5.63-5.19,7.72-4.24,3.22-17.49,3.62-16.48,10.51.27,1.87,1.39,3.61,1.12,5.55-.5,3.52-4.84,3.33-7.15,5-3.55,2.55-6.94,6.73-7.39,10.8-1.07,9.72,3.23,21.1,8.77,29.32"/><path class="cls-6" d="M307.75,61.73c-8.25,17.59-26.09,29.33-33.91,47.11-2.35,5.33-3.71,11-5.77,16.5s-5,10.81-9.64,14.3"/><path class="cls-6" d="M307.76,89.9a112.74,112.74,0,0,1-27.71,8.23s-1.92-13.13-1.5-18.55"/><path class="cls-6" d="M306.07,85.89c-7.27,3.1-13.66,4.86-22.46,7.56"/><path class="cls-6" d="M304.9,79.27A95.79,95.79,0,0,1,292.62,83"/><path class="cls-6" d="M308.28,69.18c0,.1-1.92,1-6.5,2.54"/><path class="cls-6" d="M294.65,80.61s-.15-9.71.42-15.49"/><path class="cls-6" d="M285,91.77s-2-14.84-1.15-21.61"/><path class="cls-6" d="M296.38,105.15a103.05,103.05,0,0,1-23.87,7"/><path class="cls-6" d="M274.43,107.56s-4-15.18-4.67-23.41"/><path class="cls-6" d="M259.73,98.39c1.78,9.59,8.06,27.67,8.06,27.67s17.18-3.65,23.36-7.76"/><path class="cls-6" d="M263.07,134.91s-7.92-20.19-10.48-31.31"/><path class="cls-6" d="M291.4,122.77s-12.61,6.35-25.07,6.66"/><path class="cls-6" d="M260.94,137.48s-9.61-14.77-11.9-29.88"/><path class="cls-8" d="M233.46,107.58c1.1,2.31,5.57,12.06,6.68,14.37-3.59,1.14-6.87,2.63-10.39,4-1.48,2,1.84-2,2-4.12"/><path class="cls-9" d="M241.15,125.16l-2,.7a8.84,8.84,0,0,0-.36-1,10.1,10.1,0,0,0-1.27.56,1.66,1.66,0,0,0-.23.58,1,1,0,0,1-.64.71l-8.06,2.78c-1,.35-1.57-.82-.71-1.77s2.48-2.72,2.56-2.78c3.32-.79,8.35-3.2,9-4.67C240.49,120.86,241.16,125.13,241.15,125.16Z"/><path class="cls-8" d="M232.57,81.17c.18,5.27-.37,15.83.34,20.31.45,2.82,5.53,16.84,5.53,16.84l-6.69,3.48a89.22,89.22,0,0,1-9-19.35c-2.12-6.8-2.28-14.28-2.28-20.43"/><path class="cls-8" d="M250.06,96.7c1.88,1.74,9.64,9.13,11.53,10.87-2.91,2.39-5.41,5-8.17,7.54-.64,2.41,1-2.5.32-4.58"/><path class="cls-9" d="M263.72,110.17l-1.62,1.4a7.59,7.59,0,0,0-.7-.78,7.75,7.75,0,0,0-1,1,1.55,1.55,0,0,0,0,.62,1,1,0,0,1-.33.9l-6.46,5.57c-.79.69-1.76-.18-1.31-1.38s1.29-3.45,1.35-3.53c2.79-2,6.57-6.07,6.62-7.67C261.51,106.43,263.71,110.14,263.72,110.17Z"/><path class="cls-8" d="M243.53,71.24s-.41,15.52,1.72,19.47c2.52,4.66,10.69,11.65,10.69,11.65l-2.2,8.17s-11.47-6.4-17.46-14.09c-4.54-5.85-4.76-24.3-4.76-24.3"/><path class="cls-10" d="M242.89,58.27c8.09,6.24,7.42,31.19,7.42,31.19s-9,2.36-16.32,2.36a115.21,115.21,0,0,1-15-1.16c.44-21.46,4.25-27,6.4-30.71"/><path class="cls-11" d="M227.81,24.2s1.82,5.31,1.53,6.54-4.32.9-5.34.85a30.63,30.63,0,0,1,.81-6.5"/><path class="cls-8" d="M228.43,30.44l.43,3s2.15,1.39,3.95.66,1.81-1.81,1.81-1.81l-2.29-5.43"/><path class="cls-8" d="M225.41,25.25c0,3.81.64,6.8,3.16,6.6a3.94,3.94,0,0,0,3.67-5.35C231.24,23.37,225.63,23.05,225.41,25.25Z"/><path class="cls-12" d="M228.66,32.07a4.34,4.34,0,0,0,3.54-2.65"/><polygon class="cls-13" points="231.83 26.34 231.83 26.33 231.83 26.34 231.83 26.34"/><path class="cls-13" d="M231.82,26.34v0s0,0,0,0v0s0,0,0,0Z"/><path class="cls-11" d="M229.36,25a8,8,0,0,1-5.1,0,3.46,3.46,0,0,1,3.42-3.18,4.15,4.15,0,0,1,4.15-.82,5.38,5.38,0,0,1,3.08,2.58,14.56,14.56,0,0,1,1.45,6.89,23.66,23.66,0,0,1-4.66.85C231.76,31.25,231,26.09,229.36,25Z"/><path class="cls-8" d="M230.62,27.51a.67.67,0,0,1,.34-.6c.53-.32,1,.31,1.09.89a1.54,1.54,0,0,1-.21,1c-.25.43-.65.6-1,.21"/><path class="cls-14" d="M227.39,27.28s-.45,1.46-.27,1.77,1,.13,1,.13"/><path class="cls-15" d="M227.35,29.86l2.3-.33a1.47,1.47,0,0,1-1.37,1.35C227.37,31,227.35,29.86,227.35,29.86Z"/><path class="cls-16" d="M226.36,27.11a.5.5,0,0,0,0,.12v.08a.81.81,0,0,0,0,.16.21.21,0,0,0,0,.13.24.24,0,0,0,.13,0,.19.19,0,0,0,.13,0,.18.18,0,0,0,.06-.13c0-.06,0-.11,0-.16s0-.13,0-.2l0,0a.1.1,0,0,0,0,0,.17.17,0,0,0-.1,0l-.08,0a.13.13,0,0,0-.07.09Z"/><path class="cls-17" d="M226.93,26.43a.6.6,0,0,0-.86.14"/><path class="cls-16" d="M229,27v.08a.17.17,0,0,0,0,.07.86.86,0,0,0,0,.16.17.17,0,0,0,0,.07.18.18,0,0,0,.17.11.19.19,0,0,0,.13-.05.22.22,0,0,0,.06-.13l0-.2a.22.22,0,0,0,0-.08s0-.05,0-.08a.23.23,0,0,0-.08-.09.16.16,0,0,0-.1,0,.15.15,0,0,0-.09,0l0,0a.19.19,0,0,0,0,.08Z"/><path class="cls-17" d="M228.71,26.19a1.12,1.12,0,0,1,1.23.14"/><path class="cls-8" d="M226.43,46.32c-7.31,10.16-22.25,19.29-22.25,19.29l-3.08-3.9S212.29,52.33,219,41.56"/><path class="cls-8" d="M202.42,60.67c-1.37,1.2-6,4-5.87,4.38s1.73-.62,1.76-.31-2.37,2-2.17,2.3,2.62-1.37,2.62-1.37-2.46,2.12-2.11,2.46,2.22-1.31,3-1.81c-.83.65-2,1.86-1.76,2.1s1.62-.78,2.71-1.51c-.63.51-1.73,1.51-1.49,1.74s3.73-2,6.94-4.27"/><path class="cls-12" d="M198.9,64.7a7.66,7.66,0,0,0,2.53-.33"/><path class="cls-18" d="M228,33.43c-3.2-.57-6,1.71-7.29,3.7a59.18,59.18,0,0,0-3.88,7.15l7.52,4.53,4.28-13.46"/><path class="cls-18" d="M228,33.43c1.49.28,1.85.81,2.9.47a14.86,14.86,0,0,0,3.35-1.56c-1.24.08,4.06,1,8.12,5.33,1.37,4.69,1.52,9.36,1.92,21.75a34.12,34.12,0,0,1-18.89.53s-1.15-5.41-2.47-9.41c-1.83-3.69-1-7.82,1-11.2C224,37.29,228,33.43,228,33.43Z"/><polygon class="cls-15" points="234.12 31.06 230.67 33.98 232.87 36.33 235.16 32.86 234.12 31.06"/><polygon class="cls-15" points="230.67 33.98 228.72 32.45 228.01 33.43 228.94 36.26 230.67 33.98"/><path class="cls-19" d="M221.92,46.35a19.68,19.68,0,0,1,1.29-6.11"/><path class="cls-20" d="M259.56,189.31h-.43l-49.55-3.51a6.08,6.08,0,0,1-5.63-6.48l1-14.58a1.74,1.74,0,0,1,2.93-1.13,8.69,8.69,0,0,0,5.37,2.41l.6,0c5,0,9.27-4.49,9.68-10.23a11.71,11.71,0,0,0-2.26-7.91,8.9,8.9,0,0,0-6.48-3.64c-.2,0-.4,0-.6,0a8.76,8.76,0,0,0-5.06,1.65,1.73,1.73,0,0,1-1,.33,1.76,1.76,0,0,1-1.28-.56,1.73,1.73,0,0,1-.46-1.3l1-14.59a6.08,6.08,0,0,1,6-5.64,3.24,3.24,0,0,1,.44,0L229,125.2a1.73,1.73,0,0,1,1.06,3A8.85,8.85,0,0,0,227.2,134c-.37,5.24,4.21,9.85,10.21,10.28l.89,0c5.63,0,10.32-3.85,10.66-8.77a8.78,8.78,0,0,0-2-6.17,1.74,1.74,0,0,1,1.35-2.82h.13l15.07,1.07a6.08,6.08,0,0,1,5.63,6.48l-3.51,49.55a6.08,6.08,0,0,1-6.05,5.64Z"/><path class="cls-15" d="M213.5,124.47h.41L229,125.55a1.39,1.39,0,0,1,.86,2.39,9.09,9.09,0,0,0-3,6.06c-.39,5.44,4.33,10.21,10.53,10.65.3,0,.61,0,.91,0,5.81,0,10.65-3.92,11-9.1a9.09,9.09,0,0,0-2.1-6.41,1.39,1.39,0,0,1,1.08-2.25h.1L263.46,128a5.72,5.72,0,0,1,5.31,6.11l-3.51,49.55a5.72,5.72,0,0,1-5.7,5.32l-.41,0-49.55-3.5a5.73,5.73,0,0,1-5.3-6.11l1-14.59a1.38,1.38,0,0,1,1.39-1.29,1.36,1.36,0,0,1,.95.39,9.1,9.1,0,0,0,5.58,2.51l.63,0c5.18,0,9.6-4.59,10-10.56.43-6.2-3.62-11.54-9.07-11.92-.21,0-.41,0-.62,0a9.08,9.08,0,0,0-5.26,1.71,1.37,1.37,0,0,1-.8.27,1.39,1.39,0,0,1-1.39-1.49l1-14.58a5.73,5.73,0,0,1,5.7-5.32m0-.7h0a6.43,6.43,0,0,0-6.39,6l-1,14.58a2,2,0,0,0,.54,1.56,2.1,2.1,0,0,0,1.54.67,2.05,2.05,0,0,0,1.21-.39,8.38,8.38,0,0,1,4.85-1.58,5.43,5.43,0,0,1,.57,0c5.05.35,8.83,5.37,8.42,11.18-.39,5.55-4.49,9.9-9.33,9.9l-.58,0a8.35,8.35,0,0,1-5.15-2.32,2.09,2.09,0,0,0-3.52,1.36l-1,14.59a6.42,6.42,0,0,0,6,6.85l49.55,3.51h.46a6.44,6.44,0,0,0,6.4-6l3.5-49.55a6.43,6.43,0,0,0-5.95-6.86l-15.07-1.06h-.15a2.07,2.07,0,0,0-1.88,1.19,2.05,2.05,0,0,0,.26,2.2,8.36,8.36,0,0,1,2,5.92c-.34,4.74-4.87,8.45-10.32,8.45l-.86,0a11.33,11.33,0,0,1-7.29-3.24,8.58,8.58,0,0,1-2.6-6.67,8.39,8.39,0,0,1,2.76-5.59,2.09,2.09,0,0,0-1.28-3.6L214,123.79l-.46,0Z"/><g class="cls-21"><g class="cls-22"><circle class="cls-23" cx="252.34" cy="200.68" r="28.32" transform="translate(-14.88 20.28) rotate(-4.47)"/><circle class="cls-23" cx="251.83" cy="200.02" r="17.89"/><circle class="cls-23" cx="252.34" cy="200.68" r="9.37" transform="translate(-43.64 72.83) rotate(-15.13)"/></g></g><path class="cls-24" d="M189.09,123.14a6.47,6.47,0,0,1-.76,0l-15.06-1.89a1.71,1.71,0,0,1-1.45-1.25,1.69,1.69,0,0,1,.56-1.81,8.85,8.85,0,0,0,3.25-5.72c.66-5.22-3.67-10.07-9.63-10.82a13.79,13.79,0,0,0-1.57-.1c-5.37,0-9.86,3.53-10.44,8.2a8.77,8.77,0,0,0,1.73,6.34,1.7,1.7,0,0,1,.15,1.8,1.73,1.73,0,0,1-1.54,1h-.23L139,116.89a6.07,6.07,0,0,1-5.26-6.78L140,60.83a6.08,6.08,0,0,1,6-5.32,6.64,6.64,0,0,1,.77.05L196,61.76a6.07,6.07,0,0,1,5.26,6.78l-1.86,14.81a1.72,1.72,0,0,1-1.73,1.52,1.69,1.69,0,0,1-1.29-.59,8.73,8.73,0,0,0-5.51-3,9.26,9.26,0,0,0-1-.07c-4.88,0-9.08,4.17-9.77,9.7a11.63,11.63,0,0,0,1.82,8,8.88,8.88,0,0,0,6.28,4,7.31,7.31,0,0,0,1.05.07,8.85,8.85,0,0,0,5-1.62,1.72,1.72,0,0,1,1-.31,1.74,1.74,0,0,1,1.31.6A1.72,1.72,0,0,1,197,103l-1.86,14.81A6.08,6.08,0,0,1,189.09,123.14Z"/><path class="cls-15" d="M146,55.86a6.09,6.09,0,0,1,.72,0L196,62.1a5.73,5.73,0,0,1,5,6.39l-1.87,14.82a1.38,1.38,0,0,1-1.38,1.21,1.33,1.33,0,0,1-1-.47A9.09,9.09,0,0,0,191,80.92a10.14,10.14,0,0,0-1.1-.06c-5,0-9.38,4.25-10.11,10-.77,6.17,3,11.72,8.4,12.4a8.13,8.13,0,0,0,1.1.07,9.19,9.19,0,0,0,5.23-1.68,1.35,1.35,0,0,1,.77-.25,1.39,1.39,0,0,1,1.38,1.57l-1.86,14.81a5.73,5.73,0,0,1-5.67,5,5.81,5.81,0,0,1-.72-.05l-15.06-1.89a1.38,1.38,0,0,1-.71-2.44,9.15,9.15,0,0,0,3.38-6c.68-5.41-3.77-10.43-9.94-11.21a14.65,14.65,0,0,0-1.61-.1c-5.5,0-10.17,3.57-10.79,8.5a9.15,9.15,0,0,0,1.8,6.6,1.38,1.38,0,0,1-1.11,2.2h-.19l-15.06-1.89a5.73,5.73,0,0,1-5-6.39l6.2-49.29a5.72,5.72,0,0,1,5.67-5m0-.69h0a6.43,6.43,0,0,0-6.37,5.61l-6.19,49.29a6.43,6.43,0,0,0,5.57,7.17l15.06,1.89.27,0a2.08,2.08,0,0,0,1.67-3.31,8.53,8.53,0,0,1-1.67-6.1c.57-4.5,4.91-7.89,10.1-7.89a11.09,11.09,0,0,1,1.52.1,11.27,11.27,0,0,1,7.1,3.63,8.56,8.56,0,0,1,2.23,6.8,8.45,8.45,0,0,1-3.12,5.49,2.08,2.08,0,0,0,1.06,3.67l15.06,1.9a7.34,7.34,0,0,0,.81,0,6.42,6.42,0,0,0,6.36-5.62l1.86-14.82a2.05,2.05,0,0,0-.49-1.63,2.11,2.11,0,0,0-1.58-.72,2.08,2.08,0,0,0-1.17.37,8.3,8.3,0,0,1-5.84,1.5c-5-.63-8.52-5.85-7.8-11.62.68-5.36,4.73-9.4,9.42-9.4a6.77,6.77,0,0,1,1,.07,8.31,8.31,0,0,1,5.3,2.89,2,2,0,0,0,1.55.71,2.09,2.09,0,0,0,2.08-1.83l1.86-14.81a6.43,6.43,0,0,0-5.57-7.17l-49.29-6.19a5.37,5.37,0,0,0-.8,0Z"/><g class="cls-25"><g class="cls-26"><circle class="cls-27" cx="140.13" cy="61.46" r="28.32"/><circle class="cls-27" cx="139.54" cy="60.86" r="19.3"/><circle class="cls-27" cx="140.13" cy="61.46" r="9.37"/></g></g><path class="cls-28" d="M234.18,138.66A12.38,12.38,0,0,1,226,135.6a9.37,9.37,0,0,1-.55-13.84,1,1,0,0,0,.21-1.11,1,1,0,0,0-1-.64l-15.19-.16a6.06,6.06,0,0,1-6-6.13L203.68,99a1,1,0,0,0-.29-.73,1,1,0,0,0-.75-.32,1,1,0,0,0-.64.23,9.35,9.35,0,0,1-6,2.21c-5.74-.06-10.28-5.31-10.21-11.71s4.66-11.5,10.25-11.5a9.49,9.49,0,0,1,6.15,2.34,1,1,0,0,0,.66.25,1,1,0,0,0,1-1L204,64a6.09,6.09,0,0,1,6.07-6l49.74.51a6.09,6.09,0,0,1,6,6.14l-.52,49.67a6.08,6.08,0,0,1-6.07,6L244,120.21a1,1,0,0,0-1,.62,1,1,0,0,0,.19,1.11,9.6,9.6,0,0,1,2.65,6.61c-.06,5.58-5.25,10.11-11.57,10.11Z"/><path class="cls-15" d="M210.11,58.39h.06l49.68.51a5.73,5.73,0,0,1,5.66,5.78L265,114.35a5.73,5.73,0,0,1-5.72,5.67h-.06L244,119.86h0a1.38,1.38,0,0,0-1,2.32,9.16,9.16,0,0,1,2.56,6.37c-.06,5.42-5.07,9.76-11.22,9.76h-.14c-6.21-.06-11.21-4.54-11.15-10a9.12,9.12,0,0,1,2.69-6.32,1.38,1.38,0,0,0-1-2.34l-15.2-.16a5.72,5.72,0,0,1-5.66-5.78L204,99a1.39,1.39,0,0,0-1.39-1.41,1.36,1.36,0,0,0-.86.31,9,9,0,0,1-5.79,2.14h-.09c-5.46,0-9.83-5.14-9.76-11.35s4.49-11.16,9.9-11.16h.09A9,9,0,0,1,202,79.8a1.38,1.38,0,0,0,2.28-1l.15-14.7a5.73,5.73,0,0,1,5.72-5.66m0-.7A6.43,6.43,0,0,0,203.7,64l-.16,14.7a.68.68,0,0,1-.69.69.69.69,0,0,1-.43-.16,9.7,9.7,0,0,0-6.28-2.42H196c-5.78,0-10.53,5.31-10.6,11.84a12.63,12.63,0,0,0,3,8.45,9.92,9.92,0,0,0,7.47,3.61h.1a9.71,9.71,0,0,0,6.23-2.29.64.64,0,0,1,.42-.15.73.73,0,0,1,.5.21.64.64,0,0,1,.19.49l-.15,14.7a6.42,6.42,0,0,0,6.35,6.49l15.2.15a.69.69,0,0,1,.63.43.68.68,0,0,1-.14.74,9.87,9.87,0,0,0-2.89,6.79c-.06,5.83,5.25,10.63,11.85,10.7h.14c6.51,0,11.86-4.69,11.92-10.45a9.89,9.89,0,0,0-2.75-6.85.68.68,0,0,1-.12-.74.66.66,0,0,1,.63-.41l15.2.15h.07a6.45,6.45,0,0,0,6.42-6.35l.51-49.67a6.43,6.43,0,0,0-6.35-6.49l-49.67-.51Z"/><g class="cls-29"><path class="cls-15" d="M187.67,67.54a1.34,1.34,0,0,1-1.55-1.09,1.35,1.35,0,0,1,1.1-1.55,1.34,1.34,0,0,1,.45,2.64Z"/><path class="cls-15" d="M200.11,65.44a1.32,1.32,0,0,1-1.54-1.09,1.34,1.34,0,0,1,1.1-1.54,1.32,1.32,0,0,1,1.54,1.09A1.34,1.34,0,0,1,200.11,65.44Z"/><path class="cls-15" d="M212.56,63.35a1.34,1.34,0,0,1-.44-2.64,1.32,1.32,0,0,1,1.54,1.09A1.35,1.35,0,0,1,212.56,63.35Z"/><path class="cls-15" d="M225,61.25a1.34,1.34,0,1,1,1.1-1.55A1.35,1.35,0,0,1,225,61.25Z"/><path class="cls-15" d="M237.46,59.15a1.34,1.34,0,0,1-1.54-1.1,1.33,1.33,0,1,1,2.63-.45A1.34,1.34,0,0,1,237.46,59.15Z"/><path class="cls-15" d="M249.91,57.05a1.35,1.35,0,0,1-1.55-1.1,1.34,1.34,0,0,1,1.1-1.54A1.32,1.32,0,0,1,251,55.5,1.35,1.35,0,0,1,249.91,57.05Z"/><path class="cls-15" d="M262.35,55a1.34,1.34,0,1,1-.44-2.64,1.32,1.32,0,0,1,1.54,1.09A1.35,1.35,0,0,1,262.35,55Z"/><path class="cls-15" d="M189.39,77.76a1.32,1.32,0,0,1-1.54-1.09,1.34,1.34,0,1,1,1.54,1.09Z"/><circle class="cls-15" cx="201.62" cy="74.34" r="1.34" transform="translate(-9.68 35.2) rotate(-9.75)"/><path class="cls-15" d="M214.29,73.57a1.35,1.35,0,0,1-1.55-1.1,1.34,1.34,0,0,1,1.1-1.54A1.32,1.32,0,0,1,215.38,72,1.35,1.35,0,0,1,214.29,73.57Z"/><path class="cls-15" d="M226.73,71.47a1.34,1.34,0,0,1-.44-2.64,1.32,1.32,0,0,1,1.54,1.09A1.35,1.35,0,0,1,226.73,71.47Z"/><path class="cls-15" d="M239.18,69.37a1.34,1.34,0,1,1-.44-2.64,1.32,1.32,0,0,1,1.54,1.09A1.35,1.35,0,0,1,239.18,69.37Z"/><path class="cls-15" d="M251.63,67.27a1.34,1.34,0,1,1,1.1-1.55A1.35,1.35,0,0,1,251.63,67.27Z"/><path class="cls-15" d="M264.08,65.17a1.35,1.35,0,0,1-1.55-1.1,1.34,1.34,0,0,1,1.1-1.54,1.32,1.32,0,0,1,1.54,1.09A1.34,1.34,0,0,1,264.08,65.17Z"/><path class="cls-15" d="M191.11,88a1.32,1.32,0,0,1-1.54-1.09,1.35,1.35,0,0,1,1.1-1.55,1.34,1.34,0,0,1,.44,2.64Z"/><path class="cls-15" d="M203.56,85.88A1.32,1.32,0,0,1,202,84.79a1.35,1.35,0,0,1,1.1-1.55,1.34,1.34,0,1,1,.44,2.64Z"/><path class="cls-15" d="M216,83.78a1.33,1.33,0,0,1-.45-2.63,1.33,1.33,0,1,1,.45,2.63Z"/><path class="cls-15" d="M228.46,81.69a1.35,1.35,0,0,1-1.55-1.1,1.34,1.34,0,0,1,1.1-1.54,1.32,1.32,0,0,1,1.54,1.09A1.34,1.34,0,0,1,228.46,81.69Z"/><path class="cls-15" d="M240.91,79.59a1.35,1.35,0,0,1-1.55-1.1,1.34,1.34,0,0,1,1.1-1.54A1.32,1.32,0,0,1,242,78,1.35,1.35,0,0,1,240.91,79.59Z"/><path class="cls-15" d="M253.35,77.49a1.34,1.34,0,0,1-.44-2.64,1.32,1.32,0,0,1,1.54,1.09A1.35,1.35,0,0,1,253.35,77.49Z"/><path class="cls-15" d="M265.8,75.39a1.34,1.34,0,1,1-.44-2.64,1.32,1.32,0,0,1,1.54,1.09A1.35,1.35,0,0,1,265.8,75.39Z"/><path class="cls-15" d="M192.84,98.2a1.32,1.32,0,0,1-1.54-1.09,1.33,1.33,0,1,1,2.63-.45A1.32,1.32,0,0,1,192.84,98.2Z"/><path class="cls-15" d="M205.29,96.1A1.34,1.34,0,0,1,203.74,95a1.35,1.35,0,0,1,1.1-1.55,1.34,1.34,0,0,1,.45,2.64Z"/><path class="cls-15" d="M217.73,94a1.32,1.32,0,0,1-1.54-1.09,1.35,1.35,0,0,1,1.1-1.55,1.34,1.34,0,0,1,.44,2.64Z"/><path class="cls-15" d="M230.18,91.9a1.32,1.32,0,0,1-1.54-1.09,1.34,1.34,0,0,1,1.1-1.54,1.32,1.32,0,0,1,1.54,1.09A1.34,1.34,0,0,1,230.18,91.9Z"/><path class="cls-15" d="M242.63,89.81a1.34,1.34,0,1,1,1.1-1.55A1.35,1.35,0,0,1,242.63,89.81Z"/><path class="cls-15" d="M255.08,87.71a1.35,1.35,0,0,1-1.55-1.1,1.34,1.34,0,0,1,1.1-1.54,1.32,1.32,0,0,1,1.54,1.09A1.34,1.34,0,0,1,255.08,87.71Z"/><path class="cls-15" d="M267.53,85.61a1.35,1.35,0,0,1-1.55-1.1,1.34,1.34,0,0,1,1.1-1.54,1.32,1.32,0,0,1,1.54,1.09A1.35,1.35,0,0,1,267.53,85.61Z"/><path class="cls-15" d="M194.56,108.42a1.32,1.32,0,0,1-1.54-1.09,1.35,1.35,0,0,1,1.1-1.55,1.34,1.34,0,1,1,.44,2.64Z"/><path class="cls-15" d="M207,106.32a1.32,1.32,0,0,1-1.54-1.09,1.34,1.34,0,1,1,1.54,1.09Z"/><path class="cls-15" d="M219.46,104.22a1.34,1.34,0,0,1-1.55-1.09,1.35,1.35,0,0,1,1.1-1.55,1.34,1.34,0,0,1,1.54,1.1A1.32,1.32,0,0,1,219.46,104.22Z"/><path class="cls-15" d="M231.91,102.12a1.33,1.33,0,1,1-.45-2.63,1.33,1.33,0,1,1,.45,2.63Z"/><path class="cls-15" d="M244.35,100a1.34,1.34,0,0,1-.44-2.64,1.32,1.32,0,0,1,1.54,1.09A1.35,1.35,0,0,1,244.35,100Z"/><path class="cls-15" d="M256.8,97.93a1.34,1.34,0,1,1,1.1-1.55A1.35,1.35,0,0,1,256.8,97.93Z"/><path class="cls-15" d="M269.25,95.83a1.34,1.34,0,0,1-1.54-1.1,1.32,1.32,0,0,1,1.09-1.54,1.34,1.34,0,0,1,1.55,1.09A1.35,1.35,0,0,1,269.25,95.83Z"/><path class="cls-15" d="M196.29,118.64a1.34,1.34,0,0,1-1.55-1.09,1.35,1.35,0,0,1,1.1-1.55,1.34,1.34,0,0,1,.45,2.64Z"/><path class="cls-15" d="M208.73,116.54a1.32,1.32,0,0,1-1.54-1.09,1.35,1.35,0,0,1,1.1-1.55,1.34,1.34,0,0,1,.44,2.64Z"/><path class="cls-15" d="M221.18,114.44a1.32,1.32,0,0,1-1.54-1.09,1.34,1.34,0,1,1,2.64-.45A1.34,1.34,0,0,1,221.18,114.44Z"/><path class="cls-15" d="M233.63,112.34a1.32,1.32,0,0,1-1.54-1.09,1.34,1.34,0,0,1,1.09-1.55,1.35,1.35,0,0,1,1.55,1.1A1.34,1.34,0,0,1,233.63,112.34Z"/><path class="cls-15" d="M246.08,110.24a1.33,1.33,0,1,1-.45-2.63,1.33,1.33,0,1,1,.45,2.63Z"/><path class="cls-15" d="M258.53,108.15a1.35,1.35,0,0,1-1.55-1.1,1.34,1.34,0,0,1,1.1-1.54,1.32,1.32,0,0,1,1.54,1.09A1.35,1.35,0,0,1,258.53,108.15Z"/><path class="cls-15" d="M271,106.05a1.34,1.34,0,1,1-.44-2.64,1.32,1.32,0,0,1,1.54,1.09A1.35,1.35,0,0,1,271,106.05Z"/><path class="cls-15" d="M198,128.86a1.32,1.32,0,0,1-1.54-1.09,1.34,1.34,0,1,1,1.54,1.09Z"/><path class="cls-15" d="M210.46,126.76a1.34,1.34,0,0,1-1.55-1.09,1.35,1.35,0,0,1,1.1-1.55,1.34,1.34,0,0,1,1.54,1.1A1.32,1.32,0,0,1,210.46,126.76Z"/><path class="cls-15" d="M222.91,124.66a1.34,1.34,0,0,1-1.55-1.09,1.35,1.35,0,0,1,1.1-1.55,1.34,1.34,0,0,1,.45,2.64Z"/><path class="cls-15" d="M235.35,122.56a1.32,1.32,0,0,1-1.54-1.09,1.35,1.35,0,0,1,1.1-1.55,1.34,1.34,0,1,1,.44,2.64Z"/><path class="cls-15" d="M247.8,120.46a1.32,1.32,0,0,1-1.54-1.09,1.34,1.34,0,1,1,2.64-.45A1.34,1.34,0,0,1,247.8,120.46Z"/><path class="cls-15" d="M260.25,118.36a1.33,1.33,0,1,1-.45-2.63,1.33,1.33,0,1,1,.45,2.63Z"/><path class="cls-15" d="M272.7,116.27a1.35,1.35,0,0,1-1.55-1.1,1.34,1.34,0,0,1,1.1-1.54,1.32,1.32,0,0,1,1.54,1.09A1.34,1.34,0,0,1,272.7,116.27Z"/><path class="cls-15" d="M199.73,139.08a1.32,1.32,0,0,1-1.54-1.09,1.35,1.35,0,0,1,1.1-1.55,1.34,1.34,0,0,1,.44,2.64Z"/><path class="cls-15" d="M212.18,137a1.32,1.32,0,0,1-1.54-1.09,1.34,1.34,0,1,1,2.64-.45A1.34,1.34,0,0,1,212.18,137Z"/><path class="cls-15" d="M224.63,134.88a1.32,1.32,0,0,1-1.54-1.09,1.34,1.34,0,0,1,1.09-1.55,1.35,1.35,0,0,1,1.55,1.1A1.34,1.34,0,0,1,224.63,134.88Z"/><path class="cls-15" d="M237.08,132.78a1.34,1.34,0,0,1-1.55-1.09,1.35,1.35,0,0,1,1.1-1.55,1.34,1.34,0,0,1,1.54,1.1A1.32,1.32,0,0,1,237.08,132.78Z"/><path class="cls-15" d="M249.52,130.68a1.33,1.33,0,0,1-1.54-1.09,1.35,1.35,0,0,1,1.1-1.55,1.34,1.34,0,1,1,.44,2.64Z"/><path class="cls-15" d="M262,128.58a1.32,1.32,0,0,1-1.54-1.09,1.35,1.35,0,0,1,1.1-1.55,1.34,1.34,0,0,1,.44,2.64Z"/><path class="cls-15" d="M274.42,126.48a1.32,1.32,0,0,1-1.54-1.09,1.34,1.34,0,1,1,1.54,1.09Z"/></g><path class="cls-30" d="M143.35,189.09a6.06,6.06,0,0,1-6-5.73l-2.78-49.59a6.05,6.05,0,0,1,5.72-6.4l15.12-.85a1,1,0,0,0,.92-.68,1,1,0,0,0-.26-1.1,9.52,9.52,0,0,1-3-6.37c-.32-5.63,4.62-10.5,11-10.86.25,0,.5,0,.75,0,6.1,0,11.11,4.21,11.41,9.58a9.53,9.53,0,0,1-2.3,6.67,1,1,0,0,0-.15,1.09,1.05,1.05,0,0,0,.94.61l15.18-.85h.35a6.07,6.07,0,0,1,6.06,5.73l.83,14.84a1,1,0,0,0,1,1,1,1,0,0,0,.71-.3,9.39,9.39,0,0,1,6.1-2.77h.52c5.46,0,10,4.84,10.35,11a12.36,12.36,0,0,1-2.52,8.34,9.62,9.62,0,0,1-7.05,3.82h-.51a9.45,9.45,0,0,1-5.86-2.08,1,1,0,0,0-.63-.22,1.06,1.06,0,0,0-.76.33,1,1,0,0,0-.28.77L199,179.9a6.08,6.08,0,0,1-5.73,6.4l-49.59,2.78Z"/><path class="cls-15" d="M164.75,107.83c5.89,0,10.77,4,11.06,9.26a9.09,9.09,0,0,1-2.22,6.42,1.38,1.38,0,0,0,1.06,2.27h.08l15.12-.85h.33a5.72,5.72,0,0,1,5.71,5.4l.83,14.84a1.38,1.38,0,0,0,1.39,1.31,1.32,1.32,0,0,0,.95-.39,9.1,9.1,0,0,1,5.88-2.67h.5c5.23,0,9.66,4.68,10,10.7.35,6.2-3.79,11.48-9.24,11.79h-.49a9.13,9.13,0,0,1-5.65-2,1.35,1.35,0,0,0-.83-.29,1.4,1.4,0,0,0-1.4,1.47l.84,14.84a5.72,5.72,0,0,1-5.39,6l-49.6,2.78h-.33a5.71,5.71,0,0,1-5.7-5.4l-2.78-49.59a5.72,5.72,0,0,1,5.39-6l15.12-.84a1.39,1.39,0,0,0,.88-2.39,9.1,9.1,0,0,1-2.92-6.13c-.31-5.45,4.47-10.15,10.68-10.5l.73,0m0-.69h0c-.25,0-.51,0-.77,0a12.72,12.72,0,0,0-8.23,3.53,9.71,9.71,0,0,0,0,14.3.67.67,0,0,1,.17.73.68.68,0,0,1-.61.45l-15.12.85a6.43,6.43,0,0,0-6.05,6.77L137,183.38a6.41,6.41,0,0,0,6.4,6.06h.37l49.59-2.78a6.42,6.42,0,0,0,6.05-6.77L198.53,165a.69.69,0,0,1,.18-.51.74.74,0,0,1,.52-.22.61.61,0,0,1,.4.14,9.8,9.8,0,0,0,6.08,2.16l.53,0a9.92,9.92,0,0,0,7.3-3.94,12.78,12.78,0,0,0,2.6-8.58c-.36-6.37-5.06-11.36-10.7-11.36h-.54a9.76,9.76,0,0,0-6.32,2.87.69.69,0,0,1-.47.2.68.68,0,0,1-.69-.66l-.84-14.84a6.41,6.41,0,0,0-6.4-6.06h-.36l-15.13.85h0a.7.7,0,0,1-.66-.4.65.65,0,0,1,.1-.73,9.88,9.88,0,0,0,2.38-6.91c-.31-5.56-5.48-9.91-11.76-9.91Z"/><g class="cls-31"><g class="cls-32"><path class="cls-15" d="M108.46,168.63a1.34,1.34,0,1,1,1-1.62A1.35,1.35,0,0,1,108.46,168.63Z"/><path class="cls-15" d="M120.7,165.58a1.34,1.34,0,1,1,1-1.63A1.35,1.35,0,0,1,120.7,165.58Z"/><path class="cls-15" d="M133,162.52a1.34,1.34,0,1,1,1-1.62A1.34,1.34,0,0,1,133,162.52Z"/><path class="cls-15" d="M145.2,159.46a1.34,1.34,0,1,1,1-1.62A1.34,1.34,0,0,1,145.2,159.46Z"/><path class="cls-15" d="M157.45,156.41a1.34,1.34,0,1,1,1-1.62A1.33,1.33,0,0,1,157.45,156.41Z"/><path class="cls-15" d="M169.7,153.35a1.34,1.34,0,1,1,1-1.62A1.34,1.34,0,0,1,169.7,153.35Z"/><path class="cls-15" d="M182,150.3a1.34,1.34,0,1,1,1-1.63A1.35,1.35,0,0,1,182,150.3Z"/><path class="cls-15" d="M111,178.69a1.34,1.34,0,1,1,1-1.63A1.34,1.34,0,0,1,111,178.69Z"/><path class="cls-15" d="M123.21,175.63a1.34,1.34,0,1,1,1-1.62A1.34,1.34,0,0,1,123.21,175.63Z"/><path class="cls-15" d="M135.46,172.58a1.34,1.34,0,1,1,1-1.63A1.34,1.34,0,0,1,135.46,172.58Z"/><path class="cls-15" d="M147.71,169.52a1.34,1.34,0,1,1,1-1.62A1.34,1.34,0,0,1,147.71,169.52Z"/><path class="cls-15" d="M160,166.46a1.34,1.34,0,1,1,1-1.62A1.34,1.34,0,0,1,160,166.46Z"/><path class="cls-15" d="M172.21,163.41a1.34,1.34,0,1,1,1-1.62A1.35,1.35,0,0,1,172.21,163.41Z"/><path class="cls-15" d="M184.45,160.35a1.33,1.33,0,1,1,1-1.62A1.33,1.33,0,0,1,184.45,160.35Z"/><path class="cls-15" d="M113.47,188.74a1.34,1.34,0,1,1,1-1.62A1.33,1.33,0,0,1,113.47,188.74Z"/><path class="cls-15" d="M125.72,185.69a1.34,1.34,0,1,1,1-1.63A1.35,1.35,0,0,1,125.72,185.69Z"/><path class="cls-15" d="M138,182.63a1.34,1.34,0,1,1,1-1.62A1.34,1.34,0,0,1,138,182.63Z"/><path class="cls-15" d="M150.22,179.58a1.34,1.34,0,1,1-.65-2.6,1.34,1.34,0,0,1,.65,2.6Z"/><path class="cls-15" d="M162.47,176.52a1.34,1.34,0,1,1,1-1.62A1.35,1.35,0,0,1,162.47,176.52Z"/><path class="cls-15" d="M174.71,173.46a1.33,1.33,0,1,1,1-1.62A1.33,1.33,0,0,1,174.71,173.46Z"/><circle class="cls-15" cx="186.64" cy="169.11" r="1.34"/><path class="cls-15" d="M116,198.8a1.34,1.34,0,1,1,1-1.62A1.34,1.34,0,0,1,116,198.8Z"/><path class="cls-15" d="M128.23,195.74a1.34,1.34,0,1,1,1-1.62A1.33,1.33,0,0,1,128.23,195.74Z"/><path class="cls-15" d="M140.48,192.69a1.34,1.34,0,1,1,1-1.63A1.35,1.35,0,0,1,140.48,192.69Z"/><path class="cls-15" d="M152.73,189.63a1.34,1.34,0,1,1,1-1.62A1.35,1.35,0,0,1,152.73,189.63Z"/><path class="cls-15" d="M165,186.58a1.34,1.34,0,1,1,1-1.63A1.34,1.34,0,0,1,165,186.58Z"/><path class="cls-15" d="M177.22,183.52a1.34,1.34,0,1,1,1-1.62A1.34,1.34,0,0,1,177.22,183.52Z"/><circle class="cls-15" cx="189.15" cy="179.17" r="1.34"/><path class="cls-15" d="M155.23,199.69a1.34,1.34,0,1,1,1-1.62A1.34,1.34,0,0,1,155.23,199.69Z"/><path class="cls-15" d="M167.48,196.63a1.34,1.34,0,1,1,1-1.62A1.34,1.34,0,0,1,167.48,196.63Z"/><circle class="cls-15" cx="179.41" cy="192.28" r="1.34"/><path class="cls-15" d="M192,190.52a1.34,1.34,0,1,1,1-1.62A1.34,1.34,0,0,1,192,190.52Z"/><path class="cls-15" d="M194.49,200.58a1.34,1.34,0,1,1,1-1.63A1.33,1.33,0,0,1,194.49,200.58Z"/></g></g><path class="cls-8" d="M76.28,118.12s-.47,20.33-1.71,27.3c-1.39,7.81-13,23.58-13,23.58l2.69,2.67,4,1.9s10.17-9.73,15.91-21.9c5-10.56,5.2-32.48,5.2-32.48"/><path class="cls-16" d="M73.38,180.09a2,2,0,0,0,0-1.34l-4.15-6.1c-4-.74-7.43-4.31-7.43-4.31l-3.47,3.84a.31.31,0,0,0,.1.42l14,8.8C72.69,181.58,73.38,180.1,73.38,180.09Z"/><path class="cls-33" d="M70.32,173.68a7.92,7.92,0,0,0-1.67.84"/><path class="cls-33" d="M70.77,174.57a7,7,0,0,0-1.4.73"/><path class="cls-33" d="M71.18,175.27a10.57,10.57,0,0,0-1.3.66"/><line class="cls-33" x1="58.85" y1="171.56" x2="73.16" y2="180.57"/><path class="cls-33" d="M60.58,169.7s3.31,2.2,2.31,4.41"/><path class="cls-33" d="M72.54,177.5a13.5,13.5,0,0,0-2.33,1.21"/><path class="cls-8" d="M91.22,126.56s.77,11.88,1.32,21,1.6,29.84,1.6,29.84l3.93.93,4.37-.73s1.13-17.92,1.13-29.78c0-12.28-.47-29.67-.47-29.67"/><path class="cls-16" d="M110.17,180.77a2,2,0,0,0-.71-1.13l-6.78-2.92c-3.74,1.52-8.58.36-8.58.36l-.86,5.1a.31.31,0,0,0,.31.31l16.51-.09C110.39,182.4,110.18,180.79,110.17,180.77Z"/><path class="cls-33" d="M104.15,177a8,8,0,0,0-1,1.61"/><path class="cls-33" d="M105,177.52a7.58,7.58,0,0,0-.79,1.37"/><path class="cls-33" d="M105.72,177.9a9.78,9.78,0,0,0-.74,1.25"/><line class="cls-33" x1="93.33" y1="181.39" x2="110.24" y2="181.3"/><path class="cls-33" d="M93.8,178.89s4,.08,4.31,2.47"/><path class="cls-33" d="M108.07,179a12.52,12.52,0,0,0-1.31,2.28"/><path class="cls-34" d="M90.92,59.34a5.1,5.1,0,0,0-5.1,2.43c-.29.46-.53,1-.86,1.42-2.13,2.81-10.69,1.94-9,7.48a8.89,8.89,0,0,1,.62,1.89A6.93,6.93,0,0,1,76,75a5.16,5.16,0,0,0,3.73,6.21c1.18.25,2.51.08,3.53.73s1.39,1.75,2.07,2.65c1.85,2.48,5.53,3,8.43,1.91a4.41,4.41,0,0,0,2.67-2.13,14.25,14.25,0,0,1,.66-1.87c.67-1.1,2.16-1.28,3.27-1.92a4,4,0,0,0,1.82-4.79c-.75-1.77-2.33-3.4-2.69-5.3-.2-1.06.09-2.17-.13-3.23a3.46,3.46,0,0,0-1.23-2c-.43-.34-.94-.58-1.37-.93-.89-.73-1-2-1.93-2.8s-2.15-1-3.14-1.64"/><path class="cls-8" d="M94.82,72.39c5.41-1.51,13.34-1.2,19.68-7.46a57.51,57.51,0,0,0,9-11l4.88,3.85S122,70,116.3,74.17a35.78,35.78,0,0,1-16.92,7"/><path class="cls-8" d="M122.21,55.94c1.33-2,4.56-7.89,5-7.83s-.58,2.11-.2,2.1,2.18-3.07,2.61-2.88c.59.25-1.43,3.27-1.43,3.27s.53-.54,1-.18-.07,1.17-.07,1.17.61-.6.93-.33-.11,1.36-.11,1.36a.77.77,0,0,1,.76,0c.31.24-1.27,3.88-4.22,8.61"/><path class="cls-12" d="M126.58,51a12.15,12.15,0,0,0,0,1.79,3,3,0,0,1-.21,1.77"/><path class="cls-35" d="M128,50.84c-.12.34-.24.69-.35,1a3.18,3.18,0,0,0-.16,1c0,.13.13.1.29,0a2,2,0,0,0,.39-.33,6.73,6.73,0,0,0,.68-.82.16.16,0,0,1,.22,0,.15.15,0,0,1,0,.2,10.52,10.52,0,0,0-.45,1,2.29,2.29,0,0,0-.24.94s0,0,0,0a.28.28,0,0,0,.17,0,1.47,1.47,0,0,0,.38-.3,4.8,4.8,0,0,0,.62-.84.16.16,0,0,1,.21-.05.16.16,0,0,1,.06.19,7.56,7.56,0,0,0-.69,1.81c0,.17,0,.25.13.23a.93.93,0,0,0,.38-.24,5.74,5.74,0,0,0,.65-.74,4.15,4.15,0,0,1-.57.82,1.07,1.07,0,0,1-.42.32.27.27,0,0,1-.31-.11.52.52,0,0,1-.06-.29,4.57,4.57,0,0,1,.24-1,9.09,9.09,0,0,1,.38-.93l.26.14a4.86,4.86,0,0,1-.65.91,1.73,1.73,0,0,1-.46.38.54.54,0,0,1-.36.07.37.37,0,0,1-.22-.09.81.81,0,0,1-.11-.2,2.28,2.28,0,0,1,.27-1.15c.15-.34.31-.66.49-1l.26.16a5.37,5.37,0,0,1-.74.84,2,2,0,0,1-.47.34.58.58,0,0,1-.33.08c-.14,0-.26-.16-.27-.26a2.52,2.52,0,0,1,.25-1.11C127.71,51.5,127.86,51.16,128,50.84Z"/><path class="cls-34" d="M89.66,59.77c-.25-.14-.59-.1-.81-.29a1.19,1.19,0,0,1-.21-1.3,1.65,1.65,0,0,1,1.78-.88c1.59.24,1.35,1.77.38,2.34"/><path class="cls-36" d="M80.87,98.47s-5.71,6.1-6.8,14.39-1.1,21.8-1.1,21.8,16.45,3,31.41-.32c-.57-6.9,0-26.21-5.22-35.87"/><path class="cls-37" d="M76,135.11s-.52-20.84,1.9-27.87A43.56,43.56,0,0,1,84,96.38"/><path class="cls-38" d="M104.62,70.86l1.94,9.29a27.66,27.66,0,0,1-7.75,1.77c-2.13,0-5.35-8.32-4.13-9.91C98.23,71,104.62,70.86,104.62,70.86Z"/><path class="cls-38" d="M80.47,81.29s-.25,10.89.4,17.18a47.41,47.41,0,0,0,18.29,0l.63-9.89c4.59-4.71.57-10.81.57-10.81L94.68,72,89,71.69Z"/><path class="cls-38" d="M89,71.69a13.51,13.51,0,0,0-9.94,3.22A16.42,16.42,0,0,0,75.46,80l7.87,5.18L88,80"/><path class="cls-33" d="M101.82,81.52c-.39-1.45-1.47-3.75-1.47-5.15"/><line class="cls-33" x1="103.13" y1="70.91" x2="105.36" y2="80.58"/><line class="cls-33" x1="76.14" y1="78.7" x2="81.85" y2="82.25"/><path class="cls-8" d="M95.1,61.58s2.09,5.43.52,7.08c-.81.86-3.63.38-4.7-.43-.79-.6-1.83-4.21-1.4-4.89C91.14,60.74,95.1,61.58,95.1,61.58Z"/><path class="cls-8" d="M89.21,66.36,89,71.69c.42,1.35,5,2.63,5.68.32l-.45-4Z"/><path class="cls-34" d="M86.81,65.75a4.48,4.48,0,0,1-.23-1.59,6.21,6.21,0,0,1,.31-2,4.46,4.46,0,0,1,2.28-2.51,5.26,5.26,0,0,1,4.68,0,3,3,0,0,1,2.32.72,2.32,2.32,0,0,1,.71,2.27l-4.64-.53a4.37,4.37,0,0,1-1.63,2.07c-.71.49-1.5,1.1-1.2,2.1.12.42-.33.49-.33,1.3a4,4,0,0,1-2.25-1.76Z"/><path class="cls-8" d="M89.92,65.49c-.5-.76-1-.69-1.24-.32s.18,1.63.47,1.84c.59.43,1.09.44,1.19-.06"/><path class="cls-12" d="M94.35,69.27a5.63,5.63,0,0,1-3.43-1"/><path class="cls-14" d="M94,64.33s1.33,1.15,1.3,1.52-.86.51-.86.51"/><path class="cls-15" d="M95.37,66.67l-2.25.62a1.49,1.49,0,0,0,1.8.7C95.78,67.69,95.37,66.67,95.37,66.67Z"/><path class="cls-16" d="M94.89,63.91s0,.05,0,.07l0,.08a1.34,1.34,0,0,0,.07.18.12.12,0,0,0,0,.05l.06,0h.12s0,0,0,0a.12.12,0,0,0,0-.05.22.22,0,0,0,0-.14l0-.11,0-.07,0-.07a.16.16,0,0,1,0-.07.23.23,0,0,0-.1-.07.11.11,0,0,0-.1,0,.12.12,0,0,0-.08.06.19.19,0,0,0,0,.13Z"/><path class="cls-17" d="M94.37,63.37a.6.6,0,0,1,.84-.22"/><path class="cls-16" d="M92.37,64.86s0,0,0,.08l0,.07a.88.88,0,0,0,0,.15.09.09,0,0,0,0,.06.12.12,0,0,0,.05,0,.23.23,0,0,0,.14,0,.2.2,0,0,0,.11-.09.22.22,0,0,0,0-.14,1.42,1.42,0,0,0-.08-.18l0-.07,0-.07a.16.16,0,0,0-.1-.08.16.16,0,0,0-.1,0,.18.18,0,0,0-.08.07l0,0v.09Z"/><path class="cls-17" d="M92.65,63.86a1.12,1.12,0,0,0-1.08.62"/><path class="cls-8" d="M75.46,80c-2.45,5-4,12.16,1.2,14.36,5.4,2.29,19.54-15,19.54-15l-4.36-3.76L80.15,83.08"/><line class="cls-12" x1="80.15" y1="83.08" x2="76.66" y2="85.8"/><path class="cls-36" d="M96.23,77h0a1.3,1.3,0,0,1-1-1.51l1-5,2.55.48-.94,5A1.3,1.3,0,0,1,96.23,77Z"/><path class="cls-39" d="M99.07,72l-2-.5a2.72,2.72,0,0,1-2-3.28h0a2.72,2.72,0,0,1,3.28-2l2.06.5a.24.24,0,0,1,.17.28l-1.18,4.83A.22.22,0,0,1,99.07,72Z"/><path class="cls-40" d="M100.62,69.62c-.36,1.46-1,2.54-1.54,2.42s-.61-1.4-.25-2.85,1-2.55,1.54-2.43S101,68.16,100.62,69.62Z"/><path class="cls-36" d="M105.47,76.61a62.15,62.15,0,0,0-6-4.57c-.69-.57-.46-1.91-.27-2.64.5-1.89,1.16-2.13,1.16-2.13,3,.21,7.77-1.24,7.77-1.24"/><path class="cls-40" d="M105.71,70.85c-.83,3.29-.74,6.15.21,6.39s2.37-2.24,3.2-5.53.74-6.16-.2-6.39S106.54,67.55,105.71,70.85Z"/><path class="cls-39" d="M106.27,71c-.7,2.78-.7,5.18,0,5.36s1.86-1.93,2.56-4.71.69-5.19,0-5.37S107,68.21,106.27,71Z"/><path class="cls-36" d="M107.51,72.59a3.51,3.51,0,0,0-1.57,0c.09-.49.19-1,.33-1.55s.29-1,.45-1.53a3.42,3.42,0,0,0,1.4.72Z"/><path class="cls-34" d="M107.49,71.31c-.17.66-.16,1.24,0,1.29s.46-.46.63-1.13.16-1.25,0-1.29S107.66,70.64,107.49,71.31Z"/><path class="cls-8" d="M89.72,76.92A57.86,57.86,0,0,1,95,73.74a4.5,4.5,0,0,1,3.36.07,1.85,1.85,0,0,1,.81.57,1.69,1.69,0,0,1,.33,1.14.24.24,0,0,1-.07.2c-.15.1-.28-.12-.38-.27a1.14,1.14,0,0,0-1-.54c.23,0,.32.23.42.43a.36.36,0,0,1-.24.52.5.5,0,0,1,.12.94.34.34,0,0,1,.19.37.91.91,0,0,1-.2.39,9.27,9.27,0,0,1-1.4,1.4c-1.56,1.35-4.81,5-4.81,5"/><path class="cls-8" d="M107.51,180l-13.18-1-4.33.45.09,16.39a.75.75,0,0,0,.75.74h0a.75.75,0,0,0,.7-.48l3.36-7.31,13.74,1.65"/><path class="cls-38" d="M90.27,197.36a2.31,2.31,0,0,0,1.29-.81l3.34-7.75c-1.73-4.27-.41-9.8-.41-9.8l-5.83-.43a.35.35,0,0,0-.35.36l.1,18.3C88.41,197.61,90.25,197.37,90.27,197.36Z"/><path class="cls-33" d="M94.57,190.48a9,9,0,0,0-1.84-1.09"/><path class="cls-33" d="M94,191.45a7.41,7.41,0,0,0-1.56-.89"/><path class="cls-33" d="M93.56,192.28a10.29,10.29,0,0,0-1.43-.84"/><line class="cls-33" x1="89.57" y1="178.67" x2="89.67" y2="197.44"/><path class="cls-33" d="M92.36,178.84s0,4.35-2.77,4.74"/><path class="cls-33" d="M92.25,195a14.91,14.91,0,0,0-2.6-1.5"/><path class="cls-41" d="M130.53,153c.19.4,2.65,17.8,4.4,29.93,1.1,7.59,1.24,12.38-9.82,11.47-15.22-1.24-25.82-1.93-25.82-1.93l-.36-13.65,20.92,1-2.72-13.51s-5.06-6.74-1.34-14.46"/><line class="cls-42" x1="101.19" y1="178.91" x2="101.74" y2="192.45"/><path class="cls-42" d="M126.86,162l3.68,21.37a1,1,0,0,1-1,1.06L99,182.53"/><path class="cls-8" d="M146.3,178.25l-2.78,13.18-.12,4.32,16.95-.08a.76.76,0,0,0,.75-.76h0a.75.75,0,0,0-.48-.69l-7.32-3.37,3.46-13.73"/><path class="cls-38" d="M161.84,195.48a2.31,2.31,0,0,0-.81-1.29l-7.75-3.34c-4.28,1.74-9.81.41-9.81.41l-1,5.84a.35.35,0,0,0,.35.35l18.87-.1C162.09,197.35,161.85,195.5,161.84,195.48Z"/><path class="cls-33" d="M155,191.19a9.12,9.12,0,0,0-1.09,1.83"/><path class="cls-33" d="M155.93,191.77a8.26,8.26,0,0,0-.9,1.56"/><path class="cls-33" d="M156.76,192.2a11.46,11.46,0,0,0-.85,1.43"/><line class="cls-33" x1="142.59" y1="196.19" x2="161.92" y2="196.09"/><path class="cls-33" d="M143.12,193.33s4.55.09,4.94,2.83"/><path class="cls-33" d="M159.44,193.51a14.91,14.91,0,0,0-1.5,2.6"/><path class="cls-41" d="M137.58,149l1,3.79a1.23,1.23,0,0,0,1.19.93h13.12c3.21,0,6.6.08,8.44,2.86,1.5,2.29,1,6.09-.29,10.45-1.07,3.75-4.87,20.82-4.87,20.82h-13.5l3.81-20.38H130.87s-10.09.08-8.69-10"/><line class="cls-42" x1="142.99" y1="185.75" x2="156.51" y2="185.75"/><path class="cls-42" d="M132.71,167.48h-1.84s-9.66,0-9.78-10"/><path class="cls-42" d="M131.64,152.26s.25,11.31,9.76,11.31h7.16a1.39,1.39,0,0,1,1.37,1.68l-4.72,22.58"/><path class="cls-42" d="M132.57,157a4.68,4.68,0,0,0,3.93-4.69"/><path class="cls-42" d="M124.33,158.55a16.29,16.29,0,0,0,3.93-.54"/><path class="cls-42" d="M114.45,158.55s1.9.06,3.34,0"/><path class="cls-8" d="M126,111.3s4.67-14.5,13.37-26.16l-6-3.63c-9.41,10.21-15.6,27.28-15.6,27.28"/><path class="cls-34" d="M114.14,135.91S112.2,118,119.56,103l8.7,2.84L126,117.34"/><line class="cls-43" x1="118.91" y1="104.72" x2="127.48" y2="107.69"/><path class="cls-8" d="M138.09,86.81c1.4-2.15,6.49-7.69,6.24-8.15s-2.06,1.46-2.19,1,2.46-3.57,2.09-4-3,2.84-3,2.84,2.53-3.83,2-4.17c-.4-.25-2.47,2.59-3.39,3.57.86-1.19,2-3.29,1.62-3.54s-1.87,1.66-3.06,3.06c.66-.94,1.77-2.72,1.39-3s-5.21,4.88-9,10.09"/><path class="cls-8" d="M131.72,131.37s8.9,3.41,15.43,3.84c8.55.55,18.5-2.64,18.5-2.64s1.32-7-2.11-6.69a65,65,0,0,1-17,.64c-3.43-.41-10.71-4.32-10.71-4.32"/><path class="cls-8" d="M161.6,126.25c2.54-.33,9.74-2.52,10.05-2.1s-2.21,1.23-1.89,1.53,4.29-.67,4.49-.17c.26.69-3.85,1.46-3.85,1.46s4.55-.62,4.61,0c0,.47-3.41,1.1-4.69,1.51,1.45-.26,3.85-.41,3.89.07s-2.31,1-4.08,1.44c1.13-.19,3.21-.42,3.27,0s-5.56,2-10.89,3.29"/><path class="cls-8" d="M122.52,114.58l-1.22,6.11s3.43,3.47,7,.24l0-4.09Z"/><path class="cls-8" d="M129,108.82s2.92,5.84,1.11,7.78a2.56,2.56,0,0,1-3.56.45c-.92-.7-4.45-4.89-4-5.68C124.46,108.33,129,108.82,129,108.82Z"/><path class="cls-8" d="M130.16,112.11s1.08,1.08,1.08,1.79c0,.31-1.08.36-1.08.36"/><path class="cls-15" d="M130.11,114.86l-1.9-.28C128.12,115.3,129.54,117.1,130.11,114.86Z"/><path class="cls-16" d="M128.73,112a.22.22,0,0,0,0,.14.77.77,0,0,0,0,.15l0,.1,0,.06a.1.1,0,0,0,0,0,.16.16,0,0,0,.09.07.16.16,0,0,0,.18-.1.17.17,0,0,0,0-.1v0a.47.47,0,0,0-.05-.1l0,0a.67.67,0,0,1-.05-.19v0a.22.22,0,0,0,0-.08s0,0,0,0a.13.13,0,0,0-.13-.1.13.13,0,0,0-.13.1Z"/><path class="cls-17" d="M127.81,111.66a1.24,1.24,0,0,1,.91-.53.62.62,0,0,1,.44.11"/><path class="cls-9" d="M121.91,109.26c.31-2.08,2.42-2.51,6.35-1.92.53.07,1.5-.2,1.7.29a2.29,2.29,0,0,1-.45,2.41c-.59.44-1.41.21-2.07.44-1.06.38-.53,1.4-1.09,2.15-.94,1.24-.32,3.06-1.86,4a4.24,4.24,0,0,1-3,.2.75.75,0,0,1-.35-.13c-.34-.27-.2-1.22-.31-1.63a12.89,12.89,0,0,1-.39-4C120.53,109.85,121.48,109.14,121.91,109.26Z"/><path class="cls-8" d="M126.39,112.92c-.21-1.22-1.12-.8-1.45-.37s.22,1.89.56,2.14c.69.5,1.28.5,1.39-.08"/><path class="cls-12" d="M128.21,117.67a7.46,7.46,0,0,1-2.15-1.07"/><path class="cls-34" d="M121.27,118.82s-5.31,2.25-7,10.64c-.72,3.73.68,23.8.68,23.79,11.49,2.24,23.87-1.07,23.87-1.07s-1.42-13.08-2.07-18c-1.49-11.37-9.32-15-9.32-15Z"/><path class="cls-34" d="M127.48,119.19a32.14,32.14,0,0,1,7.26,2c2.84,1.36,9.23,4.46,9.23,4.46l-3.28,9.09-11.6-3.67"/><line class="cls-43" x1="136.68" y1="133.35" x2="130.17" y2="131.44"/><line class="cls-43" x1="141.98" y1="124.72" x2="138.87" y2="134.05"/><path class="cls-43" d="M114.89,151.83a76,76,0,0,0,23.76-.87"/><path class="cls-8" d="M293.28,177.06l2.78,13.18-.44,4.33-16.39-.09a.75.75,0,0,1-.75-.75h0a.76.76,0,0,1,.49-.7l7.31-3.36-3.45-13.74"/><path class="cls-10" d="M277.74,194.3a2.31,2.31,0,0,1,.81-1.29l7.75-3.34c4.28,1.73,9.81.41,9.81.41l.42,5.83a.35.35,0,0,1-.35.35l-18.31-.1C277.49,196.16,277.73,194.32,277.74,194.3Z"/><path class="cls-37" d="M284.63,190a9.49,9.49,0,0,1,1.09,1.84"/><path class="cls-37" d="M283.65,190.59a8,8,0,0,1,.9,1.56"/><path class="cls-37" d="M282.83,191a12.75,12.75,0,0,1,.84,1.43"/><line class="cls-37" x1="296.43" y1="195" x2="277.66" y2="194.9"/><path class="cls-37" d="M296.26,192.21s-4.35,0-4.74,2.77"/><path class="cls-37" d="M280.14,192.32a14.91,14.91,0,0,1,1.5,2.6"/><path class="cls-38" d="M287.41,129.2s-10.49,23.45-9.94,31.76c.52,7.73,6.38,27.32,6.38,27.32L296.42,186s-6-24.19-5.69-26.69,8-19.72,8-19.72,3-4.06,2-11"/><path class="cls-33" d="M294.32,186.36s-5.86-24.42-5.55-26.92S296.35,140,296.35,140"/><line class="cls-33" x1="295.86" y1="183.66" x2="283.25" y2="186.21"/><path class="cls-8" d="M311.46,170.91l5.86,12.26,1.43,4.11-14.88,6.87a.75.75,0,0,1-1-.37h0A.73.73,0,0,1,303,193l5.2-6.15-6.71-12.48"/><path class="cls-10" d="M302.45,194.62a2.23,2.23,0,0,1,.19-1.52l5.6-6.31c4.6-.24,9.05-3.79,9.05-3.79l2.86,5.11a.35.35,0,0,1-.17.46l-16.62,7.68C303,196.41,302.45,194.63,302.45,194.62Z"/><path class="cls-37" d="M306.86,187.81a8.85,8.85,0,0,1,1.77,1.19"/><path class="cls-37" d="M306.23,188.75a7.9,7.9,0,0,1,1.47,1"/><path class="cls-37" d="M305.66,189.48a12.78,12.78,0,0,1,1.37.94"/><line class="cls-37" x1="319.67" y1="187.33" x2="302.63" y2="195.2"/><path class="cls-37" d="M318.34,184.87s-3.93,1.87-3.12,4.51"/><path class="cls-37" d="M303.78,191.81a14.94,14.94,0,0,1,2.47,1.72"/><path class="cls-38" d="M295.7,129.91s-4,22.15-2.11,30.25c2.11,9.07,11.2,24.44,11.2,24.44L316.12,179s-9.78-18.68-9.76-22.71c0-2.52,2.24-18.06,2.24-18.06s2.24-4.51,0-11.21"/><path class="cls-33" d="M313.51,180.27s-9.77-18.26-9.76-23.46c0-2.52,1.55-14.28,2.24-18.06s2-8.16.05-11.21"/><path class="cls-33" d="M293.1,152.64c.6-6.22,1.3-14.58,2.25-22"/><path class="cls-33" d="M302,130.62s.76,1.91,4.92,3"/><path class="cls-33" d="M293.53,131.08s-.62,4.56-.25,5.16c.16.28,1.48.53,1.48.53"/><path class="cls-33" d="M285.83,132.87a5.68,5.68,0,0,0,3.95-1.55"/><line class="cls-33" x1="315.11" y1="177" x2="303.62" y2="182.56"/><path class="cls-10" d="M290.9,96s-4.77,1.37-5.45,10.5c-.65,3.74.91,24.57.91,24.55,11.54,2,23.84-1.58,23.84-1.58s-2.16-13.05-3-18c-2.06-12.3-10.57-14.92-10.57-14.92Z"/><path class="cls-8" d="M292.9,96a63.72,63.72,0,0,0-7.18-9.81C280,79.86,271.34,74.5,271.34,74.5s-5.86,4.11-3.17,6.27c3.55,2.39,8.1,7.16,11.56,11.47,2.16,2.69,6.52,10.94,6.52,10.94"/><path class="cls-8" d="M269.82,81.85c-2.06-1.53-8.73-5-8.66-5.52s2.44.67,2.42.23-3.54-2.51-3.33-3c.29-.68,3.78,1.64,3.78,1.64s-3.69-2.73-3.28-3.25c.3-.36,3.21,1.59,4.42,2.2-1.22-.82-3.05-2.4-2.73-2.77s2.32.92,3.91,1.82c-.94-.65-2.59-1.94-2.31-2.3s5.4,2.23,10.24,5.57"/><path class="cls-8" d="M301.64,111.26s-4.28,8.51-8.82,13.22c-5.95,6.17-15.45,10.52-15.45,10.52s-5.7-4.32-2.95-6.38a65,65,0,0,0,13-11c2.25-2.62,5.85-10.79,5.85-10.79"/><path class="cls-8" d="M276.11,127.6c-2.11,1.46-8.9,4.69-8.84,5.21s2.45-.58,2.42-.14-3.62,2.39-3.43,2.89c.27.69,3.83-1.51,3.83-1.51s-3.78,2.6-3.38,3.13c.28.38,3.26-1.47,4.49-2-1.26.78-3.13,2.29-2.83,2.67s2.35-.83,4-1.68c-1,.62-2.66,1.85-2.4,2.22s5.47-2.24,10.27-4.9"/><path class="cls-10" d="M293.1,104.66a99.83,99.83,0,0,1-4.34,10.64l8.55,4.5A35.31,35.31,0,0,0,303.38,108"/><path class="cls-37" d="M297.31,119.8s4.78-6.68,5.61-10.29"/><path class="cls-37" d="M288.76,115.3s3.18-6.16,3.85-9.14"/><path class="cls-10" d="M285.29,109.17c-.1-3.34-1.72-10.34-6.52-16.73l7.56-6s6.64,5.32,8.53,10"/><path class="cls-8" d="M289.41,86.31s-1.93,5.35-.21,7.09a4.31,4.31,0,0,0,4.64.16c.83-.66,2.07-4.77,1.59-5.49C293.63,85.31,289.41,86.31,289.41,86.31Z"/><path class="cls-14" d="M290.48,88.83s-1,1.27-1,1.65.94.54.94.54"/><path class="cls-15" d="M289.39,91.37l2.42.62a1.58,1.58,0,0,1-1.91.78C289,92.47,289.39,91.37,289.39,91.37Z"/><path class="cls-16" d="M289.53,88.27s0,0,0,.08l0,.07a1.54,1.54,0,0,0-.08.19.22.22,0,0,0,0,.08.25.25,0,0,0,0,.07l0,0,.06,0a.17.17,0,0,0,.12,0,.15.15,0,0,0,.11-.08.61.61,0,0,0,.05-.12l0-.08,0-.08s0-.06,0-.08a.16.16,0,0,0-.09-.19.16.16,0,0,0-.2.06Z"/><path class="cls-17" d="M290.38,87.8a.65.65,0,0,0-.91-.21"/><path class="cls-16" d="M292.25,89.24a1.17,1.17,0,0,0-.05.11l0,.07a1.66,1.66,0,0,0-.06.16.17.17,0,0,0,0,.14.17.17,0,0,0,.11.09.18.18,0,0,0,.14,0l0,0a.2.2,0,0,0,0-.08,1,1,0,0,0,.05-.16l0-.08s0,0,0-.08a.23.23,0,0,0,0-.12.14.14,0,0,0-.08-.07.17.17,0,0,0-.1,0,.16.16,0,0,0-.1.08Z"/><path class="cls-17" d="M292.24,88.29a1.23,1.23,0,0,1,1.17.64"/><path class="cls-8" d="M295.6,91.2l1,5.36s-4,3-6.28-.19l-.07-3.51Z"/><path class="cls-11" d="M297.53,90.28c0-.19.1-.38.16-.57.17-.45.42-.85.59-1.3a2.3,2.3,0,0,0-.69-2.59,4,4,0,0,1-.4-.32,3.43,3.43,0,0,1-.51-1,1.37,1.37,0,0,0-.58-.71c-.64-.34-1.48.12-2.11-.22a3.28,3.28,0,0,1-.38-.27,2.9,2.9,0,0,0-2.92-.17,3,3,0,0,0-1,.65c-.42.32-1,.3-1.43.62a1.9,1.9,0,0,0-.56,1.51,1.48,1.48,0,0,0,.09.6,1.18,1.18,0,0,0,.57.51,3.82,3.82,0,0,0,1.81.11c.59-.05,1.27-.46,1.84-.25s.71.9,1.4,1c.27,0,.6,0,.76.19s.09.65.23.94a6.75,6.75,0,0,0,.56.76c.34.49.84.83.66,1.48-.12.45-.62,1.17-.41,1.64.13.32.82.31,1.34-.08a3,3,0,0,0,.83-1.81Z"/><path class="cls-8" d="M295.06,90.39c.51-.83,1-.77,1.32-.38s-.16,1.75-.46,2c-.62.47-1.17.5-1.28,0"/><path class="cls-12" d="M290.51,94.2a7.34,7.34,0,0,0,3.53-.85"/><path class="cls-37" d="M285.2,107.94s.13-5.23-.47-6.82"/><path class="cls-37" d="M289.86,97.32a3.89,3.89,0,0,0,3.52,1.6,5,5,0,0,0,4.11-2"/><path class="cls-8" d="M239.26,69.65c-.28,2.47-2.12,8.2-1.76,8.43s1.22-2,1.48-1.73-.71,3.58-.29,3.72c.58.2,1.34-3.1,1.34-3.1s-.62,3.63-.07,3.66c.39,0,1.06-2.6,1.37-3.61-.19,1.14-.47,2.94-.06,3s.86-1.53,1.21-2.93c-.13.89-.55,2.66-.17,2.69s1.74-4,2.61-9"/><path class="cls-8" d="M246.48,44.53c1.78,13.06-2.11,28.75-2.11,28.75L239,72.12s2-14.16-.26-26.61"/><path class="cls-18" d="M235.12,32.9a12.19,12.19,0,0,1,7.56,2.67c3.59,2.82,4.49,9.34,4.49,9.34l-8.5,1.7s-.45-5.49-.52-7.38"/><path class="cls-19" d="M238.36,46.61a24.38,24.38,0,0,0-1-4.79"/><rect class="cls-44" x="293.08" y="30.25" width="10.72" height="10.72" transform="translate(254.44 -261.71) rotate(74.78)"/><rect class="cls-44" x="57.95" y="149.74" width="5.27" height="5.27" transform="translate(219.34 111.31) rotate(97.18)"/><circle class="cls-45" cx="322.11" cy="158.95" r="4.24" transform="translate(118.81 455.08) rotate(-81.79)"/><path class="cls-44" d="M155.61,13.92a2.12,2.12,0,1,1-2.12-2.12A2.12,2.12,0,0,1,155.61,13.92Z"/><path class="cls-44" d="M331.33,107.32a2.13,2.13,0,1,1-2.12-2.12A2.12,2.12,0,0,1,331.33,107.32Z"/><path class="cls-44" d="M333.45,151.06a2.12,2.12,0,1,1-2.12-2.12A2.12,2.12,0,0,1,333.45,151.06Z"/><path class="cls-45" d="M55.55,135.68a2.12,2.12,0,1,1-2.12-2.12A2.12,2.12,0,0,1,55.55,135.68Z"/><path class="cls-44" d="M106.79,21.74l.23,1.42a1.28,1.28,0,0,0,1.28,1.07l.94,0a1.26,1.26,0,0,1,1.28,1.07l.15.92A1.26,1.26,0,0,0,112,27.27l.94,0a1.28,1.28,0,0,1,1.28,1.07l.15.93a1.26,1.26,0,0,0,1.28,1.07l1.11,0"/><path class="cls-44" d="M66.14,114.46l-.44-1.36a1.27,1.27,0,0,0-1.43-.86l-.93.16a1.28,1.28,0,0,1-1.43-.86l-.28-.89a1.28,1.28,0,0,0-1.43-.86l-.93.16a1.27,1.27,0,0,1-1.43-.86l-.29-.89a1.26,1.26,0,0,0-1.43-.86l-1.09.19"/><path class="cls-44" d="M283.5,58.29l1.42-.12a1.27,1.27,0,0,0,1.17-1.2l0-.93a1.27,1.27,0,0,1,1.17-1.2l.93-.08a1.28,1.28,0,0,0,1.16-1.2l.05-.94a1.28,1.28,0,0,1,1.16-1.2l.94-.08a1.27,1.27,0,0,0,1.16-1.2l.06-1.11"/><path class="cls-44" d="M327.46,78.9l-1.37.43a1.27,1.27,0,0,0-.86,1.43l.16.92a1.27,1.27,0,0,1-.87,1.43l-.89.28a1.28,1.28,0,0,0-.86,1.43l.16.93a1.26,1.26,0,0,1-.87,1.42l-.89.29a1.27,1.27,0,0,0-.87,1.43l.19,1.09"/><path class="cls-44" d="M335.19,140.76l1.18.79a1.27,1.27,0,0,0,1.66-.2l.62-.7a1.28,1.28,0,0,1,1.66-.21l.78.53a1.27,1.27,0,0,0,1.65-.21l.63-.7a1.27,1.27,0,0,1,1.66-.2l.78.52a1.26,1.26,0,0,0,1.65-.2l.74-.83"/><line class="cls-45" x1="322.77" y1="96.4" x2="317.87" y2="99.42"/><line class="cls-45" x1="273.29" y1="32.83" x2="268.79" y2="36.42"/><line class="cls-45" x1="173.09" y1="41.16" x2="167.48" y2="39.84"/><line class="cls-45" x1="66.86" y1="65.56" x2="62.6" y2="61.69"/></g></g></svg>