<svg id="レイヤー_1" data-name="レイヤー 1" xmlns="http://www.w3.org/2000/svg" viewBox="0 0 400 200"><defs><style>.cls-1{fill:#dde8fd;}.cls-2{fill:#ed6966;}.cls-3{fill:#1f1b62;}.cls-4{fill:#93b3f4;}.cls-5{fill:#6d89cf;}.cls-6{fill:#fc746a;}.cls-7{fill:#ab4545;}.cls-8{fill:#fff;}.cls-9{fill:#fc9290;}.cls-10{fill:#4c59d1;}.cls-11{fill:#0b0754;}.cls-12{fill:#030231;}.cls-13{fill:#9e332e;}.cls-14{fill:#e75755;}.cls-15{fill:#ea8888;}.cls-16{fill:#3662c1;}.cls-17{fill:#fa7269;}.cls-18{fill:#bed2fa;}.cls-19{fill:#a83f3f;}.cls-20{fill:#4c73c8;}.cls-21{fill:#fc9a98;}.cls-22{fill:#3a49cd;}.cls-23{fill:#060632;}.cls-24{fill:#1a165e;}</style></defs><path class="cls-1" d="M365.27,194.64l-314.48-.09s-31.54-33.86-17.31-74.68c.19-.54.38-1.09.59-1.64a78,78,0,0,1,9.6-17.74C58.14,80.25,73.73,70.1,88.94,66.82c.57-.12,1.13-.24,1.69-.34,16.79-3.07,33,2.12,46.73,11.2,10,6.66,36.78,2.23,62-29.67.4-.5.79-1,1.18-1.51,2.81-3.66,5.61-7.66,8.35-12q1.53-2.43,3.25-4.65c.82-1.05,1.66-2.07,2.54-3.05,43.75-49,162-11.73,139.17,76.62C342.34,148.21,389.09,149.84,365.27,194.64Z"/><path class="cls-2" d="M329.18,134.38l-4.94,2.52-1-3.43a10.34,10.34,0,0,0,.91-3.13,13.34,13.34,0,0,0,.11-2.82l4,2.06a9.23,9.23,0,0,0-.16.92,7,7,0,0,0,.07,2.16A3,3,0,0,0,329.18,134.38Z"/><path class="cls-2" d="M320.36,135.07s-4.57-5.9-6.79-7.74c0,0-3-7.49-3.28-8s-1.82.41-1.82.41,1.11,7.28,2.29,9.44,4.82,9.4,7.4,9.67S320.36,135.07,320.36,135.07Z"/><path class="cls-3" d="M334.14,190.66a2.61,2.61,0,0,0,1.65,1.26,2.83,2.83,0,0,1,1.72,1.05A.67.67,0,0,1,337,194h-5.79a.83.83,0,0,1-.83-.92c0-.43.09-.93.11-1.31a2.44,2.44,0,0,1,.88-1.51Z"/><path class="cls-4" d="M334.28,190.92a5.53,5.53,0,0,1-3.75.32s-4-10.23-4.23-15a5.43,5.43,0,0,1,0-.56c.09-4.52-4.1-16.31-3-18.73S333.55,158,333.55,158l.18,8.21Z"/><path class="cls-5" d="M333.73,166.21l-7.43,10a5.43,5.43,0,0,1,0-.56c.09-4.52-4.1-16.31-3-18.73S333.55,158,333.55,158Z"/><path class="cls-2" d="M329.54,135.59s6.58-5.87,7-6.68,2.27-8,2.27-8l1.57.2s-.3,8.65-1,10.33-8.42,8.85-8.42,8.85Z"/><path class="cls-3" d="M319.17,190.66a2.65,2.65,0,0,0,1.66,1.26,2.86,2.86,0,0,1,1.72,1.05A.67.67,0,0,1,322,194h-5.8a.83.83,0,0,1-.83-.92c0-.43.09-.93.11-1.31a2.44,2.44,0,0,1,.88-1.51Z"/><path class="cls-4" d="M328.22,158.19s-8.05,30.05-8.3,33c0,0-1.57.81-4.12-.61,0,0-1.48-13.47,0-17.15s-.29-14.81,3.47-17.32S328.22,158.19,328.22,158.19Z"/><path class="cls-6" d="M333.29,138.73c0-.41,2.51-2.08,2.51-2.08a7,7,0,0,0-1.47-5.38l-3,2.12a1.51,1.51,0,0,0-.83.25,8,8,0,0,0-1.87,0c0,.71-.26,1.36-1.51,1.52a4.93,4.93,0,0,1-3.89-1.69,6.45,6.45,0,0,0-2.27.33,3.41,3.41,0,0,0-1.26-.33l-2.44-2.2s-2.86.83-3.31,5.14c0,0,3.21,2.44,3.44,4.37h0l.09.73.31,2.59.55,4.55-1.63,9a1,1,0,0,0,0,.24,1.33,1.33,0,0,0,1,1.29l.4.06c1.72.24,8.74,1.08,14.24-.41a2.68,2.68,0,0,0,1.95-2.8l-1.17-14.6h0S333.26,139.14,333.29,138.73Z"/><path class="cls-2" d="M320.35,152.46c-.11,3.15-.42,5.83-2.22,6.83l-.4-.06a1.33,1.33,0,0,1-1-1.29,1,1,0,0,1,0-.24l1.63-9-.55-4.55,0-.12S320.49,148.41,320.35,152.46Z"/><path class="cls-7" d="M328.2,132.66c-2.29-.06-4-2.32-4-2.32l4,.16A7,7,0,0,0,328.2,132.66Z"/><path class="cls-2" d="M329.31,131.38s-4.56,1.21-6.14-2.42c-1.7-3.93.16-6.78,1.72-7,3.09-.38,4.89.8,5.43,2S331.84,130.74,329.31,131.38Z"/><path class="cls-8" d="M327.5,129.34s.19.47,1.4.2c0,0,1-.22.9-.75A3.33,3.33,0,0,0,327.5,129.34Z"/><path class="cls-3" d="M323.25,119.07a5.85,5.85,0,0,0-2.69,1.66,2.64,2.64,0,0,1-.06-.51,1.49,1.49,0,0,0-.13.74l0,0a1,1,0,0,0-.78.45,1,1,0,0,1,.57-.13c-1.61,2.66,0,6.63,3.84,8.92a8.73,8.73,0,0,1-.47-2.42s-1.19-1.52-.49-1.89,1.06.52,1.22.34.41-3.16,1.26-3.07,4,1.07,5.33-.11S328.88,117.29,323.25,119.07Z"/><path class="cls-2" d="M338.79,120.89a3.57,3.57,0,0,0-.19-1.25c-.22-.57-.09-2,.19-2s.16.62.47.55.82-1.79,1.22-1.63.71.74.58,2a8.9,8.9,0,0,1-.7,2.51Z"/><path class="cls-2" d="M310.26,119.34a4,4,0,0,1,0-1.43c.14-.67-.29-2.29-.59-2.15s-.05.72-.41.71-1.25-1.83-1.67-1.58-.64,1-.26,2.32a10.11,10.11,0,0,0,1.26,2.64Z"/><path class="cls-3" d="M325.62,126.68l-.05,0a.07.07,0,0,1,0-.1,2.13,2.13,0,0,1,1.78-.35.07.07,0,0,1,0,.14,2,2,0,0,0-1.65.32Z"/><path class="cls-3" d="M328.94,126.06s0,0-.05,0a.08.08,0,0,1,0-.1,1.65,1.65,0,0,1,1.53-.35.08.08,0,0,1,0,.09.05.05,0,0,1-.07,0,1.54,1.54,0,0,0-1.42.32Z"/><path class="cls-6" d="M330.52,133.64a9.45,9.45,0,0,0-2,0c0,.71-.16,1.39-1.41,1.55Z"/><path class="cls-9" d="M292.2,133.43s-6.58-5.87-7-6.68-2.27-8-2.27-8l-1.56.19s.29,8.65,1,10.34,8.41,8.85,8.41,8.85Z"/><path class="cls-9" d="M303.44,140.86s4.71,7.46,4.87,8.35,0,8.33,0,8.33l1.56.25s2.11-8.39,1.94-10.2-5.64-10.83-5.64-10.83Z"/><path class="cls-9" d="M298.41,176.39l3,14.54h3s2.14-13.67.16-15.56S298.41,176.39,298.41,176.39Z"/><path class="cls-9" d="M289.41,175.74,289.5,191l2.63-.23s5.05-12.43,3.52-14.7S289.41,175.74,289.41,175.74Z"/><path class="cls-10" d="M289.49,190.66a2.61,2.61,0,0,1-1.65,1.26,2.83,2.83,0,0,0-1.72,1.05.67.67,0,0,0,.54,1.07h5.79a.83.83,0,0,0,.83-.92c0-.43-.09-.93-.11-1.31a2.44,2.44,0,0,0-.88-1.51Z"/><path class="cls-11" d="M301.91,175.43a3,3,0,0,1-1.47,2.58,12.33,12.33,0,0,1-7.18.52q-.74-.15-1.41-.33a21.22,21.22,0,0,1-3.87-1.41l1.95-19.34c2.21-.45,5.23.56,8.15,5C300.72,166.46,302.34,172.11,301.91,175.43Z"/><path class="cls-12" d="M301.91,175.43a3,3,0,0,1-1.47,2.58,12.33,12.33,0,0,1-7.18.52q-.74-.15-1.41-.33c-.44-8.49,2.69-16.31,3.61-17.4C298.43,165.31,301.77,171.82,301.91,175.43Z"/><path class="cls-10" d="M301.51,190.66a2.65,2.65,0,0,1-1.66,1.26,2.86,2.86,0,0,0-1.72,1.05.67.67,0,0,0,.54,1.07h5.8a.83.83,0,0,0,.83-.92c-.05-.43-.09-.93-.11-1.31a2.44,2.44,0,0,0-.88-1.51Z"/><path class="cls-13" d="M304,123.21a4.68,4.68,0,0,0-.8-3.81c-.68-1.06-1.64-1.1-2.57-2a6,6,0,0,0-3.78-1.4c-4.12,0-7.69,2.53-6.88,6.81.26,1.36,0,2.43,1.14,4,1.38,2,3.06,3.58,5.74,3.58a5.15,5.15,0,0,0,3.78-1.37c.6-.56,1.46-.63,2-1.25C303.66,126.55,303.59,124.9,304,123.21Z"/><path class="cls-11" d="M293.67,158.2l2.56,21.11a23.77,23.77,0,0,0,11.38-.59s-1.78-20.24-3.2-21.72S293.67,158.2,293.67,158.2Z"/><path class="cls-9" d="M293.05,133.27l5.14,2.62,1-3.56a10.82,10.82,0,0,1-1-3.26,13.15,13.15,0,0,1-.11-2.94L294,128.28a8.38,8.38,0,0,1,.17,1,7.16,7.16,0,0,1-.07,2.24A3.13,3.13,0,0,1,293.05,133.27Z"/><path class="cls-2" d="M304.31,148.11l.56-4.73,0-.17a25,25,0,0,1,4.55-2.14,44.87,44.87,0,0,0-3.51-6.54h0a4.56,4.56,0,0,0-1.93-1.15,16,16,0,0,0-2.15-.61c-1.42-.31-2.64-.44-2.64-.44h0a5.13,5.13,0,0,1-4.05,1.75c-1.3-.17-1.5-.84-1.48-1.58a3.41,3.41,0,0,0-.54.1h0L289,130.51s-2.7,4.07-1,7.33a3.71,3.71,0,0,1,2.07,2.6l-.29,13.62c-.11,1.32-1.32,4.34,0,4.68,5.72,1.56,13,.69,14.82.43l.41-.06a1.38,1.38,0,0,0,1.06-1.34,2,2,0,0,0,0-.25Z"/><path class="cls-14" d="M300.44,151c.07,3.29,2.23,7.14,4.11,8.18l.41-.06a1.38,1.38,0,0,0,1.06-1.34,2,2,0,0,0,0-.25l-1.69-9.41.56-4.73a1.11,1.11,0,0,0,0-.13A8.09,8.09,0,0,0,300.44,151Z"/><path class="cls-15" d="M294.07,131.48c2.38-.06,4.2-2.41,4.2-2.41l-4.13.17A7.16,7.16,0,0,1,294.07,131.48Z"/><path class="cls-9" d="M293.84,130s5.26.64,5.38-3.07-2.09-6.1-3.55-6.08c-2.92.06-3.4,1.24-3.74,2.47S291.42,129.78,293.84,130Z"/><path class="cls-8" d="M295.25,127.9s-.12.47-1.27.38c0,0-1-.07-.93-.58A3.13,3.13,0,0,1,295.25,127.9Z"/><path class="cls-13" d="M294.37,120.93s4.5,0,3.46,3.08c-.65,1.95,1.52,2.25,1.52,2.25l1-3.12-.65-2.43Z"/><path class="cls-9" d="M282.94,118.73a3.57,3.57,0,0,1,.19-1.25c.22-.57.09-2.06-.19-2s-.15.62-.47.56-.81-1.79-1.22-1.63-.71.73-.58,2a9,9,0,0,0,.71,2.5Z"/><path class="cls-9" d="M308.27,157.54a3.6,3.6,0,0,1-.53,1.15c-.36.49-.65,1.95-.36,1.95s.32-.55.61-.4.29,1.94.72,1.91.88-.52,1.11-1.76a8.78,8.78,0,0,0,0-2.6Z"/><path class="cls-7" d="M199.49,136s6.26,4.07,8.27,6.13c0,0,7.71,2.42,8.23,2.62s-.26,1.85-.26,1.85-7.35-.52-9.6-1.51-9.76-4-10.24-6.59S199.49,136,199.49,136Z"/><polygon class="cls-2" points="192.12 183.37 190.72 190.84 188.17 190.84 187.51 181.72 192.12 183.37"/><polygon class="cls-2" points="203.6 182.7 205.19 190.93 202.96 191.02 198.71 183 203.6 182.7"/><path class="cls-16" d="M190.77,190.56a3,3,0,0,0,1.75,1.34,2.85,2.85,0,0,1,1.72,1.06.67.67,0,0,1-.54,1.06h-5.8a.83.83,0,0,1-.83-.91c.05-.43.09-.93.11-1.32a2.75,2.75,0,0,1,.95-1.59,6,6,0,0,0,1.1.5A4,4,0,0,0,190.77,190.56Z"/><path class="cls-16" d="M205.13,190.56a2.93,2.93,0,0,0,1.74,1.35,2.84,2.84,0,0,1,1.71,1.07A.67.67,0,0,1,208,194l-5.8,0a.83.83,0,0,1-.82-.92c0-.43.09-.93.11-1.32a2.8,2.8,0,0,1,1-1.59,6.1,6.1,0,0,0,1.1.52A4.25,4.25,0,0,0,205.13,190.56Z"/><path class="cls-6" d="M204.92,183a27.9,27.9,0,0,1-5.08,1c-2.5.23-5.23,0-6.38-1.73a5.58,5.58,0,0,1-.6-2.5c-.48-6.91,3.17-23.39,3.17-23.39h4.26C200.29,156.75,204.92,183,204.92,183Z"/><path class="cls-2" d="M199.84,184c-2.5.23-5.23,0-6.38-1.73a5.58,5.58,0,0,1-.6-2.5v0c.68-2.53,2.53-18.2,2.53-18.2S201.77,178.32,199.84,184Z"/><path class="cls-6" d="M186.71,157.37s-1.91,12.84-2.77,26.54c0,0,6,2.46,11.58.49l1-26.12Z"/><path class="cls-16" d="M189.58,120.15a2.31,2.31,0,0,0-2-1.78s.51.3.59.63a2.45,2.45,0,0,0-2.38-.26c-1.45.52-3.61,2-2.52,5.43s-1.13,4.29-2,6.51,2.14,2.64,1.51,4.37,1.24,5.81,6,4,5.83-8.64,3.81-10.31S189.58,120.15,189.58,120.15Z"/><path class="cls-17" d="M191,120.06a4.42,4.42,0,0,0-3.45,1.1c-.72.75,0,1.82,0,1.82Z"/><path class="cls-16" d="M197.49,123.37a7.8,7.8,0,0,0-4.91-3.29,4.69,4.69,0,0,0-5.36,4c-.4,2.58,0,5.93,4.23,7.14Z"/><path class="cls-2" d="M196.71,134.89l-4.77,2.83-1.21-3.36a10.31,10.31,0,0,0,.72-3.18,13.68,13.68,0,0,0-.08-2.82l4.15,1.8a8.12,8.12,0,0,0-.1.93,6.66,6.66,0,0,0,.21,2.15A3,3,0,0,0,196.71,134.89Z"/><path class="cls-7" d="M195.63,133.24c-2.29.08-4.18-2.06-4.18-2.06l4-.09A6.66,6.66,0,0,0,195.63,133.24Z"/><path class="cls-2" d="M196.65,131.89s-4.48,1.5-6.28-2c-2-3.8-.27-6.77,1.27-7.06,3.06-.58,4.93.48,5.55,1.69S199.13,131.09,196.65,131.89Z"/><path class="cls-8" d="M194.72,130s.22.45,1.4.11c0,0,1-.28.85-.81A3.31,3.31,0,0,0,194.72,130Z"/><path class="cls-8" d="M202.75,138.2l-3.81-3.09h0a3.28,3.28,0,0,0-1.75-.76l-1.15-.17c.06.71.06,1.28-1.18,1.5a5.15,5.15,0,0,1-4.05-1.5,13.84,13.84,0,0,0-3,.86,2.7,2.7,0,0,0-1.36,1.19,2.64,2.64,0,0,0-.32,1.62l1.26,10.92s-1.51,9.29-1.25,9.32c1.73.16,9.33,1.69,14.76-.05.87-.28-1.23-5.2-.81-15.27A4.83,4.83,0,0,0,202.75,138.2Z"/><path class="cls-16" d="M193.51,123.21s.06,3.52-2,4.68a5.07,5.07,0,0,0,.53-2.67s-.52,3.14-2.12,3.69-2.42-5.83.9-7.11,6.58.24,7,2.48.1,2.71.1,2.71S196.37,122.72,193.51,123.21Z"/><path class="cls-18" d="M186.18,158.09c-.26,0,1.25-9.32,1.25-9.32l-1.26-10.92a2.64,2.64,0,0,1,.32-1.62.64.64,0,0,1,.26.13c2.65,2.24,5.09,11.33,5.09,11.33S193.13,155,186.18,158.09Z"/><path class="cls-2" d="M185.78,139.08s-2.26,8.53-1.84,10.1,4.81,5.21,5.55,5.45l.53-1.4s-3.35-4.62-3.07-5.12c.61-1.08,3.07-7.38,3.07-7.38Z"/><path class="cls-8" d="M189.37,142.39a6.17,6.17,0,0,1-5.13-2.17s2.15-6.3,4.84-5S191.12,140.87,189.37,142.39Z"/><path class="cls-2" d="M190,153.23s2.22.44,2.31,1.15-.93,1.52-1.48,1.32a5.37,5.37,0,0,1-1.36-1.07Z"/><path class="cls-14" d="M260.93,82.74a.77.77,0,0,0-.39-.88c-11.39-3.86-22.59-3.65-30-2.8a70.13,70.13,0,0,0-13.46,2.8.78.78,0,0,0-.39.89.59.59,0,0,0,.52.54l.14,0a68.63,68.63,0,0,1,13.28-2.77c7.31-.84,18.38-1,29.63,2.77C260.57,83.37,260.86,83.13,260.93,82.74Z"/><path class="cls-14" d="M269.85,85.14A82.85,82.85,0,0,0,249.27,60a54.1,54.1,0,0,0-11-7.16,1.31,1.31,0,0,0-1.16,0c-6.15,3.31-13,9.74-20.29,19.11a152.72,152.72,0,0,0-9.12,13.06,1.33,1.33,0,0,0,.45,1.81,1.31,1.31,0,0,0,1.81-.45c.14-.23,14-23.05,27.82-30.88a56.84,56.84,0,0,1,9.89,6.59A80.09,80.09,0,0,1,267.52,86.4a1.32,1.32,0,0,0,1.16.69,1.28,1.28,0,0,0,.63-.16A1.33,1.33,0,0,0,269.85,85.14Z"/><path class="cls-14" d="M227.75,85.46a1,1,0,0,0-1,1v21.06a1,1,0,0,0,1,1h21.06a1,1,0,0,0,1-1V86.45a1,1,0,0,0-1-1ZM247.81,96h-8.05V87.44h8.05Zm-10-8.54V96h-9V87.44Zm-9,10.53h9v8.54h-9Zm11,8.54V98h8.05v8.54Z"/><path class="cls-14" d="M262.06,86.6h0A1.32,1.32,0,0,0,260.89,88c1.33,15.07-2.34,23.7-3.07,25.83-12.87,3.9-33.67,1.25-37.41.65-3.87-11.44-3.49-25.44-3.35-28.37a.61.61,0,0,0-.52-.64l-.49-.06a.75.75,0,0,0-.86.66A94.39,94.39,0,0,0,214.6,96c0,5.63.42,13.81,2.88,20.75l.18.5.53.09c.06,0,6.74,1.16,15.06,1.73q4.77.33,8.94.33c7,0,12.76-.7,17.08-2.09l.41-.13.16-.4a45.88,45.88,0,0,0,2.1-8.26,79.75,79.75,0,0,0,.69-21.45A.52.52,0,0,0,262.06,86.6Z"/><path class="cls-6" d="M96.5,115.19a.39.39,0,0,1-.26-.39.48.48,0,0,1,.34-.5,43,43,0,0,1,8.6-.22,43.71,43.71,0,0,1,18.16,5.09.48.48,0,0,1,.14.58c-.09.23-.3.34-.46.25a45.81,45.81,0,0,0-26.43-4.81A.14.14,0,0,1,96.5,115.19Z"/><path class="cls-6" d="M127.77,123.3a.83.83,0,0,1-.64-.56,50.29,50.29,0,0,0-9.5-17.15,36,36,0,0,0-5.35-5.17c-9.37,3.28-20.48,15.78-20.59,15.91a.83.83,0,0,1-1.17.07.83.83,0,0,1-.07-1.17,93.5,93.5,0,0,1,7.08-7c5.55-4.95,10.47-8.14,14.63-9.49a.83.83,0,0,1,.72.1,33.76,33.76,0,0,1,6,5.64,52,52,0,0,1,9.86,17.77.83.83,0,0,1-.53,1A.92.92,0,0,1,127.77,123.3Z"/><path class="cls-6" d="M113.12,134.25l-13-2.36a.61.61,0,0,1-.5-.72l2.36-13a.62.62,0,0,1,.72-.5l13,2.36a.63.63,0,0,1,.5.73l-2.36,13A.62.62,0,0,1,113.12,134.25ZM101,130.78l11.75,2.14,2.13-11.75L103.13,119Z"/><path class="cls-6" d="M114.3,127.77l-13-2.36a.62.62,0,1,1,.22-1.22l13,2.36a.62.62,0,1,1-.23,1.22Z"/><path class="cls-6" d="M106.94,133.13a.62.62,0,0,1-.5-.72l2.36-13a.62.62,0,0,1,.72-.5.61.61,0,0,1,.5.72l-2.36,13A.62.62,0,0,1,106.94,133.13Z"/><path class="cls-6" d="M107.83,140.22c-1.71-.31-3.54-.71-5.47-1.2-5.06-1.29-9-2.74-9.08-2.76l-.32-.11,0-.33a39.81,39.81,0,0,1,.55-13.1,60,60,0,0,1,1.47-6,.48.48,0,0,1,.61-.31l.29.1a.37.37,0,0,1,.25.45c-.41,1.79-2.22,10.37-1.12,17.84,2.24.79,14.75,4.76,23.11,3.79.69-1.22,3.92-6.13,4.79-15.56a.82.82,0,0,1,.88-.75h0a.32.32,0,0,1,.3.35,49.46,49.46,0,0,1-2.83,13.13,28.51,28.51,0,0,1-2.22,4.85l-.14.23-.27,0A35.91,35.91,0,0,1,107.83,140.22Z"/><path class="cls-5" d="M204.54,118.5a.82.82,0,0,1-1.14-.11h0a40.16,40.16,0,0,1-4.32-7.1c-3.21.43-7.54.3-11-2.38a10,10,0,0,1-3.1-3.79l-.29-.73.71-.32.08,0a10,10,0,0,1,9.44.33,14.17,14.17,0,0,1,1.4.93c-.37-.87-.79-1.87-1.24-3-3.28-2.72-4.17-5.53-4.33-7.42a7.73,7.73,0,0,1,.52-3.66l.33-.7.71.29a7.84,7.84,0,0,1,4.91,5.73,11.72,11.72,0,0,1-.08,4.88c.22.5.48,1.1.78,1.76a6.46,6.46,0,0,1,2.81-4l.68-.37.4.66c2.09,3.38.63,6.6-1.57,8.64a49.85,49.85,0,0,0,5.09,8.7h0a.81.81,0,0,1-.1,1.14Zm-5.69-8.82.31,0,0-.1Zm-12-4.46a9.22,9.22,0,0,0,2.26,2.46c2.36,1.78,5.44,2.48,9.17,2.07C196.71,107.48,192.76,103.08,186.86,105.22Zm14-4.09a5.87,5.87,0,0,0-1.39,5.44v0A5,5,0,0,0,200.84,101.13Zm-8.36-8.42c-.33,1.45-.49,4.67,3.15,8C196,98.52,196.13,94.7,192.48,92.71Z"/><path class="cls-5" d="M137.17,185a.52.52,0,0,1-.74-.07h0a26.26,26.26,0,0,1-2.83-4.64,9.54,9.54,0,0,1-7.19-1.55,6.45,6.45,0,0,1-2-2.48l-.19-.47.46-.21,0,0a6.51,6.51,0,0,1,6.17.22,7.22,7.22,0,0,1,.91.61l-.81-2a7,7,0,0,1-2.82-4.84,5.23,5.23,0,0,1,.33-2.39l.22-.46.47.19a5.11,5.11,0,0,1,3.2,3.74,7.69,7.69,0,0,1,0,3.19c.14.33.31.72.51,1.15a4.21,4.21,0,0,1,1.83-2.63l.45-.25.26.44c1.36,2.21.41,4.31-1,5.64a33.33,33.33,0,0,0,3.33,5.68h0a.53.53,0,0,1-.07.75Zm-3.72-5.76.2,0,0-.07Zm-7.83-2.91A6.21,6.21,0,0,0,127.1,178a8.15,8.15,0,0,0,6,1.35C132.06,177.84,129.47,175,125.62,176.36Zm9.13-2.67a3.85,3.85,0,0,0-.91,3.55h0A3.29,3.29,0,0,0,134.75,173.69Zm-5.46-5.5c-.21.95-.32,3.05,2.06,5.19C131.61,172,131.68,169.49,129.29,168.19Z"/><path class="cls-5" d="M276.08,108.32a.82.82,0,0,1-.11-1.14h0a49.74,49.74,0,0,0,5.1-8.7c-2.2-2-3.66-5.25-1.57-8.64l.4-.66.68.38a6.43,6.43,0,0,1,2.81,4c.3-.66.56-1.26.78-1.76a11.71,11.71,0,0,1-.08-4.88A7.81,7.81,0,0,1,289,81.22l.71-.3.33.71a7.7,7.7,0,0,1,.52,3.65c-.16,1.9-1.05,4.71-4.33,7.42-.45,1.11-.87,2.11-1.24,3a11.34,11.34,0,0,1,1.4-.93,10,10,0,0,1,9.44-.34l.08,0,.71.32-.29.72a10.16,10.16,0,0,1-3.1,3.79c-3.47,2.68-7.8,2.81-11,2.38a39.5,39.5,0,0,1-4.33,7.1h0a.81.81,0,0,1-1.14.11Zm6.11-8.4-.05.1.31,0Zm.82.21c3.73.41,6.8-.28,9.16-2.07a9.14,9.14,0,0,0,2.27-2.46C288.54,93.46,284.58,97.86,283,100.13ZM281.84,97v0a5.87,5.87,0,0,0-1.39-5.44A5,5,0,0,0,281.84,97Zm3.83-5.92c3.64-3.28,3.48-6.51,3.15-8C285.17,85.09,285.27,88.9,285.67,91.05Z"/><path class="cls-6" d="M292.93,50.9a8.28,8.28,0,0,1-3.46,1.24,7.3,7.3,0,0,1-7-3,9.13,9.13,0,0,1,15.39-9.83,9,9,0,0,1,1.22,6.88.64.64,0,0,1-.77.49.64.64,0,0,1-.5-.77,7.75,7.75,0,0,0-1.05-5.9,7.83,7.83,0,0,0-13.19,8.43,6,6,0,0,0,5.7,2.41c2.86-.33,5.16-2.39,6.31-5.67a.66.66,0,0,1,.84-.39.64.64,0,0,1,.39.83A10,10,0,0,1,292.93,50.9Z"/><path class="cls-6" d="M284.29,34.94a.64.64,0,0,1-.9-.2l-6-9.34a.64.64,0,0,1,.2-.9.66.66,0,0,1,.9.2l6,9.34A.66.66,0,0,1,284.29,34.94Z"/><path class="cls-6" d="M269.24,57.19a.66.66,0,0,1,.2-.9l9.34-6a.66.66,0,0,1,.9.2.65.65,0,0,1-.19.9l-9.35,6A.65.65,0,0,1,269.24,57.19Z"/><path class="cls-6" d="M300.15,37.43a.66.66,0,0,1,.2-.9l9.34-6a.66.66,0,0,1,.9.2.64.64,0,0,1-.2.9l-9.34,6A.66.66,0,0,1,300.15,37.43Z"/><path class="cls-6" d="M293.57,32.4a.65.65,0,0,1-.48-.79l2.52-10.79a.66.66,0,0,1,.79-.49.65.65,0,0,1,.48.78l-2.52,10.8A.67.67,0,0,1,293.57,32.4Z"/><path class="cls-6" d="M266.39,39.52a.66.66,0,0,1,.77-.51L278,41.23a.66.66,0,0,1,.51.77.65.65,0,0,1-.77.51L266.9,40.29A.65.65,0,0,1,266.39,39.52Z"/><path class="cls-6" d="M284.84,68.31a.65.65,0,0,1-.55-.74l1.54-11a.65.65,0,0,1,1.29.18l-1.54,11A.65.65,0,0,1,284.84,68.31Z"/><path class="cls-6" d="M314.79,48.55A.65.65,0,0,1,314,49l-10.79-2.51a.64.64,0,0,1-.49-.78.65.65,0,0,1,.78-.49l10.8,2.51A.65.65,0,0,1,314.79,48.55Z"/><path class="cls-6" d="M301.93,62.54a.66.66,0,0,1-.9-.2l-6-9.34a.65.65,0,0,1,.2-.9.64.64,0,0,1,.9.2l6,9.34A.65.65,0,0,1,301.93,62.54Z"/><path class="cls-2" d="M89.91,125.53c-.43-.18-1.5,1.63-1.75,1.71s.09-.85-.21-1-1,2-1,2c-.49.25-7.38,4.47-7.38,4.47-2.88.16-10.06,2.2-10.06,2.2s-2.71,3.05-.48,4.36,9.47-2.35,11.69-3.39,7.45-6.23,7.45-6.23C90.79,128.43,90.34,125.71,89.91,125.53Z"/><path class="cls-3" d="M62.24,119.25s-4.17.55-5.26,3.38-2.35,22.44,0,25a21,21,0,0,1,.35-3s.47,5,2.82,6,11.36-14.88,11.36-14.88S73.71,118.36,62.24,119.25Z"/><path class="cls-19" d="M70.08,179.69c-.62,5.39-1,10.07-.88,11.36l-2.49-.3h0l0-.07h0v0c-.18-.71-1.26-5-2-9.12-.06-.28-.11-.56-.16-.84a25.44,25.44,0,0,1-.57-5.75c.38-3.46-3.12-17.72.11-19s8.72,3.28,8.72,3.28S71.14,170.5,70.08,179.69Z"/><path class="cls-2" d="M71.83,164.65s-6.74,9.36-12,17.08l-.13.19a74.85,74.85,0,0,0-5.74,9.3l-2.55-.39s1.72-6.92,3.25-11.58h0l.07-.21a22.68,22.68,0,0,1,2-4.66c2-2.88,5.54-17.11,9-16.71S71.83,164.65,71.83,164.65Z"/><path class="cls-3" d="M69.55,123.37a7.8,7.8,0,0,0-4.91-3.29,4.69,4.69,0,0,0-5.36,4c-.4,2.58,0,5.93,4.23,7.14Z"/><path class="cls-2" d="M68.77,134.89,64,137.72l-1.21-3.36a10.68,10.68,0,0,0,.72-3.18,13.68,13.68,0,0,0-.08-2.82l4.15,1.8a8.12,8.12,0,0,0-.1.93,6.92,6.92,0,0,0,.2,2.15A3,3,0,0,0,68.77,134.89Z"/><path class="cls-7" d="M67.68,133.24c-2.29.08-4.17-2.06-4.17-2.06l4-.09A6.92,6.92,0,0,0,67.68,133.24Z"/><path class="cls-2" d="M68.71,131.89s-4.48,1.5-6.28-2c-2-3.8-.27-6.77,1.27-7.06,3.06-.58,4.93.48,5.55,1.69S71.19,131.09,68.71,131.89Z"/><path class="cls-8" d="M66.77,130s.23.45,1.41.11c0,0,1-.28.85-.81A3.34,3.34,0,0,0,66.77,130Z"/><path class="cls-9" d="M74.81,139a8.59,8.59,0,0,0,.1-1.3,6.77,6.77,0,0,0-.15-1.49,6.57,6.57,0,0,0-1.23-2.9c-2.66.45-3.85.3-5.07.89l-.35,0c.06.71-.15,1.38-1.38,1.62a4.78,4.78,0,0,1-3.92-1.49,16.84,16.84,0,0,0-3.13.84A2.69,2.69,0,0,0,58.06,138l.31,2.26,1.73,7.08a17.67,17.67,0,0,1,.49,3.73c-.21,1.38-.8,3.53-1.4,6v0a54.05,54.05,0,0,0-1.39,7.74c-.31,3.6-.52,6.4-.45,6.45,1.29,1.25,10.87,3.81,16.26,2,.54-.18.28-9.82-.21-19.18-.27-5.15-.61-10.21-.93-13.59h0A16.44,16.44,0,0,0,74.81,139Z"/><path class="cls-14" d="M63.21,148.17c-.16,2.88-2.12,6.27-4,8.88.6-2.45,1.19-4.6,1.4-6a17.67,17.67,0,0,0-.49-3.73l-1.73-7.08C59.4,139.11,63.54,142.5,63.21,148.17Z"/><path class="cls-3" d="M65.57,123.21a5.61,5.61,0,0,1-3.56,5.7c-1.59.59-2.42-5.83.9-7.11s6.58.24,7,2.48S70,127,70,127,68.43,122.72,65.57,123.21Z"/><path class="cls-16" d="M69.2,191.05l-2.49-.3,0-.07h0v0c-.18-.71-1.26-5-2-9.12-.06-.28-.11-.56-.16-.84a11.69,11.69,0,0,0,5.61-1C69.46,185.08,69,189.76,69.2,191.05Z"/><path class="cls-3" d="M69.16,190.56a2.93,2.93,0,0,0,1.74,1.35A2.86,2.86,0,0,1,72.62,193a.67.67,0,0,1-.55,1.06h-5.8a.86.86,0,0,1-.82-.95c0-.43.09-.93.12-1.32a2.75,2.75,0,0,1,1-1.59,6.28,6.28,0,0,0,1.09.52A4.25,4.25,0,0,0,69.16,190.56Z"/><path class="cls-2" d="M62.89,139s0-4-2.52-3.33-4.7,7.88-5.55,10.19-.89,9.67-.89,9.67-1.08,2.61-.12,3.06,1.55-1.82,1.7-1.77.22.82.53.42-.45-1.88-.45-1.88h0c.37-1.24,2.29-8.07,2.29-8.07C59.81,145.16,62.89,139,62.89,139Z"/><path class="cls-14" d="M60.39,123.8c-.14-.57,0-.73.16-.77s.35,0,.49.61a2,2,0,0,1-.08,1.1A2,2,0,0,1,60.39,123.8Z"/><path class="cls-14" d="M61.69,123.84c.46-.35.65-.31.77-.16s.1.34-.36.7a2,2,0,0,1-1.05.36A2.07,2.07,0,0,1,61.69,123.84Z"/><path class="cls-14" d="M59.92,124.27c-.57-.1-.72,0-.75.21s.06.35.63.45a2,2,0,0,0,1.1-.15A2,2,0,0,0,59.92,124.27Z"/><path class="cls-14" d="M60.14,125.56c-.28.51-.21.69,0,.78s.35.06.63-.45a2,2,0,0,0,.21-1.09A2,2,0,0,0,60.14,125.56Z"/><path class="cls-14" d="M62.06,125.1c.48.32.5.52.4.67s-.29.21-.78-.11a2,2,0,0,1-.68-.87A2,2,0,0,1,62.06,125.1Z"/><path class="cls-6" d="M60.71,124.73a.25.25,0,0,1,.49,0,.25.25,0,1,1-.49,0Z"/><path class="cls-16" d="M59.82,181.73l-.13.19a74.85,74.85,0,0,0-5.74,9.3l-2.55-.39s1.72-6.92,3.25-11.58h0l.07-.21A10.06,10.06,0,0,0,59.82,181.73Z"/><path class="cls-3" d="M54.27,190.53A2.75,2.75,0,0,0,56,191.91,2.84,2.84,0,0,1,57.67,193a.67.67,0,0,1-.54,1.06H51.32a.84.84,0,0,1-.81-.95c0-.43.09-.93.11-1.32a2.81,2.81,0,0,1,1-1.59,6.28,6.28,0,0,0,1.11.52A4.32,4.32,0,0,0,54.27,190.53Z"/><path class="cls-14" d="M74.91,137.72a8.59,8.59,0,0,1-.1,1.3,16.44,16.44,0,0,1-2.33,1.42c-.15-1.54,1.73-3.63,2.28-4.21A6.77,6.77,0,0,1,74.91,137.72Z"/><path class="cls-9" d="M61.79,142.33a8.23,8.23,0,0,1-5.62-2.77s2.52-5.76,5.14-4.35S63.61,140.9,61.79,142.33Z"/><path class="cls-6" d="M87.33,132.92h0a.78.78,0,0,1-.58-.92l2-8.92a.77.77,0,0,1,.92-.59h0a.77.77,0,0,1,.58.92l-2,8.92A.78.78,0,0,1,87.33,132.92Z"/><path class="cls-6" d="M130.87,125.27h0a.77.77,0,0,1-.59-.91l2-8.92a.76.76,0,0,1,.91-.59h0a.76.76,0,0,1,.59.91l-2,8.93A.76.76,0,0,1,130.87,125.27Z"/><path class="cls-2" d="M159.51,133.14s6.26,12.32,6.92,14.22,2,7.13,2,7.13l-1.87.25s-2.6-5.51-2.79-6.13-3.94-4.44-4.59-6.31S159.51,133.14,159.51,133.14Z"/><path class="cls-3" d="M163.17,190.66a2.65,2.65,0,0,1-1.66,1.26,2.83,2.83,0,0,0-1.72,1.05.67.67,0,0,0,.54,1.07h5.8a.83.83,0,0,0,.83-.92c-.05-.43-.09-.93-.11-1.31a2.44,2.44,0,0,0-.88-1.51Z"/><path class="cls-19" d="M166.54,190.56c-2.55,1.43-4.13.62-4.13.62-.11-1.32-1.8-8.13-3.62-15.22-2.24-8.67-4.67-17.77-4.67-17.77s5.18-4.6,8.94-2.09c1.74,1.16,2.3,4.16,2.54,7.41.29,3.79.14,7.93.94,9.91C168,177.1,166.54,190.56,166.54,190.56Z"/><path class="cls-13" d="M165.6,163.51,158.79,176c-2.24-8.67-4.67-17.77-4.67-17.77s5.18-4.6,8.94-2.09C164.8,157.26,165.36,160.26,165.6,163.51Z"/><path class="cls-2" d="M150.43,134.62l4.32,2,1-3.36a10.56,10.56,0,0,1-.89-3.07,12.27,12.27,0,0,1-.1-2.77l-3.95,2a6.68,6.68,0,0,1,.16.91,6.36,6.36,0,0,1-.07,2.11C150.73,133.09,150.57,133.78,150.43,134.62Z"/><path class="cls-7" d="M150.87,132.45c2.24-.06,4-2.27,4-2.27l-3.89.16A6.36,6.36,0,0,1,150.87,132.45Z"/><path class="cls-2" d="M149.78,131.2s4.48,1.18,6-2.38c1.67-3.84-.16-6.64-1.68-6.83-3-.37-4.79.78-5.32,2S147.31,130.57,149.78,131.2Z"/><path class="cls-3" d="M149.13,123.44c-1.19.1-2.61-1.11-1.27-3,1.23-1.69,6.07-2.72,8.6-.76,5.89,4.57,1.63,9.32-1,10.68a.77.77,0,0,1-1-.24c-.45-.63-1.13-1.67-.95-2.1.27-.63.3-2.17-.54-1.84S150.3,123.35,149.13,123.44Z"/><path class="cls-3" d="M149.44,190.66a2.65,2.65,0,0,1-1.66,1.26,2.83,2.83,0,0,0-1.72,1.05.67.67,0,0,0,.54,1.07h5.8a.83.83,0,0,0,.83-.92c0-.43-.09-.93-.11-1.31a2.44,2.44,0,0,0-.88-1.51Z"/><path class="cls-19" d="M149.3,190.92a5.5,5.5,0,0,0,3.74.32s4-10.23,4.24-15c0-.2,0-.38,0-.56-.08-4.52,4.1-16.31,3-18.73S150,158,150,158l-.18,8.21Z"/><path class="cls-20" d="M152.15,159.7a6.2,6.2,0,0,1-2.62-.43c-1.44-1-1.44-11.2-2.18-17-.08-.63-.17-1.2-.27-1.7-1-5.15.41-7.48,2.7-7.36,0,0,6.09-1.52,8.54.17,2.14,1.47,4.69,13.78,6.78,24.41C165.31,158.91,156.72,159.87,152.15,159.7Z"/><path class="cls-2" d="M150.25,136.2s-9.79-4.45-10.55-5.25-5.54-8.52-5.54-8.52l-1.76.79s3.48,10,4.86,11.69,13,7.27,13,7.27Z"/><path class="cls-2" d="M134.16,122.43a4.5,4.5,0,0,1-.24-1.52c.05-.75-.63-2.43-.93-2.24s0,.78-.35.82-1.59-1.79-2-1.46-.56,1.12,0,2.53a10.85,10.85,0,0,0,1.73,2.66Z"/><path class="cls-2" d="M166.59,154.35a3.9,3.9,0,0,1-.11,1.35c-.19.62.05,2.19.34,2.08s.12-.67.46-.62,1,1.84,1.42,1.64.7-.83.47-2.16a9.38,9.38,0,0,0-.93-2.61Z"/><path class="cls-20" d="M150.67,133.38s-2.4-.33-3.37-.43a24.36,24.36,0,0,0-3.43.26s0,6,3.34,8.75l4.15.71Z"/><path class="cls-20" d="M155.46,132.65a37.83,37.83,0,0,1,4.19.29c1.55.45,2.83,3.81,2.83,3.81s-.95,2.9-2.67,3S155.46,132.65,155.46,132.65Z"/><path class="cls-16" d="M152.15,159.7a6.2,6.2,0,0,1-2.62-.43c-1.44-1-1.44-11.2-2.18-17C148.21,144.54,152.79,156.58,152.15,159.7Z"/><path class="cls-3" d="M216.47,137.33c-2.12.85-2.64-.62-3.27-1a1.83,1.83,0,0,1-.88-2.52c.6-1.44-1.31-2.07-.78-4s1.14-1.59,1.37-3.21c.18-1.29,1.92-1.86,2.87-1.9,1.2-.06,2.55-1.18,4-.87s1.69.83,2.33.95a5.43,5.43,0,0,1,4,1.94c2,1.95,1.2,2.72,1.43,3.71s.36,3.32-.52,3.81-1.34,2.31-2.25,2.36c-1.71.08-1.91,1.13-3,1.31-.82.15-1.18-.33-2.49.34C218.58,138.57,217.41,137,216.47,137.33Z"/><path class="cls-15" d="M211.13,161.89s3.69,26.16,3.26,29.39l2.33-.28s2.91-11.42,2.56-14.62,2.89-16.36-.1-17.52S211.13,161.89,211.13,161.89Z"/><path class="cls-21" d="M214.49,161.92s5.26,26.19,5,29.44l2.3-.53s2.24-11.78,1.7-14.94,1.87-16.52-1.18-17.49S214.49,161.92,214.49,161.92Z"/><path class="cls-3" d="M214.42,190.82a2.69,2.69,0,0,1-1.6,1.25,2.64,2.64,0,0,0-1.59,1,.62.62,0,0,0,.51,1l5.35,0a.76.76,0,0,0,.76-.85c0-.4-.08-.86-.1-1.21a2.56,2.56,0,0,0-.89-1.47,5.5,5.5,0,0,1-1,.47A3.77,3.77,0,0,1,214.42,190.82Z"/><path class="cls-10" d="M219.46,190.82a2.73,2.73,0,0,1-1.61,1.25,2.64,2.64,0,0,0-1.58,1,.61.61,0,0,0,.5,1l5.36,0a.77.77,0,0,0,.76-.85c0-.4-.09-.86-.11-1.21a2.51,2.51,0,0,0-.88-1.47,5.67,5.67,0,0,1-1,.47A3.7,3.7,0,0,1,219.46,190.82Z"/><path class="cls-21" d="M213.4,139.23s-3.5,5.9-4.2,10.71c0,0,1.7,2.3,2.39.68S217.25,140.38,213.4,139.23Z"/><path class="cls-3" d="M214.07,128.76a7.18,7.18,0,0,1,4.53-3,4.33,4.33,0,0,1,5,3.65c.37,2.39,0,5.49-3.9,6.6Z"/><path class="cls-21" d="M214.78,139.4l4.41,2.62,1.12-3.11a9.74,9.74,0,0,1-.66-2.94,12.32,12.32,0,0,1,.07-2.61L215.89,135a8.63,8.63,0,0,1,.09.86,6.14,6.14,0,0,1-.19,2A2.74,2.74,0,0,1,214.78,139.4Z"/><path class="cls-6" d="M224.92,167.05c-.41-4.72-1-10.91-1.41-13.46a8.58,8.58,0,0,1,0-2.53l.91-6.69.28-2.1a2.49,2.49,0,0,0-1.5-2.62,14.27,14.27,0,0,0-2.82-.73,4.58,4.58,0,0,1-3.69,1.32c-1.14-.22-1.36-.83-1.3-1.49l-.81.1a3.36,3.36,0,0,0-2.3,1.41h0l0,0a2.88,2.88,0,0,0-.22.38l-1.68,2.87a2.21,2.21,0,0,0,1,1.46c-.83,9.07-1.78,29.55-1,29.81,5,1.7,13.82-.66,15-1.81C225.4,172.94,225.21,170.36,224.92,167.05Z"/><path class="cls-15" d="M215.79,137.87c2.11.08,3.86-1.9,3.86-1.9l-3.67-.08A6.14,6.14,0,0,1,215.79,137.87Z"/><path class="cls-21" d="M214.84,136.63s4.14,1.38,5.81-1.88c1.8-3.51.24-6.25-1.18-6.52-2.83-.54-4.55.44-5.13,1.56S212.55,135.89,214.84,136.63Z"/><path class="cls-8" d="M216.63,134.85s-.2.42-1.3.11c0,0-.92-.26-.78-.75A3.06,3.06,0,0,1,216.63,134.85Z"/><path class="cls-2" d="M224.92,167.05c-.13-.16-8.51-9.94-8.82-15.14s4.21-9.08,4.21-9.08a4.8,4.8,0,0,1,4.09,1.54l-.91,6.69a8.58,8.58,0,0,0,0,2.53C223.89,156.14,224.51,162.33,224.92,167.05Z"/><path class="cls-3" d="M217.74,128.61a5.2,5.2,0,0,0,3.29,5.27c1.47.54,2.23-5.39-.83-6.58s-6.08.23-6.44,2.3-.09,2.5-.09,2.5S215.1,128.16,217.74,128.61Z"/><path class="cls-21" d="M220,141.32s-1.69,6.69-1.76,9.35c0,0-3.71,6.48-3.92,6.94s1.33,1.09,1.33,1.09,4.66-5,5.56-7,4.08-8.87,2.8-10.89S220,141.32,220,141.32Z"/><path class="cls-21" d="M209.2,149.94a11.89,11.89,0,0,0,2.91,8.14s.88-1.06.77-1.39-1.38-5.41-2.31-6.13S209.2,149.94,209.2,149.94Z"/><path class="cls-21" d="M214.3,157.61s-2.08,0-2.19.47a1.49,1.49,0,0,0,2,1.48c1.51-.53,1.47-.86,1.47-.86Z"/><path class="cls-21" d="M212.88,156.69s1.66.77,1.1,1.59a1.11,1.11,0,0,1-1.87-.2C211.93,157.56,212.88,156.69,212.88,156.69Z"/><path class="cls-6" d="M218.76,144.85a7.58,7.58,0,0,0,5.53,1.71s1.65-5.86-1-6.58S218.45,142.74,218.76,144.85Z"/><path class="cls-8" d="M132.32,103.7a.48.48,0,0,1-.44-.66h0a10.57,10.57,0,0,1,1.92-4,7,7,0,0,1,6.06-2.35.46.46,0,0,0,.39-.17c1.07-1.29,4.4-5.73,8.94-6.34,2.32-.31,4.77.83,6.83,2.35a.52.52,0,0,0,.26.1c1.43,0,7.37-.59,10.44,2.91,1.52,1.73,2,5,1.66,7.65h0a.48.48,0,0,1-.47.42Zm7.19-6c-2.87,0-5,2.66-6,4.37a.47.47,0,0,0,.4.72L167,102.7a.47.47,0,0,0,.48-.44,6.86,6.86,0,0,0-1.63-5c-3.16-3.6-9.85-3.66-9.92-3.66h0a.53.53,0,0,1-.29-.1h0a8,8,0,0,0-6.14-1.83c-4.93.66-8.82,5.81-8.86,5.86h0a.47.47,0,0,1-.45.18h0A6.09,6.09,0,0,0,139.51,97.67Z"/><path class="cls-8" d="M305.86,80.92a.49.49,0,0,1-.45-.68h0a11,11,0,0,1,2-4.23,7.16,7.16,0,0,1,6.29-2.3.48.48,0,0,0,.4-.17c1.11-1.34,4.37-5.83,9.06-6.46a10.56,10.56,0,0,1,7.25,2.33.45.45,0,0,0,.27.1c1.47,0,8.05-.58,11.22,3,1.58,1.79,1.64,5.16,1.29,7.88h0a.49.49,0,0,1-.48.43Zm7.44-6.24c-3,0-5.13,2.76-6.22,4.52a.49.49,0,0,0,.42.74l34.27,0a.5.5,0,0,0,.49-.47,7.06,7.06,0,0,0-1.69-5.15c-3.26-3.72-10.18-3.79-10.25-3.79h0a.54.54,0,0,1-.3-.1h0a8.23,8.23,0,0,0-6.35-1.89c-5.1.68-9.12,6-9.16,6.06h0a.5.5,0,0,1-.47.19h0A4.71,4.71,0,0,0,313.3,74.68Z"/><path class="cls-8" d="M243.54,35.16c-4.88-5.56-15-4.58-17.24-4.67a.75.75,0,0,1-.42-.14c-3.27-2.43-7.45-4.08-11.15-3.58h0c-.88,1-1.72,2-2.54,3.05a14.09,14.09,0,0,1,3.4-.9,15,15,0,0,1,1.62-.11,13,13,0,0,1,8.14,3,.65.65,0,0,0,.45.17c.11,0,10.74.09,15.75,5.81a10.88,10.88,0,0,1,2.59,7.92.74.74,0,0,1-.74.72l-42.81.06c-.39.51-.78,1-1.18,1.51l45.36-.08a.76.76,0,0,0,.75-.65C246.05,43.08,246,37.91,243.54,35.16Z"/><path class="cls-4" d="M232.44,168.92h0a.3.3,0,0,1,0-.41l3.36-2.78a.3.3,0,0,1,.41,0h0a.3.3,0,0,1,0,.41L232.85,169A.3.3,0,0,1,232.44,168.92Z"/><path class="cls-2" d="M264.27,150.48s8.71,8.23,7.9,11.34a6.16,6.16,0,0,1-3.92,4.05Z"/><path class="cls-4" d="M267.72,157.74a2.08,2.08,0,0,1-.48.16c-1.82.28-3-7.42-3-7.42s3.86,2.61,4.59,3.66C268.86,154.14,269,157,267.72,157.74Z"/><path class="cls-5" d="M267.72,157.74,265.33,154a8.63,8.63,0,0,1,3.53.19S269,157,267.72,157.74Z"/><path class="cls-22" d="M261.42,172.74s-5.26,7.27-6.16,15.54c-.24,2.17,3.79,5.76,6,5.76h14.24l-1.59-2.75s-8-3.81-9.48-3.75c0,0,8.34-7,6.9-12.58C270.61,172.25,261.42,172.74,261.42,172.74Z"/><path class="cls-11" d="M274.17,194l8.57,0a2.54,2.54,0,0,0-2.83-1.81c-2.25.31-3-1.22-4.37-1.37s-1.65.45-1.65.45Z"/><path class="cls-23" d="M269.74,194l8.57,0a2.54,2.54,0,0,0-2.83-1.81c-2.25.31-3-1.22-4.37-1.37s-1.65.45-1.65.45Z"/><path class="cls-2" d="M255.18,152.65S247.26,162,245,162.26s-7.76,3.17-7.76,3.17l.49,1.75s6.71-.6,8.4-1,11-5.38,11.15-7.43S259.87,153.27,255.18,152.65Z"/><path class="cls-4" d="M257.19,152.26a5.9,5.9,0,0,0-3.77,1.47c-1.75,1.55-4.52,4.44-4.52,4.44a7.19,7.19,0,0,0,6.93,5.07C261.42,163.29,260.81,153.11,257.19,152.26Z"/><path class="cls-3" d="M258.94,138.77a2.64,2.64,0,0,0-.68-1.62,2.78,2.78,0,0,1,.16,1.5C258.23,139.22,258.94,138.77,258.94,138.77Z"/><path class="cls-3" d="M258.53,138.16a1.52,1.52,0,0,1,1.51.05,1.21,1.21,0,0,0-1.22.53Z"/><path class="cls-2" d="M256.47,153.91l5,.24-.38-3.67a10.64,10.64,0,0,1-2.09-2.64,13.23,13.23,0,0,1-1.2-2.66l-3.05,3.53a7.21,7.21,0,0,1,.51.82,6.75,6.75,0,0,1,.77,2.09C256.15,152.3,256.27,153,256.47,153.91Z"/><path class="cls-7" d="M256,151.62c2.17-.94,3-3.78,3-3.78l-3.74,1.69A6.75,6.75,0,0,1,256,151.62Z"/><path class="cls-2" d="M254.48,150.83s4.84-.62,4.94-4.7c.11-4.41-2.79-6.42-4.35-6-3.11.84-4.37,2.66-4.4,4.07S251.82,151.19,254.48,150.83Z"/><path class="cls-3" d="M250.77,143.52c-1.12.56-2.5,0-1.92-2.35.53-2.15,5.07-4.36,7.83-3.66,7.61,1.91,5.06,7.9,3,10.29a.82.82,0,0,1-1.05.15c-.69-.43-1.76-1.19-1.76-1.67,0-.72-.56-2.24-1.25-1.59S251.88,143,250.77,143.52Z"/><path class="cls-10" d="M257.59,172.74s-7.77,9-8.67,17.27a3.72,3.72,0,0,0,3.75,4h18a3.51,3.51,0,0,0-.17-1.61,6.58,6.58,0,0,0-1-1.14s-11.57-3.7-13.09-3.63c0,0,14.57-7.28,12.83-12.17C268.26,172.85,257.59,172.74,257.59,172.74Z"/><path class="cls-4" d="M271.84,176.5a19.49,19.49,0,0,1-10.31.29,21.66,21.66,0,0,1-6.57-2.72s-3.81-17.32-.6-21c0,0,7.11-4.13,9.91-2.58a38.21,38.21,0,0,1,4.28,8.91A59.94,59.94,0,0,1,271.84,176.5Z"/><path class="cls-2" d="M238.08,165.44s-2.36-.87-3.27-.21-2,2.61-1.62,2.61c.55,0,1.67-1.24,2.17-1.09s-1.44.85-1.14,1,.81-.2,1.32-.15a2.36,2.36,0,0,0,1.53-.2,6.93,6.93,0,0,1,2-.38Z"/><path class="cls-5" d="M271.84,176.5a19.49,19.49,0,0,1-10.31.29c7.59-3,7-17.4,7-17.4A59.94,59.94,0,0,1,271.84,176.5Z"/><path class="cls-5" d="M127.54,172.22h0a.24.24,0,0,0,0-.35l-2.92-2.42a.25.25,0,0,0-.35,0h0a.25.25,0,0,0,0,.35l2.92,2.42A.24.24,0,0,0,127.54,172.22Z"/><path class="cls-2" d="M99.9,156.21s-7.56,7.15-6.86,9.85a5.37,5.37,0,0,0,3.41,3.52Z"/><path class="cls-20" d="M96.9,162.51a1.81,1.81,0,0,0,.43.15c1.57.23,2.57-6.45,2.57-6.45a26.63,26.63,0,0,0-4,3.18S95.76,161.84,96.9,162.51Z"/><path class="cls-7" d="M107.74,189c.19,1.9-3.31,5-5.21,5H90.16l.51-.89.88-1.49s4.54-2.17,7-3a4,4,0,0,1,1.26-.29s-7.24-6.12-6-10.94c.61-2.34,8.58-1.92,8.58-1.92S106.94,181.86,107.74,189Z"/><path class="cls-13" d="M90.67,193.15l.88-1.49s4.54-2.17,7-3a4.28,4.28,0,0,0,3,1.82C103.41,190.69,93.53,192.61,90.67,193.15Z"/><path class="cls-16" d="M91.31,194l-7.45,0a2.21,2.21,0,0,1,2.46-1.57c2,.27,2.57-1.06,3.8-1.19s1.43.39,1.43.39Z"/><path class="cls-20" d="M95.15,194l-7.44,0a2.2,2.2,0,0,1,2.45-1.57c2,.27,2.57-1.06,3.8-1.19s1.44.39,1.44.39Z"/><path class="cls-2" d="M107.8,158.09s6.87,8.15,8.82,8.35,6.74,2.75,6.74,2.75l-.43,1.52s-5.82-.52-7.29-.87-9.57-4.68-9.68-6.46S103.73,158.63,107.8,158.09Z"/><path class="cls-20" d="M106.05,157.75a5.11,5.11,0,0,1,3.28,1.29c1.51,1.34,3.92,3.85,3.92,3.85a6.24,6.24,0,0,1-6,4.4C102.38,167.34,102.91,158.5,106.05,157.75Z"/><path class="cls-2" d="M106.68,159.19l-4.35.2.33-3.18a9.51,9.51,0,0,0,1.82-2.29,11.91,11.91,0,0,0,1-2.31l2.65,3.07a6.69,6.69,0,0,0-.44.71,6,6,0,0,0-.67,1.81C107,157.79,106.85,158.43,106.68,159.19Z"/><path class="cls-7" d="M107.05,157.2a5.54,5.54,0,0,1-2.57-3.28l3.24,1.47A6,6,0,0,0,107.05,157.2Z"/><path class="cls-2" d="M108.4,156.52s-4.2-.54-4.28-4.09c-.1-3.83,2.42-5.58,3.77-5.21,2.7.72,3.8,2.31,3.83,3.52S110.72,156.83,108.4,156.52Z"/><path class="cls-2" d="M113.23,190.54A3.23,3.23,0,0,1,110,194H94.35a3.27,3.27,0,0,1,.16-1.39,5.2,5.2,0,0,1,.88-1s6.3-2,9.58-2.82a7.57,7.57,0,0,1,1.79-.34s-12.65-6.32-11.14-10.57c.82-2.3,10.09-2.39,10.09-2.39S112.45,183.35,113.23,190.54Z"/><path class="cls-20" d="M110,181.77a22.46,22.46,0,0,1-8.32,4.78,20.13,20.13,0,0,1-9.15,0c-.66-5.75.5-12,1.77-16.67h0c.68-2.53,1.39-4.62,1.84-5.92a34.28,34.28,0,0,1,3.71-7.74c2.45-1.35,8.62,2.23,8.62,2.23C111.3,161.65,110,181.77,110,181.77Z"/><path class="cls-2" d="M122.65,169.2s2-.75,2.84-.18,1.72,2.27,1.41,2.27c-.48,0-1.45-1.08-1.89-.95s1.25.74,1,.9-.71-.18-1.15-.14a2,2,0,0,1-1.32-.17,6.12,6.12,0,0,0-1.78-.33Z"/><path class="cls-13" d="M111.72,149.85s-2.55,3.21-4.75,2.51c0,0-.63-1.07-1.13-.64s0,1,0,1.17-1.26,1.46-1.51,1.26-4.62-1.25-2.85-4.86,4.81-4.62,6.24-4.08S112.36,148.85,111.72,149.85Z"/><path class="cls-14" d="M107.77,194H94.35a3.27,3.27,0,0,1,.16-1.39,5.2,5.2,0,0,1,.88-1s6.3-2,9.58-2.82A6.1,6.1,0,0,0,107.77,194Z"/><path class="cls-13" d="M104.48,146.56s-.52-5.52-2.55-5.29-2.71-1.89-4-1.78-1.92,1.4-3.27,1.13a1.93,1.93,0,0,0-2.26,2.4c.44,1.45-.87,2-.08,3.2s.6,2,.7,3.4,1.3,3.07,2.52,2.23,2.36.55,3.64-.24,1.13-2.62,2.32-2.32S104.48,146.56,104.48,146.56Z"/><path class="cls-16" d="M104.39,145.89a4,4,0,0,1-2.91,3.4s1.92.34,2.73-.77A3,3,0,0,0,104.39,145.89Z"/><path class="cls-16" d="M99.31,187a19.07,19.07,0,0,1-6.74-.41c-.66-5.75.5-12,1.77-16.67C94.3,170.55,95,185.4,99.31,187Z"/><path class="cls-5" d="M90.63,66.48c-.56.1-1.12.22-1.69.34.18,2.43,0,7.1-.75,8.85-1.8,4.49-3.84,6.72-10.36,11l-.7.32.31.71c0,.15,5.16,12-3.53,18.61s-21.94-.44-22.07-.53l-.71-.45-.43.73c-.06.1-6,10-14.24,11.84a11.46,11.46,0,0,1-2.39.28c-.21.55-.4,1.1-.59,1.64A23.66,23.66,0,0,0,40,119c8.61-3.47,10.11-9,11.67-11.42,3.06,1.76,15.2,8,23.74,1.52s4.89-18.26,3.8-21.31c5.5-2.77,9.65-4.74,11.32-9.46C91.86,74.59,91.26,69.53,90.63,66.48Z"/><path class="cls-5" d="M371.22,163.66a23,23,0,0,1-4.87-4.12c-2.83-4-3.75-7-4-14.2-.57-.9-1.14-1.8-1.69-2.71-3.11-.75-13.06-3.92-13.9-13.8-.43-5.19,2.09-9.6,5-12.9,0-1.15.05-2.35.15-3.58-4.46,3.55-9.16,9.05-8.56,16.2.94,11.31,13.73,15,17.11,15.83-.66,6.55-1.26,11.44,2,15.68,2.24,2.87,6.11,5,9.14,6.39A25,25,0,0,0,371.22,163.66Z"/><path class="cls-5" d="M349.82,194.74l-1,0c0-.07-.68-7.11-3.9-11.31-2.16-2.81-1.81-4.91-.87-5.86a2.76,2.76,0,0,1,3.73.08C350.49,179.74,349.9,193.21,349.82,194.74Zm-4.37-16.81a1.29,1.29,0,0,0-.68.36c-.72.72-.7,2.4,1,4.55a20.77,20.77,0,0,1,3.21,7.07c0-5-.46-10.46-1.75-11.45A2.31,2.31,0,0,0,345.45,177.93Z"/><path class="cls-5" d="M350.56,183.15A1.81,1.81,0,0,1,353,183c.63.6.89,2-.48,3.85-2.06,2.81-2.4,7.44-2.4,7.49h-.66C349.4,193.37,348.82,184.54,350.56,183.15Zm.41.51c-.83.66-1,4.24-1,7.53a13.42,13.42,0,0,1,2-4.68c1.05-1.44,1-2.54.56-3a.91.91,0,0,0-.46-.23A1.49,1.49,0,0,0,351,183.66Z"/><path class="cls-5" d="M349,185.19c-.46-4.7,4.07-8.12,4.26-8.28l.24.16s-3.68,3.94-3.28,8Z"/><path class="cls-6" d="M353.44,176.38c.08,0-.29-2.49-1.62-2S351.37,176.59,353.44,176.38Z"/><path class="cls-6" d="M353.84,176.39c0,.07,2.05-1.44,1-2.39S352.66,174.67,353.84,176.39Z"/><path class="cls-6" d="M354.25,176.46c-.05.06,1.94,1.57,2.58.32S355.58,174.85,354.25,176.46Z"/><path class="cls-6" d="M354,176.59c-.07,0-1.19,2.2.17,2.59S355.85,177.6,354,176.59Z"/><path class="cls-6" d="M353.62,176.63c0-.07-2.49-.24-2.33,1.16S353.39,178.71,353.62,176.63Z"/><path class="cls-5" d="M245.19,174c-1.13-1.14-2.93-1.09-4.5.1-1,.74-1.57,2.67-2,5.07a15.11,15.11,0,0,0-4.58-6l-.3.19c.05,0,3.46,3.7,4,7.91a2.08,2.08,0,0,0-.46-.57,2.18,2.18,0,0,0-3-.13c-.76.73-1.07,2.39.58,4.65,2.48,3.39,2.9,9,2.9,9h.35c0,.18,0,.33,0,.44l1.2,0c0-.08.82-8.58,4.71-13.66C246.75,177.71,246.33,175.17,245.19,174ZM238,190.45a16.28,16.28,0,0,0-2.43-5.65c-1.27-1.74-1.25-3.07-.67-3.62a1,1,0,0,1,.55-.28,1.84,1.84,0,0,1,1.36.45C237.85,182.16,238.1,186.48,238,190.45Zm5.16-10.08a25,25,0,0,0-3.89,8.53c0-6.05.56-12.63,2.11-13.81a2.72,2.72,0,0,1,2.09-.64,1.49,1.49,0,0,1,.83.43C245.2,175.74,245.19,177.77,243.2,180.37Z"/><path class="cls-6" d="M233.86,172.57c-.09,0,.36-3,2-2.46S236.37,172.82,233.86,172.57Z"/><path class="cls-6" d="M233.39,172.58c-.06.08-2.47-1.73-1.22-2.89S234.81,170.5,233.39,172.58Z"/><path class="cls-6" d="M232.9,172.66c.06.07-2.35,1.91-3.12.39S231.28,170.73,232.9,172.66Z"/><path class="cls-6" d="M233.17,172.82c.08,0,1.43,2.65-.2,3.13S231,174,233.17,172.82Z"/><path class="cls-6" d="M233.66,172.87c0-.09,3-.29,2.81,1.4S233.93,175.38,233.66,172.87Z"/><rect class="cls-24" x="25.83" y="194.04" width="348.34" height="0.96" rx="0.41"/></svg>