<svg id="レイヤー_1" data-name="レイヤー 1" xmlns="http://www.w3.org/2000/svg" viewBox="0 0 200 200"><defs><style>.cls-1{opacity:0.2;}.cls-2{fill:#b3b3b3;}.cls-3{fill:#666;}.cls-4{fill:#fff;}.cls-5{fill:#a2a2a2;}.cls-6{fill:#787878;}.cls-7{fill:#ebebeb;}.cls-8{fill:#e6e6e6;}.cls-9{fill:#b6b6b6;}.cls-10{fill:gray;}.cls-11{fill:#1a1a1a;}.cls-12{fill:#333;}.cls-13{fill:#7a7a7a;}.cls-14{fill:#999;}.cls-15{fill:#4d4d4d;}.cls-16{fill:#ccc;}.cls-17{fill:#f2f2f2;}</style></defs><g class="cls-1"><path class="cls-2" d="M183.45,163.71H16.57a.56.56,0,0,0-.57.51.54.54,0,0,0,.55.58h166.9a.55.55,0,0,0,.55-.55h0A.55.55,0,0,0,183.45,163.71Z"/><circle class="cls-3" cx="74.51" cy="50.28" r="8.99" transform="translate(-14.01 34.67) rotate(-24.01)"/><circle class="cls-3" cx="74.51" cy="50.28" r="8.76" transform="translate(-9.09 17.25) rotate(-12.45)"/><circle class="cls-4" cx="74.52" cy="50.32" r="7.15" transform="translate(-12.58 72.64) rotate(-48.4)"/><path class="cls-4" d="M77.13,56.54a6.78,6.78,0,1,1,3.63-8.88A6.81,6.81,0,0,1,77.13,56.54Z"/><path class="cls-3" d="M69,52.22l-1.12.47a.36.36,0,0,0-.2.47.37.37,0,0,0,.48.2l1.12-.47a.37.37,0,0,0,.19-.48A.36.36,0,0,0,69,52.22Z"/><path class="cls-3" d="M76.64,55.36a.37.37,0,0,0-.2.48L76.91,57a.37.37,0,0,0,.48.19.36.36,0,0,0,.19-.47l-.47-1.12A.36.36,0,0,0,76.64,55.36Z"/><path class="cls-3" d="M80.9,47.21l-1.12.47a.37.37,0,0,0-.19.48.36.36,0,0,0,.47.19l1.12-.47a.36.36,0,0,0,.2-.47A.37.37,0,0,0,80.9,47.21Z"/><path class="cls-3" d="M71.63,43.42a.36.36,0,0,0-.19.47L71.91,45a.36.36,0,0,0,.47.2.37.37,0,0,0,.19-.48l-.46-1.12A.37.37,0,0,0,71.63,43.42Z"/><rect class="cls-3" x="74.3" y="38.71" width="1.85" height="2.06" rx="0.21" transform="translate(30.31 111.99) rotate(-85.98)"/><rect class="cls-3" x="65.56" y="42.47" width="2.06" height="1.85" rx="0.21" transform="translate(-9.66 65.84) rotate(-49.5)"/><rect class="cls-3" x="68.97" y="38.96" width="2.5" height="1.44" rx="0.21" transform="translate(-9.88 30.23) rotate(-22.74)"/><path class="cls-3" d="M70,41.09a2.26,2.26,0,1,1,1.31-.55l.22.51a2.78,2.78,0,1,0-1.31.55Z"/><path class="cls-3" d="M71,41.82c.23-.09.45-.18.68-.25l-.57-1.37L70,40.65,70.57,42Z"/><path class="cls-5" d="M75.12,50a.66.66,0,0,1-1.22.51A.66.66,0,1,1,75.12,50Z"/><path class="cls-5" d="M75.21,44.88l-.47,5.42a.23.23,0,0,1-.27.22.25.25,0,0,1-.23-.26S74.2,50.47,75.21,44.88Z"/><path class="cls-5" d="M79.28,53l-4.87-2.44a.25.25,0,0,1-.11-.33.26.26,0,0,1,.34-.11Z"/><path class="cls-5" d="M74.76,50.17a.28.28,0,0,1-.15.35.27.27,0,0,1-.35-.14A.28.28,0,0,1,74.4,50,.28.28,0,0,1,74.76,50.17Z"/><path d="M141.42,89.23a.25.25,0,0,0-.27-.08,3.86,3.86,0,0,1-1.76-.22l-.47-2.29a4,4,0,0,1,1.54-.88.26.26,0,0,0,.22-.18l.59-1.74a.27.27,0,0,0-.07-.27,3.87,3.87,0,0,1-.7-1.63l1.76-1.55a3.76,3.76,0,0,1,1.53.89.26.26,0,0,0,.26.1l1.81-.36a.27.27,0,0,0,.2-.2,3.81,3.81,0,0,1,1.06-1.41l2.22.74a3.7,3.7,0,0,1,0,1.78.27.27,0,0,0,0,.27l1.22,1.38a.24.24,0,0,0,.26.08,3.78,3.78,0,0,1,1.77.21l.46,2.3a3.88,3.88,0,0,1-1.54.88.26.26,0,0,0-.22.17L150.75,89a.25.25,0,0,0,.06.27,3.87,3.87,0,0,1,.7,1.63l-1.76,1.55a3.79,3.79,0,0,1-1.53-.9.25.25,0,0,0-.26-.09l-1.8.36A.27.27,0,0,0,146,92a3.66,3.66,0,0,1-1.06,1.42l-2.22-.75a3.66,3.66,0,0,1,0-1.77.25.25,0,0,0-.05-.27Zm5-.57a2.31,2.31,0,1,0-2.71-1.8A2.31,2.31,0,0,0,146.46,88.66Zm.3,1.45a3.79,3.79,0,1,0-4.46-3A3.79,3.79,0,0,0,146.76,90.11Z"/><path class="cls-6" d="M156.32,97.44a.19.19,0,0,1,.16-.15l1.43-.29a.19.19,0,0,1,.2.08,3,3,0,0,0,1.22.71l1.39-1.23a3,3,0,0,0-.56-1.29.25.25,0,0,1,0-.22l.47-1.38a.21.21,0,0,1,.17-.14,3,3,0,0,0,1.22-.69L161.6,91a3,3,0,0,0-1.39-.17.2.2,0,0,1-.21-.06l-1-1.09a.22.22,0,0,1,0-.22,3.05,3.05,0,0,0,0-1.41l-1.75-.59a3.07,3.07,0,0,0-.85,1.13.22.22,0,0,1-.16.15l-1.43.29a.23.23,0,0,1-.2-.08,3,3,0,0,0-1.22-.71L152,89.49a3,3,0,0,0,.56,1.29.23.23,0,0,1,.05.21l-.47,1.38a.19.19,0,0,1-.17.14,3.17,3.17,0,0,0-1.22.7l.37,1.82a3,3,0,0,0,1.39.16.23.23,0,0,1,.22.07l1,1.09a.22.22,0,0,1,0,.22,2.88,2.88,0,0,0,0,1.4l1.76.59A2.93,2.93,0,0,0,156.32,97.44Zm.49-2.19a2.27,2.27,0,1,1,1.78-2.68A2.28,2.28,0,0,1,156.81,95.25Z"/><path class="cls-7" d="M55.88,68.56,54.3,68l-1.4,1a.23.23,0,0,1-.36-.2l.08-1.7-1.36-1a.24.24,0,0,1,.08-.41L53,65.15l.56-1.6a.23.23,0,0,1,.41,0l.93,1.41,1.7,0a.24.24,0,0,1,.18.38L55.7,66.65l.49,1.63A.23.23,0,0,1,55.88,68.56Z"/><polygon class="cls-8" points="58.31 58.42 57.45 56.11 55.24 56.77 54.29 54.52 52.1 54.89 51.12 53.33 50.33 53.83 51.65 55.92 53.72 55.57 54.71 57.9 56.88 57.25 57.66 59.35 58.31 58.42"/><polygon class="cls-8" points="151.06 69.09 148.89 67.9 147.65 69.84 145.47 68.77 144.05 70.48 142.28 69.94 142.01 70.84 144.38 71.56 145.72 69.93 147.99 71.05 149.21 69.14 151.17 70.22 151.06 69.09"/><polygon class="cls-9" points="93.92 39.9 92.99 42.19 95.06 43.19 94.25 45.49 96.11 46.69 95.78 48.51 96.7 48.68 97.14 46.24 95.38 45.1 96.22 42.71 94.19 41.73 95.03 39.65 93.92 39.9"/><polygon points="148.57 98.96 148.12 98.06 147.09 98.1 146.65 97.06 145.57 97.43 145.02 96.27 143.98 96.49 143.27 95.47 143.66 95.2 144.19 95.97 145.29 95.73 145.82 96.84 146.92 96.46 147.4 97.61 148.41 97.58 148.83 98.41 149.48 98.25 149.59 98.71 148.57 98.96"/><polygon points="129.6 57.36 129.12 55.94 131.33 54.91 130.89 52.74 132.42 51.7 131.89 50.93 129.85 52.31 130.27 54.37 127.97 55.44 128.69 57.59 129.6 57.36"/><path class="cls-3" d="M147.31,54.07c2.44,3.73-.87,8.9-5.22,8.13a3.28,3.28,0,0,0-2.29.47l-2.4,1.48a1.39,1.39,0,0,1-1.91-.4l-.92-1.42a1.57,1.57,0,0,1,.31-2c2.18-1.86,3.1-2.38,3.39-3.94C139.12,51.8,144.88,50.35,147.31,54.07Z"/><path class="cls-5" d="M141.59,56.12a4.4,4.4,0,0,1-.12-.65c-.11-1.31.9-1.76,1.43-1.42a1,1,0,0,1,.28,1.19,3,3,0,0,1-.94,1.06,6.24,6.24,0,0,0,1,2c1.18-.72,2-.33,2.09.32a1.06,1.06,0,0,1-.64,1c-.24.1-.86.25-1.59-.57-2,1.42-4.62,3.51-4.63,3.51l-.33-.46s2.61-2.08,4.6-3.49a6.85,6.85,0,0,1-1-1.89c-2.29,2-4.3,3.57-4.37,3.63l-.33-.47C137.2,59.77,139.15,58.26,141.59,56.12Zm1-1.58c-.18-.07-.65.12-.46,1.14C142.62,55.21,142.78,55,142.55,54.54Zm1,4.19c.29.31.74.58,1,.25S144.44,58.25,143.57,58.73Z"/><path class="cls-10" d="M139.86,62.64l-.06,0-2.4,1.48a1.39,1.39,0,0,1-1.91-.4l-.92-1.42a1.57,1.57,0,0,1,.31-2c1-.82,1.69-1.39,2.22-1.9Z"/><path class="cls-6" d="M32.09,132.58s-.07-.38-.09-.51,0-.61,0-.61a7,7,0,0,1,.12-1.58c.11,0,.27.28.3.38s.09.21.12.31a.21.21,0,0,0,.26.12c.13,0,.08-.46,0-.6a16.86,16.86,0,0,0-.84-1.67c-.08-.14.43-2.91.53-3.87h0c.21-1.57.5-3.17.53-3.34L35.8,115l-1.86-1.9s-3.2,6.81-3.32,7.17c-.06.17-.26,3.84-.26,3.84,0,1.82,0,3.42,0,3.73,0,0-.26.91-.46,1.49a5.23,5.23,0,0,0-.19,1.35,3.63,3.63,0,0,0-.05,1.32c.08.63.29,0,.29,0a5,5,0,0,1,.15-1.16c.07,0,0,.66.09,1.35,0,.18,0,.35.07.51,0,.43.33.51.34.06a3.29,3.29,0,0,0,0-.62,3.55,3.55,0,0,1,0-.57,4.37,4.37,0,0,1,0-.6s.07-.06.1.13a8.86,8.86,0,0,0,.08,1c0,.19.11.58.11.58a3.94,3.94,0,0,0,.22.63c.21,0,.21-.5.11-.74a3,3,0,0,0-.06-.6s0-.88.14-.88.47,2.1.67,2.08S32.09,132.58,32.09,132.58Z"/><path class="cls-11" d="M34.67,118.61a13.31,13.31,0,0,1-1.78-.43,14.46,14.46,0,0,1-1.36-.57,38.11,38.11,0,0,1,2-6.2c.47-1,.94-1.43,1.59-1.54A3.54,3.54,0,0,1,36.47,113C36.46,113.47,34.67,118.61,34.67,118.61Z"/><path class="cls-6" d="M38.23,131.57l1.51,13.83a20.47,20.47,0,0,0-.65,3.75c.09.83,1.63,11.73,1.63,11.73l-.06.62v1.8h5.73a25.14,25.14,0,0,1-2.92-1.67,1.22,1.22,0,0,1-.48-.87c-.46-3.36.44-14.56.44-14.56l.71-14.59Z"/><path class="cls-6" d="M33.62,134.47c-.32.09-.82,12-1.09,12.51-1.7,3.34-2.1,13.5-2.1,13.5l-.5,1.45-.53,1.77a4.31,4.31,0,0,0,2.59,0l-.1-1.75-.09-1.6,4.29-12.66,2.35-12.91Z"/><path class="cls-12" d="M42.16,111.44a21.85,21.85,0,0,0-3.87-3.79c-.92,0-4,0-4.55.33v.66a35.9,35.9,0,0,0,1.14,8.81,24.13,24.13,0,0,1,1,4.91h0a4.11,4.11,0,0,0,6.13-.3h0a38.53,38.53,0,0,1,.24-4.07C42.61,115,43.88,113.86,42.16,111.44Z"/><path class="cls-6" d="M37.36,104.62a16.54,16.54,0,0,1-.09,2.74c-.18.75-.41.81,1.08,1,.58.09,1.14.23,1.14.23s-.15-1.11-.17-1.57c0-.77.17-3.14.17-3.14Z"/><path class="cls-12" d="M38.49,105.61a2.6,2.6,0,0,0,.85.31c0-.93.15-2,.15-2l-2,.68A2.66,2.66,0,0,0,38.49,105.61Z"/><path class="cls-6" d="M37.83,99.07a2.6,2.6,0,0,0-1.32,1.24c-.46.93-.64,3.56,1.21,4.58a2.31,2.31,0,0,0,2.46.16c.51-.45.44-1.47.39-2.31C40.47,101.07,40.11,98.54,37.83,99.07Z"/><path class="cls-6" d="M36.47,102.37c.11.44,0,.86-.31.94s-.59-.2-.69-.64,0-.86.31-.94S36.37,101.93,36.47,102.37Z"/><path class="cls-12" d="M31.89,161.9a2.78,2.78,0,0,1-2,0l-.54,1.78a4.32,4.32,0,0,0,2.6,0Z"/><path class="cls-12" d="M32.64,141.54Z"/><path class="cls-12" d="M40.6,163.75h6a.21.21,0,0,0,.2-.32c-.16-.24-.85-.41-1.64-.78a9.37,9.37,0,0,1-4.46-1.16A6.74,6.74,0,0,0,40.6,163.75Z"/><path class="cls-13" d="M52.58,115.94c.11-.16.5-.94.5-.94a8.54,8.54,0,0,0,.32-1.33s-.22.2-.41.61c-.12.25-.26.68-.38.9s-.46.53-.4.39.19-.2.32-.42c.32-.55.6-1.46.48-1.44a9.41,9.41,0,0,0-.76,1.12,3.26,3.26,0,0,1-.83.64,1,1,0,0,1,0-.29c0-.11.51-.73.32-.81s-1.31,1.28-1.31,1.28l-.46.79,0,0h0s-5.63,2.2-5.82,2.14c-.44-.14-1.95-4.52-1.95-4.52l-3.15.57s3.31,6.52,3.94,6.84,6.39-2.76,7.49-3.42a4.8,4.8,0,0,0,2.35-1.62c.13-.19.64-1,.64-1a5,5,0,0,0,0-1.16c-.27,0-.35,1-.35,1s-.38.51-.44.57S52.58,115.94,52.58,115.94Z"/><path class="cls-11" d="M37,110.27c-.43,1.82,1.86,5.88,1.86,5.88a21.45,21.45,0,0,0,3.84-2.27l-2.39-3.95c-.3-.53-1.36-1.61-2.07-1.41C37.81,108.65,37,110.27,37,110.27Z"/><path class="cls-2" d="M37.55,105.79c.24-1.68,3-5.08,1.94-6.5-.86-1.15-2.37-.81-3.33-.48-4.36,1.5-4.11,7-5.49,7.84-2.49,1.56-4,2.53-4.21,6-.21,4.15,3.31,6.27,7.55,5.25,2.29-.54,2.89-1.29,3.8-3.44a14.24,14.24,0,0,0,1-5.48C38.63,107.69,37.35,107.13,37.55,105.79Z"/><path class="cls-6" d="M39.21,102.72c0,.5-.18.9-.4.9s-.4-.4-.4-.9.17-.89.4-.89S39.21,102.23,39.21,102.72Z"/><path class="cls-3" d="M44.67,140.56l.21-8.2a16.33,16.33,0,0,0-1.35-6.73L42,122.07a9.83,9.83,0,0,1-1.87.46,18.48,18.48,0,0,1-4.27-.17.78.78,0,0,0,0,.14c-.26,1.21-1.7,3.91-2.31,7.59A76.71,76.71,0,0,0,32.65,141C39.24,141.31,40.81,141.55,44.67,140.56Z"/><path class="cls-14" d="M126.77,99.48l5,5s9.45,3.69,10.51,6-1,2.17-3.17,1.85-8.5-4.22-8.5-4.22l-5.76-6.65Z"/><path class="cls-3" d="M141.29,109.42l-1.22-.44-2.38,1.11a5.34,5.34,0,0,0-1.82,2.89c-.6,2.06,0,14.38,1,16.36S141.29,109.42,141.29,109.42Z"/><path class="cls-6" d="M149.09,158.81s.87.56.94.82.71,3.06.48,3.38-1.12.17-.78.41a6.17,6.17,0,0,0,3,0c.31-.09.16-2.7.21-3.1.07-.58.47-1.89.22-2.24a5.22,5.22,0,0,0-1.41-.7,5.13,5.13,0,0,1-1.36-1Z"/><path class="cls-14" d="M151.68,157.39s-.52,5-1.12,5.33c-.16.1-1,.17-1.09.58,0,0,0,.42.24.43h3.22s0-2.45,0-3.4a13.69,13.69,0,0,0,.3-2.63A5.65,5.65,0,0,0,151.68,157.39Z"/><path class="cls-6" d="M161.68,158.81s.88.56.95.82.71,3.06.47,3.38-1.12.17-.78.41a6.17,6.17,0,0,0,3,0c.31-.09.17-2.7.21-3.1.07-.58.47-1.89.23-2.24a5.39,5.39,0,0,0-1.41-.7,5,5,0,0,1-1.36-1Z"/><path class="cls-11" d="M145.88,126.54s2.94,5.85,3.54,7.42l4.49,11.37L163.79,157s-.72,1.86-1.81,2.37c0,0-11.93-9.63-12.91-11.15-1.49-2.31-8.3-16.47-8.3-16.47L139.51,129Z"/><path class="cls-12" d="M138.76,126.48l.05,5s-2.13,16.27-1.71,17.24c1,2.35,12.06,10.35,12.06,10.35l1.51-2.59-7.95-8.87,3-8.64c.84-2,2.63-5.88,2.59-8.05,0-1.87-3.74-6.19-3.74-6.19Z"/><path class="cls-14" d="M143.28,133.85c2.93-.67,5.3-1.71,5.55-2.52.11-.37-1.53-4.09-2.73-9.05-.39-1.62-.32-3.15-.95-8.82-.13-1.21-.63-3.73-2.5-4.38a2.74,2.74,0,0,0-1-.2,9.66,9.66,0,0,0-3.45.62c-.26.36-1.26,2.34-1.52,7.72-.12,2.35-.58,9.9-.49,11.13,0,.18,0,.36.06.53A6,6,0,0,0,143.28,133.85Z"/><path class="cls-6" d="M138.1,113.18h0c1.19-.13,4.2-4.07,4.2-4.07h0l-1.85-2.94s-2.73.5-2.2,1.33a9.78,9.78,0,0,1,.84,2.83.59.59,0,0,0,0,.08A10,10,0,0,0,138.1,113.18Z"/><path class="cls-15" d="M138.25,107.49c-.53-.83,2.2-1.32,2.2-1.32l.15.24a1.66,1.66,0,0,1-.07.56,3.65,3.65,0,0,1-1.74,1.92A5.38,5.38,0,0,0,138.25,107.49Z"/><path class="cls-6" d="M138.91,101.52c.06,0,2.13,3.35,1.63,4.76s-2.17,2.52-3.16,2-2.77-4.46-1.76-6.12S138.91,101.52,138.91,101.52Z"/><path class="cls-3" d="M135.91,100a7,7,0,0,1,4.62,1,3.2,3.2,0,0,1,.88,4.18,2.49,2.49,0,0,0-.27,2.13s-2.12-.13-2.55-1.57c-.18-.61,0-1-.36-1.36a6.54,6.54,0,0,1-.89-1.64s-1.37-.73-1.89-.13C135.27,102.77,134.34,100.33,135.91,100Z"/><path class="cls-6" d="M138,104.6c.19.44.55.71.81.61s.32-.56.13-1-.55-.72-.8-.61S137.83,104.15,138,104.6Z"/><path class="cls-14" d="M164.28,157.4s-.52,5-1.13,5.32c-.16.1-1,.17-1.08.58,0,0,0,.43.23.42h3.22s0-2.45,0-3.4a13.69,13.69,0,0,0,.3-2.63A5.48,5.48,0,0,0,164.28,157.4Z"/><path class="cls-12" d="M93.2,134.48c-2.55-5.34-3.25-13.32-.47-19.64,4.7-10.68,17.61-15,16.66-27.14a9.8,9.8,0,0,0-3.59-7.08c-5.26-4.15-13.72-2-19.75.95A37.67,37.67,0,0,0,75.3,89.45L73.62,68.07a49.59,49.59,0,0,1,24.77-8.52c17.94-1.4,31.78,5.32,33.19,23.26,1.29,16.36-9.77,23.61-17.18,31.79-4.12,4.54-5.05,8-4.73,12.09a12.81,12.81,0,0,0,2.21,6.32Zm12.88,29.23c-17.43,1.37-19.45-22.05-1.84-23.43C121.59,138.91,123.45,162.34,106.08,163.71Z"/><path class="cls-13" d="M124.11,100.56a3.47,3.47,0,0,0-.14-1.18,2.14,2.14,0,0,0-.42-.87,2.23,2.23,0,0,0-.4-.35.2.2,0,0,0-.31.19c0,.11.24.49.28.59s.06.38,0,.47a11.23,11.23,0,0,1-1.63-1.71,6.5,6.5,0,0,1-.24-.66s-.13-.39-.28-.29-.21.39.08,1,.6,1,.56,1-.73-.66-.73-.66a3.31,3.31,0,0,0-.37-.57c-.09-.28-.26-.62-.44-.49a3.88,3.88,0,0,0,.08.62s.22.39.32.59.54.75.66,1,0,.14,0,.16a4.19,4.19,0,0,1-.42-.49,5.3,5.3,0,0,1-.41-.49,4.27,4.27,0,0,0-.41-.56c-.32-.38-.5-.12-.25.29l.3.49c.42.67.92,1.18.87,1.25s-.93-.92-.93-.92-.62-.41-.25.19a6.29,6.29,0,0,0,.9,1.17,6.13,6.13,0,0,0,1.1,1.08c.57.36,1.49.9,1.49.9s.37.55.75,1.13l1.37-1.65A10.57,10.57,0,0,1,124.11,100.56Z"/><path class="cls-9" d="M123,102.9l1.9-1.67,6.53,6.45,10.13.89.41.13c3.67,1.26,2.16,4.25,1.45,4.72-1.65,1.08-10.78.43-13.71-1.39C127.32,110.54,123,102.9,123,102.9Z"/><path class="cls-13" d="M55,112.13a2.65,2.65,0,0,0,.21.54,20.8,20.8,0,0,0,2,2.82l1.08-2.58s-.18-.81-.48-2A6.1,6.1,0,0,0,55,112.13Z"/><path class="cls-14" d="M61.14,109.9s-6,2.75-6.17,2.69a17.65,17.65,0,0,1-2.48-8.1c0-1.8,1.75-4,3.71-3.55,1,.22,1,.51,2.43,2.78A27,27,0,0,1,61.14,109.9Z"/><path class="cls-6" d="M66.24,159.16l-.14,2.51c0,.32-.26,1.1-.26,1.39,0,1.09,4.84-.92,3.75-1.4-.1,0-.61-.38-.64-.75,0-.57-.18-1.72-.18-1.72Z"/><path class="cls-9" d="M69.58,161.65a16.56,16.56,0,0,1-1.72.41c-.58.09-1.34-.61-1.75-.42s-.44,2.08-.44,2.08,6.09.53,7.8,0C74.15,163.48,71.9,162.42,69.58,161.65Z"/><path class="cls-6" d="M56.35,159.16l-.14,2.51c-.05.32-.26,1.1-.26,1.39,0,1.09,4.84-.92,3.75-1.4-.09,0-.76-.62-.79-1,0-.57,0-1.48,0-1.48Z"/><path class="cls-9" d="M59.69,161.65a16.85,16.85,0,0,1-1.71.41c-.59.09-1.35-.61-1.76-.42s-.47,2.08-.47,2.08,6.11.62,7.83,0C64.25,163.45,62,162.42,59.69,161.65Z"/><path class="cls-6" d="M57.83,113.52l4.26-6.36c0-.06.06-.17.11-.35.22-.63.66-1.94,1-3.25h0c.12-.46.38-1.26.63-2s.62-1.92.63-2.1l0-.16A13.91,13.91,0,0,1,64,97.35c-.05-.29-.1-1,.22-1,.5,0,.26.69.49,1.12a11.72,11.72,0,0,0,.35-1.44l.08-1.35c0-.1-.09-.85.26-.85h0c.32,0,.31.82.44,2.16,0-.15.08-.34.11-.51a5.45,5.45,0,0,1,.11-.71c-.06-.37,0-1,.35-.91.18,0,.17.85.17.85s0,1,0,1.16c0-.29.19-1.54.48-1.54s.26.34.26.6-.16,1.51-.17,1.67c.12-.21.25-1.4.37-1.4.47,0,.3,1.69.13,2.13a1.65,1.65,0,0,0-.06.24,4.58,4.58,0,0,1-.4,1.26c-.3.54-.71,1.4-.77,1.54s-.19,1.24-.37,2.45c-.08.53-.16,1.1-.25,1.69h0c0,.13-.11.54-.45,2.07-.46,2.09-.5,2.18-.52,2.22-.2.38-4.8,7-5,7.31l-.12.17Z"/><path class="cls-12" d="M65.75,98.68s-.35-.94-1-1a.68.68,0,0,1,.64.12A1.38,1.38,0,0,1,65.75,98.68Z"/><path class="cls-6" d="M56.8,96.86l-.55,3.7s2.09,1.78,3.31,1.41c1-.32.32-1.74.32-1.74a10.07,10.07,0,0,1-.38-3C59.67,96.18,56.8,96.86,56.8,96.86Z"/><path class="cls-15" d="M57.2,98a7.91,7.91,0,0,0,2.36.72,5.35,5.35,0,0,1-.06-1.47c.08-.48-.49-.6-1.12-.58-.84.08-1.58.22-1.58.22l-.1.71A1.66,1.66,0,0,0,57.2,98Z"/><path class="cls-6" d="M54.17,92.59c-.09,0,.82,4.13,2.23,4.84s3.52.34,3.91-.77-1.15-5.45-3.14-6S54.17,92.59,54.17,92.59Z"/><path class="cls-16" d="M55.8,88.79A4.69,4.69,0,0,0,54,90.94a3,3,0,0,0-1.47,2.4,3.39,3.39,0,0,0,2.38,3.85,2.29,2.29,0,0,1,1.67,1.45l.14-1.08a4.56,4.56,0,0,0-.79-1.42c-.48-.47.22-1.16.28-1.72s-.25-1.27-.18-2a4.77,4.77,0,0,1,1.57-1.6C58.91,90.31,57.25,87.9,55.8,88.79Z"/><path class="cls-6" d="M56.4,95.14c.18.48.11,1-.17,1.06s-.65-.19-.84-.67-.1-1,.17-1.06S56.21,94.67,56.4,95.14Z"/><path class="cls-13" d="M61.65,113.63l8.22-1.43s-.94-2.51-1.27-2.51-6.21,2.73-6.21,2.73l-.47,1Z"/><path class="cls-2" d="M57.45,119.63a30.91,30.91,0,0,0-.49,7.44c.34,3.2.36,14.59.36,14.59l-1.27,18.21,3,.07s3.59-18.2,3.52-17.74,1.2-12.82,1.2-12.82l-4.27-10.15Z"/><path class="cls-17" d="M58.25,119.43s-.53,3.81.13,5.48,5.73,18.05,5.8,19.38,1.75,16.1,1.75,16.1l3.51-.11.76-16.41-1.59-20.62L67.06,118Z"/><path class="cls-6" d="M56.25,100.56a3.06,3.06,0,0,0,1.68.53,5.4,5.4,0,0,0,2-.86l-.16-.58s-2.09-.32-2.14-.29Z"/><path class="cls-13" d="M65.49,109.56s3.11,3.13,4.51,2.6,2-2.36-1.44-5C65.5,104.73,65.49,109.56,65.49,109.56Z"/><path class="cls-9" d="M67.6,113.43c-.46-2.68-3.81-11-4.08-12.56-.13-.74-1.93-.76-3.65-.66s-3.62.35-3.62.35a5.36,5.36,0,0,0-2.31,1c-.71.71-.89,2.67.12,6.38.8,2.93,1.8,4.54,2.29,6.67.1.71.19,1.42.3,2.25.18,3.19,0,7.4,0,7.4s8.74,1.94,12-1C68.67,123.24,68.07,116.17,67.6,113.43Z"/><path class="cls-14" d="M69.83,107.66s-3.43,3-3.63,3-4.9-3.75-6-6.82c-.61-1.7.66-3.6,2.12-3.6,1,0,1.46.28,3.47,2.09A27.13,27.13,0,0,1,69.83,107.66Z"/><rect class="cls-6" x="108.95" y="39.01" width="12.29" height="12.29" rx="1.65" transform="translate(-5.53 72.24) rotate(-34.08)"/><path class="cls-4" d="M118.51,42.44a4.21,4.21,0,1,1-5.84-1.12A4.21,4.21,0,0,1,118.51,42.44Z"/><path class="cls-12" d="M113.64,43.07,115.37,45a.34.34,0,1,1-.5.46.35.35,0,0,1-.05-.08Z"/><path class="cls-12" d="M115,45l2.61-1.46-2.27,1.94a.31.31,0,0,1-.42,0,.3.3,0,0,1,0-.42Z"/><rect class="cls-5" x="28.91" y="75.52" width="24.91" height="12.96" rx="4.73"/><polygon class="cls-5" points="50.87 83.59 57 86.34 52.89 80.59 50.87 83.59"/><path class="cls-4" d="M37.21,81.58a1.08,1.08,0,1,1-1.08-1A1,1,0,0,1,37.21,81.58Z"/><path class="cls-4" d="M42.21,81.58a1.08,1.08,0,1,1-1.08-1A1,1,0,0,1,42.21,81.58Z"/><path class="cls-4" d="M47.21,81.58a1.08,1.08,0,0,1-2.15,0,1.08,1.08,0,0,1,2.15,0Z"/><polygon class="cls-3" points="105.1 37.75 104.09 35.59 104.93 35.2 105.5 36.42 106.9 35.57 107.38 36.37 105.1 37.75"/><polygon class="cls-12" points="47.88 68.75 45.63 69.55 45.32 68.68 46.59 68.22 45.88 66.75 46.72 66.35 47.88 68.75"/><path class="cls-5" d="M140.8,47c.17.53.33,1.06.5,1.59s.23,1.09.63,1.33a.23.23,0,0,0,.32-.09c.2-.44-.09-1-.23-1.44l-.51-1.59a.37.37,0,0,0-.71.2Z"/><path class="cls-5" d="M146.42,46.46c-.86,2.94-.87,2.85-.81,3.15a.32.32,0,0,0,.53.14c.2-.21.15-.15,1-3.09a.36.36,0,0,0-.7-.2Z"/><path class="cls-5" d="M149.7,53l1.52-.73a3.5,3.5,0,0,0,1.34-.8c.14-.18-.05-.42-.24-.42a3.52,3.52,0,0,0-1.47.58l-1.52.74c-.43.2-.05.83.37.63Z"/><path class="cls-5" d="M148,61.82a25.41,25.41,0,0,0,1.63,2c.32.33.78-.16.49-.5-.54-.65-1.1-1.29-1.63-2-.28-.35-.76.14-.49.49Z"/><path class="cls-5" d="M150,58.39c.47.21,1,.4,1.42.59a3.12,3.12,0,0,0,1.43.4c.25,0,.28-.37.14-.52s-.27-.18-1.31-.58c-.47-.18-.93-.37-1.4-.54s-.65.49-.28.65Z"/></g></svg>