<svg xmlns="http://www.w3.org/2000/svg" viewBox="0 0 200 200"><defs><style>.cls-1{isolation:isolate;}.cls-2{opacity:0.2;}.cls-3{fill:#fd425f;}.cls-4{fill:#e42244;}.cls-5{fill:#110239;}.cls-6{fill:#d0d1de;}.cls-7{fill:#453964;}.cls-8{fill:#f88667;}.cls-9{fill:#e45940;}.cls-10{fill:#00bad1;}.cls-11{fill:#00547a;opacity:0.32;mix-blend-mode:multiply;}.cls-12{fill:#bd1337;}</style></defs><g class="cls-1"><g id="レイヤー_1" data-name="レイヤー 1"><g class="cls-2"><path class="cls-3" d="M155.64,44.92s7,1.55,15,8.56L161,71.1a20.51,20.51,0,0,0-9.89-5.3Z"/><path class="cls-4" d="M157.38,56.1c.84-3.16,1.53-6.35,2.35-9.51a29,29,0,0,0-4.09-1.67L151.11,65.8c2.53-2.19,3.2-1.36,3.64-1.59C155.51,61.5,156.65,58.8,157.38,56.1Z"/><path class="cls-3" d="M117.89,35.32s27.28-2.72,42.43,5.12l-5.57,23.77S141.38,57,119.18,60.1Z"/><rect class="cls-5" x="117.87" y="33.2" width="2.18" height="93.48"/><rect class="cls-5" x="116.2" y="123.85" width="5.52" height="4.39"/><rect class="cls-5" x="114.04" y="127.28" width="9.83" height="2.21"/><path class="cls-6" d="M78.83,74.56V90.14h3.89v-11a2,2,0,0,1,2-2h16.7a2,2,0,0,1,2,2v11h3.89V74.56a2,2,0,0,0-2-2H80.84A2,2,0,0,0,78.83,74.56Z"/><rect class="cls-5" x="29.35" y="84.86" width="127.46" height="81.94" rx="6.83"/><path class="cls-7" d="M156.81,107.69v-16A6.83,6.83,0,0,0,150,84.86H36.18a6.83,6.83,0,0,0-6.83,6.83v16a17.6,17.6,0,0,0,17.59,17.59h92.28A17.59,17.59,0,0,0,156.81,107.69Z"/><rect class="cls-6" x="89.03" y="121.59" width="8.11" height="9.21"/><rect class="cls-5" x="91.77" y="126" width="2.62" height="2.28"/><path class="cls-8" d="M59.83,44.29H55.57s-.62,5.81-1.73,6.5c0,0-1.37,6.86,3.86,6.86,6.33,0,3.86-6.86,3.86-6.86C60.45,50.1,59.83,44.29,59.83,44.29Z"/><path class="cls-9" d="M59.83,44.29H55.57s-.62,5.81-1.73,6.5c0,0-1.37,6.86,3.86,6.86,6.33,0,3.86-6.86,3.86-6.86C60.45,50.1,59.83,44.29,59.83,44.29Z"/><path class="cls-8" d="M63.25,45.42c-.59-.68-1.3.36-1.3.36s1-3.84,0-5.53-4.14-.8-4.14-.8-3.16-.88-4.14.8,0,5.53,0,5.53-.71-1-1.3-.36,1,2.4,1.33,2.6c0,0,2.28,4.26,4.11,4.26S61.92,48,61.92,48C62.27,47.82,63.84,46.1,63.25,45.42Z"/><path class="cls-5" d="M57,41s-2.39.42-2.66,1.7a5.19,5.19,0,0,0,.13,1.92,13.42,13.42,0,0,1,.21,2.12.4.4,0,0,1-.32-.06,4.4,4.4,0,0,1-.8-1c-.46-.67-1.11-.56-1.3-.14,0,0-.53-6.3,2.1-6.53S57,41,57,41Z"/><path class="cls-5" d="M58.57,41s2.4.42,2.66,1.7a5,5,0,0,1-.13,1.92,12.18,12.18,0,0,0-.2,2.12.38.38,0,0,0,.31-.06,4.45,4.45,0,0,0,.81-1c.45-.67,1.11-.56,1.3-.14,0,0,.53-6.3-2.11-6.53S58.57,41,58.57,41Z"/><path class="cls-5" d="M62.52,39.91a2.92,2.92,0,0,0-1.73-2.09,7.92,7.92,0,0,0-5.08-.31c-3.35.85-3.4,4.32-2.13,5.36a4.11,4.11,0,0,0,3.09,1.18C61.31,44.05,63.24,41.32,62.52,39.91Z"/><path class="cls-10" d="M61.56,50.79C61.34,56.62,57.7,56,57.7,56s-3.63.6-3.86-5.23c0,0-5.81,1.6-8.64,3.5a56,56,0,0,1,1.29,10.76L49.8,77.9l7.9.39,7.9-.39,3.32-12.85A55.57,55.57,0,0,1,70.2,54.29C67.37,52.39,61.56,50.79,61.56,50.79Z"/><path class="cls-11" d="M68.34,57.66C64.73,59.59,63,64,59.47,66.18s-6.19-2.29-7.95-4.65a13.76,13.76,0,0,0-5.81-4.62,55.73,55.73,0,0,1,.78,8.14L49.8,77.9l7.9.39,7.9-.39,3.32-12.85a53.58,53.58,0,0,1,.75-8C69.21,57.24,68.76,57.44,68.34,57.66Z"/><path class="cls-3" d="M72.34,83.11c0-4.51-5.6-7.48-5.6-7.48H47.94s-5.6,3-5.6,7.48a21.67,21.67,0,0,0,.46,3.48H49c-.25.46-.48.89-.66,1.25l-.18.31h4.54c.35,0,.24.15.14-.36-.14-.72-.58-1.13-.15-1.88.35-.59,2-1.07,2.7-1.09h.44c1,0,2,0,3,0a5.77,5.77,0,0,1,1.09.18c.32.06,1.26,0,1.67.51a2.14,2.14,0,0,1,.32,1.09,11,11,0,0,1-.17,1.55h5.69a15,15,0,0,1-1.09-1.56h5.56A22.59,22.59,0,0,0,72.34,83.11Z"/><path class="cls-12" d="M72.34,83.11c0-4.51-5.6-7.48-5.6-7.48H47.94s-5.6,3-5.6,7.48a21.67,21.67,0,0,0,.46,3.48H49c-.25.46-.48.89-.66,1.25l-.18.31h4.54c.35,0,.24.15.14-.36-.14-.72-.58-1.13-.15-1.88.35-.59,2-1.07,2.7-1.09h.44c1,0,2,0,3,0a5.77,5.77,0,0,1,1.09.18c.32.06,1.26,0,1.67.51a2.14,2.14,0,0,1,.32,1.09,11,11,0,0,1-.17,1.55h5.69a15,15,0,0,1-1.09-1.56h5.56A22.59,22.59,0,0,0,72.34,83.11Z"/><path class="cls-10" d="M45.2,54.29S38,69.81,38.54,71.87c.13.52,8.87,5.8,13,5l1.67-.31S47.09,54.18,45.2,54.29Z"/><path class="cls-10" d="M70.18,54.29s7.18,15.52,6.66,17.58c-.13.52-8.86,5.8-13,5l-1.68-.31S68.3,54.18,70.18,54.29Z"/><path class="cls-11" d="M48,59.72A11.11,11.11,0,0,1,47.73,62c-.64,2.8-1.64,5.73-.59,8.57A45.88,45.88,0,0,0,50.38,77a5.24,5.24,0,0,0,1.14-.06l1.67-.31S50.4,66.32,48,59.72Z"/><path class="cls-11" d="M66.26,76.83a10.12,10.12,0,0,0,.79-4.14C67,69.83,66.94,67,67,64.1c0-1.24.05-2.44.12-3.62-2.33,6.61-4.92,16.12-4.92,16.12l1.68.31A6.76,6.76,0,0,0,66.26,76.83Z"/><path d="M50.53,110s-4.55,5.42-5.08,6.57.77,2.6,2.54,2,2.81-1.8,2.84-2.57,1-1.18,1.39-1.24S55,112,54.76,111.25s-1.42-1.55-1.42-1.55Z"/><path d="M64.15,110s4.56,5.42,5.09,6.57-.77,2.6-2.54,2-2.81-1.8-2.84-2.57-1-1.18-1.39-1.24-2.78-2.75-2.55-3.49,1.43-1.55,1.43-1.55Z"/><path class="cls-3" d="M52.13,82.87c-.54-1.29-.65-4-4.31-4-7,0-5.38,5.64-5.28,6.48,1.07,8.4,6.17,25.15,6.17,25.15h7S53.2,90,52.8,86.79A22,22,0,0,0,52.13,82.87Z"/><path class="cls-3" d="M62.57,82.87c.54-1.29.65-4,4.31-4,7,0,5.38,5.64,5.28,6.48C71.09,93.73,66,110.48,66,110.48h-7S61.5,90,61.9,86.79A22,22,0,0,1,62.57,82.87Z"/><rect class="cls-5" x="47.35" y="76.78" width="20.69" height="1.23"/><path class="cls-5" d="M71.09,62.43H44.31A1.24,1.24,0,0,0,43.11,64c.25,1.62,3.63,12.9,4.31,12.9H68c.6,0,4.06-11.28,4.31-12.9A1.24,1.24,0,0,0,71.09,62.43Z"/><path class="cls-6" d="M58.81,70.24a1.11,1.11,0,1,1-1.11-1.11A1.11,1.11,0,0,1,58.81,70.24Z"/><polygon class="cls-6" points="85.32 146.39 86.56 150.21 90.58 150.21 87.33 152.57 88.57 156.4 85.32 154.03 82.06 156.4 83.31 152.57 80.05 150.21 84.07 150.21 85.32 146.39"/><polygon class="cls-6" points="99.68 146.39 100.92 150.21 104.94 150.21 101.69 152.57 102.93 156.4 99.68 154.03 96.43 156.4 97.67 152.57 94.42 150.21 98.44 150.21 99.68 146.39"/><polygon class="cls-6" points="114.04 146.39 115.28 150.21 119.3 150.21 116.05 152.57 117.29 156.4 114.04 154.03 110.79 156.4 112.03 152.57 108.78 150.21 112.8 150.21 114.04 146.39"/><polygon class="cls-6" points="128.41 146.39 129.65 150.21 133.67 150.21 130.41 152.57 131.66 156.4 128.41 154.03 125.15 156.4 126.39 152.57 123.14 150.21 127.16 150.21 128.41 146.39"/><polygon class="cls-6" points="142.77 146.39 144.01 150.21 148.03 150.21 144.78 152.57 146.02 156.4 142.77 154.03 139.51 156.4 140.76 152.57 137.5 150.21 141.53 150.21 142.77 146.39"/></g></g></g></svg>