<svg id="レイヤー_1" data-name="レイヤー 1" xmlns="http://www.w3.org/2000/svg" viewBox="0 0 200 200"><defs><style>.cls-1{opacity:0.2;}.cls-2{fill:#110239;}.cls-3{fill:#fefefe;}.cls-4{fill:#e5e6ed;}.cls-5{fill:#b3eef6;}.cls-6{fill:#fd425f;}.cls-7{fill:#fff;}.cls-8{fill:#d0d1de;}.cls-9{fill:#f88667;}.cls-10{fill:#e45940;}.cls-11{fill:#01c7e2;}.cls-12{fill:#00a7cc;}</style></defs><g class="cls-1"><polygon class="cls-2" points="118 164.88 93.39 164.88 95.42 135.21 115.98 135.21 118 164.88"/><path class="cls-2" d="M121.23,160.13a1.61,1.61,0,0,0-1.34-.72H91.5a1.6,1.6,0,0,0-1.33.72l-3.72,5.55a1.61,1.61,0,0,0,1.34,2.5h35.82a1.6,1.6,0,0,0,1.33-2.5Z"/><rect class="cls-2" x="38.52" y="53.04" width="134.35" height="90.06" rx="6.93"/><rect class="cls-3" x="44.71" y="59" width="121.98" height="77.2"/><rect class="cls-4" x="47.75" y="67.41" width="115.89" height="68.79"/><rect class="cls-5" x="47.75" y="67.41" width="115.89" height="5.69"/><rect class="cls-3" x="122.03" y="91.66" width="35.99" height="4.75"/><rect class="cls-3" x="122.03" y="100.06" width="35.99" height="4.75"/><rect class="cls-3" x="122.03" y="108.46" width="35.99" height="4.75"/><rect class="cls-3" x="58.44" y="78.81" width="35.99" height="4.75"/><rect class="cls-3" x="58.44" y="87.21" width="35.99" height="4.75"/><path class="cls-6" d="M92.76,88.68H24.81A4.31,4.31,0,0,0,20.5,93V114.9a4.31,4.31,0,0,0,4.31,4.31H67.38L83.59,133l-7.7-13.78H92.76a4.31,4.31,0,0,0,4.3-4.31V93A4.31,4.31,0,0,0,92.76,88.68Z"/><rect class="cls-7" x="46.1" y="94.59" width="45.79" height="2.64"/><rect class="cls-7" x="46.1" y="99.97" width="45.79" height="2.64"/><rect class="cls-7" x="46.1" y="105.35" width="45.79" height="2.64"/><rect class="cls-7" x="46.1" y="110.72" width="30.39" height="2.64"/><path class="cls-2" d="M42.48,103.47a8.84,8.84,0,1,1-8.84-8.83A8.84,8.84,0,0,1,42.48,103.47Z"/><ellipse class="cls-7" cx="33.64" cy="100.84" rx="2.49" ry="2.57"/><path class="cls-7" d="M33.69,103.8H33.6a4.43,4.43,0,0,0-4.43,4.43v2.82a8.56,8.56,0,0,0,8.94,0v-2.82A4.42,4.42,0,0,0,33.69,103.8Z"/><path class="cls-8" d="M175.19,31.82H107.24a4.31,4.31,0,0,0-4.3,4.31V58a4.31,4.31,0,0,0,4.3,4.31h19.68l-5.27,13.78,13.78-13.78h39.76A4.31,4.31,0,0,0,179.5,58V36.13A4.31,4.31,0,0,0,175.19,31.82Z"/><rect class="cls-7" x="128.54" y="37.73" width="45.79" height="2.64"/><rect class="cls-7" x="128.54" y="43.11" width="45.79" height="2.64"/><rect class="cls-7" x="128.54" y="48.49" width="45.79" height="2.64"/><rect class="cls-7" x="128.54" y="53.87" width="30.39" height="2.64"/><path class="cls-2" d="M124.91,46.61a8.83,8.83,0,1,1-8.83-8.83A8.83,8.83,0,0,1,124.91,46.61Z"/><path class="cls-7" d="M118.57,44a2.49,2.49,0,1,1-2.49-2.57A2.53,2.53,0,0,1,118.57,44Z"/><path class="cls-7" d="M116.13,47H116a4.42,4.42,0,0,0-4.43,4.42v2.82a8.56,8.56,0,0,0,8.94,0V51.37A4.42,4.42,0,0,0,116.13,47Z"/><rect class="cls-6" x="125.22" y="120.93" width="34.89" height="11.07" rx="3.97"/><path class="cls-7" d="M139.17,125.1a1.19,1.19,0,0,1-.93,1.17,1.34,1.34,0,0,1,1.11,1.36c0,.93-.81,1.5-2.08,1.5h-2.66v-5.39h2.56C138.39,123.74,139.17,124.27,139.17,125.1Zm-1.45.25c0-.33-.23-.52-.63-.51H136v1h1.07C137.49,125.89,137.72,125.69,137.72,125.35Zm.17,2.11c0-.34-.3-.56-.8-.55H136V128h1.07C137.59,128,137.89,127.83,137.89,127.46Z"/><path class="cls-7" d="M142.53,128a1,1,0,0,0,1.05-1.12v-3.13H145v3.13a2.23,2.23,0,0,1-2.47,2.32,2.26,2.26,0,0,1-2.5-2.32v-3.13h1.41v3.13A1,1,0,0,0,142.53,128Z"/><path class="cls-7" d="M148.77,127.41v1.72h-1.41v-1.68l-2-3.71h1.41l1.28,2.32,1.24-2.32h1.41Z"/><path class="cls-9" d="M109.81,85.8a20.48,20.48,0,0,1-5.45.24,8.69,8.69,0,0,1-1.92-.42c.09,2.27.11,7.59-1.51,9.79,0,0,.59,2.62,5.31,2.7s5.26-3.49,5.26-3.49A47,47,0,0,1,109.81,85.8Z"/><path class="cls-10" d="M101,95.5s0,.1.07.18v0c0,.08.09.18.15.28h0a2.14,2.14,0,0,0,.24.34l0,0a3.79,3.79,0,0,0,.85.74l.07,0a4.73,4.73,0,0,0,.64.34l.09,0a6.7,6.7,0,0,0,.83.28,6.62,6.62,0,0,1,1.39-3.35,8.33,8.33,0,0,1,5.32-3.09,32.62,32.62,0,0,1-.86-5.58,20.48,20.48,0,0,1-5.45.24,8.69,8.69,0,0,1-1.92-.42c.09,2.27.11,7.59-1.51,9.79l0,.06Z"/><path class="cls-9" d="M103.27,73.05s7.74-2.28,9-.41,1,4.91,1.52,6.24,2.44,2.74,2.64,3.27-1.29,1.56-1.49,2-1,4.8-2.33,5.77-8.55-1.6-10.34-5S101.19,74.17,103.27,73.05Z"/><path class="cls-2" d="M106.79,74.41a7.66,7.66,0,0,1-.81,4c-.47.93,1.85,3.39,1.2,4.51-.43.74-1.05.55-1.62-.92a2.29,2.29,0,0,0-1.25-1.07c-1.9-.82-2.34,2.07-.64,2.93,1.19.6.48,3.61.48,3.61-1.28,1-5.5-.2-5-3.28.29-2,.42-2.71-.27-3.19-1.24-.87-2.86-3.27-.81-5.3,2.82-2.81.25-3.7,3.51-4.51S107.51,72.37,106.79,74.41Z"/><path class="cls-2" d="M101,72.76c.18-.71,1.47-1.63,2.1-2.1a9.55,9.55,0,0,1,3.34-1.51,8.65,8.65,0,0,1,3.72-.12c1.06.2,1.95.67,3,.79a3.48,3.48,0,0,0,2.7-.52,6.74,6.74,0,0,1,.13,2.45,7.52,7.52,0,0,1-1.39,2.69c-1.57,2.34-5.84,3.64-8.85,2.4-1.46-.6-2.76-1.11-3.48-2.38A7.6,7.6,0,0,0,101,72.76Z"/><path class="cls-2" d="M142.33,77.81l7.48,16.61s-2.19,2.46-2.92,1.91-11.95-14-13-14.72S142.33,77.81,142.33,77.81Z"/><path class="cls-6" d="M123.77,79.88s0,4.77,3,5.87c0,0,15-6.2,18-6.8s14-.68,14-.68l-11-19.71s-5.29,10.58-10.13,14S123.77,79.88,123.77,79.88Z"/><path class="cls-2" d="M133.48,83c1.18-.47,2.42-1,3.64-1.42A15.17,15.17,0,0,1,134,74.83c-1.14.65-2.31,1.28-3.45,1.86A13.73,13.73,0,0,0,133.48,83Z"/><path class="cls-11" d="M162.74,63.63c3.11,7.51,2,15.11-2.46,17s-10.63-2.74-13.75-10.25-2-15.12,2.46-17S159.62,56.11,162.74,63.63Z"/><path class="cls-2" d="M162.13,63.88c2.66,6.39,1.72,12.86-2.09,14.43s-9-2.32-11.69-8.72-1.72-12.86,2.09-14.44S159.48,57.48,162.13,63.88Z"/><path class="cls-9" d="M141.35,89.77c-.36-.22-.26-1.55-.19-1.9.12-.55.49-1.26.11-1.78-.66-.92-1.6,1.56-1.72,1.92a2.62,2.62,0,0,0-.18,1.65,6.66,6.66,0,0,0,1.44,2.16c-.07.25-.15.5-.24.78a15.19,15.19,0,0,1,1.8.91c.72.42.69.93,1.36,1.4l.68-1.56A33.38,33.38,0,0,0,141.35,89.77Z"/><path class="cls-9" d="M146.14,84.33c-.65-.69-1.66-.43-2.44.15-.57.41-2.21,1.74-1.77,2.71.37.8,2.48-1,2.48-1-.77.67-2.23,1.2-1.86,1.87s2.25-.31,2.66-.61c-.42.11-2.48,1.36-1.66,2,.57.45,2.09-.49,2.54-.81-.61.19-1.43.73-1.27,1.57.26.46,1.18.16,1.7,0,.77-.32,1.5-.44,1.56-1.4a4.41,4.41,0,0,0,0-.52,5.36,5.36,0,0,0-.68-2.09A9.61,9.61,0,0,0,146.14,84.33Z"/><path class="cls-9" d="M67.36,89.85A8.56,8.56,0,0,1,66.5,88c-.2-.56-.33-1.12-.52-1.67a4.21,4.21,0,0,1-.37-1.63,4.33,4.33,0,0,1,.2-1c.11-.42.26-.83.35-1.26s0-.76.11-1.14a7,7,0,0,1,.66-2.09,7.87,7.87,0,0,1,1-1.32,5.32,5.32,0,0,1,.56-.61,1.56,1.56,0,0,0,.53-.64.62.62,0,0,0-.45-.83,2.28,2.28,0,0,0-2.12.7c-.57.77-.83,1.72-1.46,2.47-1.92,2.29-3.72-.4-6-1.37a13.3,13.3,0,0,1-2.16-1.4c-.4-.3-2.12-1.93-2.94-1.51-.59.32.58,1.69,1.14,2,.23.13,2.14,1.69,2.39,1.76a12.17,12.17,0,0,1-3.21-2c-.85-.67-1.68-1.32-2.14-.94-1.42,1.17,4.17,3.84,4.6,4.08-.46,0-4.84-3.06-5.25-1.92-.23.63.68,1.25,1.42,1.65.93.51,2.49.87,2.85,1.15-.66.22-3.56-1.75-3.56-.55,0,.79,1.8,1.38,2.47,1.59s2.75,1.6,3.4,1.91c2.17,1,3.06.91,3.91,2.21.55.83,1.52,5.19,2.3,6.85Z"/><path class="cls-11" d="M140.14,92c-1.93,5.62-6.06,15.56-7.42,14.86-2.55-1.31-8-5.81-12.16-8.56a29,29,0,0,0-4.78-2.75l2.86,13.56s13.56,10.3,16.4,8.72c2.23-1.24,7.73-16.9,9.67-23.38C144.71,94.45,140.17,92,140.14,92Z"/><path class="cls-12" d="M126.71,111.35a90.32,90.32,0,0,0-8.93-8.91l.45,6.43s13.67,10.27,16.69,9C132.32,116.18,128.57,113.76,126.71,111.35Z"/><path class="cls-11" d="M92.78,96.27S76.1,103,74.29,102.53s-7.86-17.67-7.86-17.67l-5.05,2s5.39,24.8,8.87,26,24.16-4.82,24.16-4.82A35.1,35.1,0,0,0,92.78,96.27Z"/><path class="cls-12" d="M78.55,111.32c-1.47.53-3,1.05-4.46,1.49,7.07-.93,20.32-4.76,20.32-4.76a36.75,36.75,0,0,0-.36-6.3C89.94,106.19,84.1,109.33,78.55,111.32Z"/><path class="cls-8" d="M154.23,68.45a4.22,4.22,0,0,0-5.12-3,3.58,3.58,0,0,0-1.73,1.25,20.09,20.09,0,0,0,1,2.93,19.88,19.88,0,0,0,2.57,4.49,3.43,3.43,0,0,0,1-.15A4.24,4.24,0,0,0,154.23,68.45Z"/><path class="cls-11" d="M92.81,116.55c-.59,5.79-1,18-1.4,19.65h27.36a254,254,0,0,0-.13-27.09,52.26,52.26,0,0,0-2.86-13.56s-2-.64-4.46-1.58c0,0-5,3.08-9.73,0,0,0-8.46,2-9.48,2.5C91.26,96.91,93.43,110.37,92.81,116.55Z"/><path class="cls-12" d="M100,124.47a21.75,21.75,0,0,0-1.56-7.89,6.89,6.89,0,0,1-.51-1.77,11.35,11.35,0,0,0-1.16-4c-.61-.93-1.23-1.85-1.83-2.77-.34-.46-.69-.94-1.08-1.51a24.9,24.9,0,0,1-1.67-3c.32,4.25.89,9.93.58,13-.59,5.79-1,18-1.4,19.65h12.73a24.06,24.06,0,0,1-3.58-7.8A14,14,0,0,1,100,124.47Z"/></g></svg>