<?xml version="1.0" encoding="UTF-8" standalone="no"?>
<!DOCTYPE svg PUBLIC "-//W3C//DTD SVG 1.1//EN" "http://www.w3.org/Graphics/SVG/1.1/DTD/svg11.dtd">
<svg width="100%" height="100%" viewBox="0 0 160 60" version="1.1" xmlns="http://www.w3.org/2000/svg" xmlns:xlink="http://www.w3.org/1999/xlink" xml:space="preserve" xmlns:serif="http://www.serif.com/" style="fill-rule:evenodd;clip-rule:evenodd;stroke-linejoin:round;stroke-miterlimit:2;">
    <g transform="matrix(1,0,0,1,-115,-22)">
        <g transform="matrix(0.325376,0,0,0.325376,-46.1453,-84.4188)">
            <path d="M913.967,494.124L917.663,508.813L927.701,503.942L913.967,494.124ZM960.353,491.143L964.049,505.833L974.087,500.962L960.353,491.143ZM891.885,505.638L890.491,490.755L879.718,494.426L891.885,505.638ZM938.271,502.658L936.877,487.774L926.104,491.445L938.271,502.658ZM835.351,481.636L820.323,488.726L829.476,495.417L835.351,481.636ZM933.884,468.076C933.087,468.561 932.26,469.039 931.404,469.509L932.828,470.834L928.705,481.604L928.223,481.273L927.533,473.904L920.824,476.19L928.223,481.273L928.927,488.788L916.76,477.575L920.824,476.19L919.318,475.155L920.858,474.37C924.76,472.849 928.275,471.229 931.404,469.509L931.048,469.177L934.048,467.649L933.884,468.076ZM895.563,359.297C899.392,359.48 902.976,359.896 906.315,360.546L904.445,361.174L905.095,361.755L900.907,363.889L900.044,365.381L903.052,368.179L905.233,369.677L904.82,369.824L909.993,374.636L909.426,368.181L911.465,367.453L910.005,366.147L911.653,361.844C910.725,361.569 909.775,361.316 908.802,361.083L908.7,359.918L913.284,357.582L911.653,361.844C915.986,363.128 919.834,364.878 923.196,367.094L923.813,371.998L925.213,373.25L924.025,373.688L923.813,371.998L917.886,366.697L910.387,379.659L905.34,381.379L917.508,392.591L916.116,377.733L926.202,374.135L925.213,373.25L928.082,372.192L926.499,370.72L927.495,370.386C926.673,369.665 925.816,368.971 924.924,368.306C924.363,367.888 923.788,367.484 923.196,367.094L922.157,358.824L933.187,368.474L927.495,370.386C928.032,370.856 928.553,371.338 929.06,371.832L928.082,372.192L934.012,377.709C935.051,379.221 935.989,380.813 936.826,382.485L929.033,386.409L929.536,391.773L933.86,394.773L917.241,397.882C915.596,392.15 912.504,387.625 907.966,384.308C905.766,382.7 903.301,381.482 900.571,380.653L899.875,373.22L889.102,376.891L891.759,379.34C893.836,379.38 895.804,379.579 897.664,379.937L898.105,383.443L896.881,384.06L898.353,385.416L898.37,385.552L894.031,396.692L884.679,390.206L896.881,384.06L891.759,379.34C891.497,379.335 891.234,379.332 890.969,379.332C889.887,379.332 888.828,379.368 887.791,379.441L883.272,391.245L880.983,389.673L880.353,382.509L881.383,382.129L880.549,381.4L883.275,380.011C884.727,379.739 886.233,379.549 887.791,379.441L888.615,377.29L883.275,380.011C882.221,380.208 881.195,380.449 880.197,380.731L880.231,381.122L880.549,381.4L880.268,381.543L880.353,382.509L873.977,384.86L880.983,389.673L881.296,393.242L872.766,385.307L873.977,384.86L873.884,384.796L880.268,381.543L880.231,381.122L879.887,380.821C879.99,380.791 880.093,380.761 880.197,380.731L879.988,378.357L877.88,379.065L879.887,380.821C876.983,381.676 874.316,382.898 871.886,384.489L872.766,385.307L870.745,386.052L870.656,385.341C871.059,385.046 871.469,384.762 871.886,384.489L870.371,383.079L870.191,381.646L877.88,379.065L868.877,371.187L870.191,381.646L869.192,381.982L870.371,383.079L870.656,385.341C869.141,386.449 867.725,387.71 866.408,389.125C865.2,390.423 864.112,391.845 863.144,393.392L863.251,394.528L862.284,394.858C861.996,395.381 861.72,395.918 861.457,396.467L863.619,398.46L864.228,404.954L859.725,400.805C860.225,399.279 860.802,397.834 861.457,396.467L860.405,395.498L862.284,394.858C862.559,394.357 862.846,393.869 863.144,393.392L862.833,390.071L852.06,393.742L859.725,400.805C858.103,405.756 857.292,411.548 857.292,418.183C857.292,431.765 860.251,442.017 866.169,448.941L866.976,457.558L873.607,455.299C871.018,453.731 868.658,451.749 866.528,449.352C866.407,449.216 866.287,449.079 866.169,448.941L865.582,442.675L877.749,453.887L873.607,455.299C875.111,456.21 876.692,456.98 878.35,457.611L868.191,462.727L877.543,469.214L881.655,458.656C880.521,458.366 879.419,458.017 878.35,457.611L882.968,455.285L881.655,458.656C884.48,459.38 887.505,459.741 890.73,459.741C893.491,459.741 896.256,459.438 899.027,458.832L902.196,453.354L905.932,456.696C905.815,456.743 905.696,456.789 905.578,456.835C903.391,457.689 901.207,458.355 899.027,458.832L894.611,466.465L910.512,460.793L905.932,456.696C910.743,454.786 914.885,452.484 918.356,449.79L918.356,447.591L915.183,434.982L891.887,434.982L891.491,430.755L891.367,430.797L891.367,434.982L891.887,434.982L892.879,445.572L892.836,445.593L892.885,445.638L892.879,445.572L898.456,442.763L893.031,456.692L883.679,450.206L892.836,445.593L880.718,434.426L891.367,430.797L891.367,415.317L897.967,415.317L897.534,411.871L901.473,415.317L897.967,415.317L899.403,426.736L910.04,422.813L901.473,415.317L916.318,415.317L918.32,414.297L917.398,410.632L924.935,407.944L916.745,402.089L917.933,400.036L926.249,407.475L924.935,407.944L927.371,409.685L918.32,414.297L918.577,415.317L916.318,415.317L914.097,416.449L923.484,422.898L923.498,422.863L917.76,417.575L924.386,415.317L926.387,415.317L926.687,414.533L928.533,413.904L928.665,415.317L926.387,415.317L923.498,422.863L929.927,428.788L928.665,415.317L938.345,415.317L938.305,414.998L926.546,404.059L937.343,400.434L937.468,401.855L935.776,404.779L937.666,404.105L937.468,401.855L942.59,393.001L939.602,381.126L939.614,381.094L939.603,381.086L939.621,381.077L939.614,381.094L953.324,390.895L946.305,394.301L951.677,399.106L937.666,404.105L938.241,410.658L950.206,421.127L942.16,424.094L942.16,441.133L930.065,447.225L939.417,453.712L942.16,446.669L942.16,441.133L944.842,439.782L942.16,446.669L942.16,461.474L941.726,462.224C940.28,463.579 938.653,464.887 936.845,466.149L937.651,475.32L932.828,470.834L933.884,468.076C934.92,467.446 935.907,466.804 936.845,466.149L936.343,460.434L925.546,464.059L931.048,469.177L920.858,474.37L920.704,474.43C915.356,476.506 909.969,477.989 904.544,478.879L909.04,482.813L898.403,486.736L897.518,479.7C899.867,479.536 902.209,479.262 904.544,478.879L896.534,471.871L897.518,479.7C895.764,479.822 894.005,479.883 892.243,479.883C889.506,479.883 886.847,479.755 884.267,479.497L887.662,470.63L873.877,477.654C877.185,478.521 880.648,479.136 884.267,479.497L882.319,484.585L872.931,478.136L873.877,477.654C869.024,476.381 864.504,474.563 860.318,472.201C855.077,469.243 850.589,465.552 846.853,461.126L855.627,458.136L843.459,446.924L844.508,458.115C845.253,459.154 846.035,460.158 846.853,461.126L844.854,461.808L844.508,458.115C842.759,455.678 841.209,453.05 839.857,450.228C835.583,441.307 833.31,431.652 833.038,421.264L823.363,412.349L833.662,408.839C833.721,408.387 833.785,407.937 833.852,407.488L835.324,406.773L834.108,405.904C835.308,398.992 837.489,392.603 840.653,386.736C841.412,385.331 842.222,383.974 843.085,382.665L849.521,380.369L846.38,378.211C847.063,377.386 847.771,376.584 848.504,375.806L850.033,375.026L849.621,374.657C853.45,370.843 857.918,367.624 863.025,365.002C864.856,364.054 866.797,363.222 868.848,362.506L874.538,352.67L882.305,359.618C877.39,360.126 872.905,361.089 868.848,362.506L866.953,365.781L882.854,360.109L882.305,359.618C884.158,359.426 886.073,359.299 888.048,359.236L884.632,356.866L899.409,349.423L895.563,359.297ZM856.786,471.351L858.181,486.235L868.954,482.564L856.786,471.351ZM975.313,485.807L973.919,470.924L963.146,474.595L975.313,485.807ZM750.997,469.835L763.503,480.777L752.866,484.7L750.997,469.835ZM942.92,468.89L955.426,479.833L944.789,483.755L942.92,468.89ZM598.942,444.183C595.392,455.938 589.755,464.746 582.031,470.609C573.884,476.792 563.547,479.883 551.022,479.883C535.524,479.883 522.786,474.589 512.807,464.001C502.829,453.412 497.84,438.936 497.84,420.572C497.84,401.146 502.856,386.06 512.887,375.312C522.918,364.564 536.107,359.19 552.455,359.19C566.732,359.19 578.329,363.41 587.245,371.849C592.553,376.838 596.534,384.003 599.187,393.344L575.861,398.917C574.481,392.867 571.602,388.09 567.223,384.587C562.844,381.084 557.523,379.332 551.26,379.332C542.609,379.332 535.59,382.437 530.203,388.647C524.816,394.857 522.122,404.915 522.122,418.82C522.122,433.575 524.776,444.084 530.083,450.347C535.391,456.61 542.291,459.741 550.783,459.741C557.046,459.741 562.433,457.751 566.944,453.77C571.456,449.79 574.693,443.527 576.657,434.982L590.766,439.455L588.442,440.64L597.829,447.089L598.942,444.183C599.136,443.54 599.324,442.888 599.506,442.227L590.766,439.455L603.172,433.134L598.942,444.183ZM736.83,361.181L732.852,361.181L735.984,363.353L736.83,361.181L742.491,361.181L743.511,362.845L737.564,373.126L747.614,369.54L743.511,362.845L745.149,360.015L753.465,367.453L747.614,369.54L753.081,378.46L752.301,379.808L753.619,379.338L753.081,378.46L759.886,366.697L768.202,374.135L753.619,379.338L759.331,388.658L759.222,388.714L759.469,388.883L768.772,404.062L766.009,405.004L773.683,412.076L790.258,439.122L790.258,399.946L787.34,397.257L790.258,396.263L790.258,395.262L795.331,393.391L790.258,388.953L790.258,386.588L795.284,373.461L790.258,376.022L790.258,386.588L789.941,387.416L783.243,382.814L782.825,382.449L782.836,382.535L783.243,382.814L790.258,388.953L790.258,395.262L784.693,397.314L782.836,382.535L780.554,380.967L790.258,376.022L790.258,373.705L796.803,371.37L790.258,365.517L790.258,361.181L806.928,361.181L809.818,356.185L818.134,363.624L812.152,365.758L812.152,374.531L811.837,374.637L812.152,374.93L812.152,381.697L816.663,385.644L814.023,386.618L815.218,399.365L812.152,396.54L812.152,387.308L814.023,386.618L813.823,384.482L812.152,385.052L812.152,387.308L806.025,389.567L805.733,387.239L812.152,385.052L812.152,381.697L809.015,378.953L811.54,378.053L803.224,370.614L795.639,383.725L804.877,380.43L804.157,374.702L809.015,378.953L804.877,380.43L805.733,387.239L803.05,388.153L812.152,396.54L812.152,413.205L813.992,414.52L812.152,415.413L812.152,465.619L810.834,466.241L812.152,467.205L812.152,477.893L795.403,477.893L795.8,479.468L793.596,477.893L795.403,477.893L792.104,464.779L783.1,469.148L784.476,471.373L793.596,477.893L788.507,477.893L784.476,471.373L782.066,469.65L783.1,469.148L778.582,461.839L778.798,461.76L778.221,461.255L767.694,444.226L780.27,439.739L771.954,432.3L766.33,442.021L767.694,444.226L764.369,445.412L766.33,442.021L755.58,424.63L758.324,417.463L752.868,420.243L755.58,424.63L752.981,431.418L743.594,424.969L752.868,420.243L741.456,401.783L741.456,439.908L737.949,441.674L741.456,444.106L741.456,477.893L719.562,477.893L719.562,462.291L718.43,461.506L719.562,460.936L719.562,444.36L724.607,442.641L719.562,437.992L719.562,432.71L717.842,431.517L719.562,430.65L719.562,387.323L715.884,384.796L719.562,382.922L719.562,361.181L732.852,361.181L726.632,356.866L741.409,349.423L736.83,361.181ZM696.872,433.803L698.176,438.985L696.872,438.053L696.872,433.803L694.48,424.296L684.442,429.167L696.872,438.053L696.872,464.444L704.824,469.959L696.872,473.964L696.872,477.893L673.307,477.893L673.307,443.853L673.829,443.591L673.307,443.229L673.307,435.03L668.437,431.548L673.307,429.185L673.307,361.181L696.872,361.181L696.872,433.803ZM696.872,464.444L695.472,463.473L690.047,477.402L696.872,473.964L696.872,464.444ZM834.735,460.392L836.043,475.278L846.84,471.652L834.735,460.392ZM671.973,460.27L664.388,473.381L656.072,465.943L671.973,460.27ZM909.348,473.147L916.933,460.036L925.249,467.475L909.348,473.147ZM812.152,465.619L825.862,459.151L819.987,472.932L812.152,467.205L812.152,465.619ZM984.037,472.339L982.729,457.453L971.932,461.079L984.037,472.339ZM955.734,470.167L963.319,457.055L971.635,464.494L955.734,470.167ZM624.36,453.609L636.866,464.552L626.228,468.474L624.36,453.609ZM719.562,460.936L719.562,462.291L727.782,467.993L733.208,454.063L719.562,460.936ZM607.601,465.868L595.095,454.926L605.733,451.003L607.601,465.868ZM778.221,461.255L778.582,461.839L768.161,465.682L766.292,450.817L778.221,461.255ZM757.42,449.576L752.077,463.531L742.689,457.082L757.42,449.576ZM942.16,461.474L948.582,450.373L956.898,457.812L940.997,463.485L941.726,462.224C941.873,462.087 942.017,461.949 942.16,461.811L942.16,461.474ZM703.716,444.896L705.024,459.782L715.821,456.157L703.716,444.896ZM810.822,457.577L807.126,442.888L797.088,447.759L810.822,457.577ZM694.843,443.655L679.814,450.746L688.967,457.437L694.843,443.655ZM829.196,454.481L825.5,439.791L815.462,444.662L829.196,454.481ZM781.187,453.431L788.772,440.32L797.088,447.759L781.187,453.431ZM644.222,424.393L633.995,424.393L645.485,434.447L644.222,424.393L658.683,424.393L659.701,421.733L669.088,428.182L660.967,432.321L660.967,446.116L660.714,446.764L643.411,446.764L639.824,452.964L632.893,446.764L643.411,446.764L647.409,439.853L631.508,445.525L632.893,446.764L620.627,446.764L613.913,449.24L612.045,434.375L617.021,438.729L617.021,446.764L620.627,446.764L624.551,445.318L617.021,438.729L617.021,426.508L622.949,424.393L633.995,424.393L632.979,423.505L643.617,419.582L644.222,424.393ZM673.307,443.229L673.307,443.853L659.052,451.033L660.714,446.764L660.967,446.764L660.967,446.116L664.477,437.104L673.307,443.229ZM915.183,434.982L916.167,434.982L918.356,436.546L918.356,447.591L918.663,448.813L928.701,443.942L918.356,436.546L918.356,434.982L916.167,434.982L914.967,434.124L915.183,434.982ZM741.456,439.908L752.726,434.231L747.301,448.16L741.456,444.106L741.456,439.908ZM955.133,432.437L958.829,447.127L968.867,442.256L955.133,432.437ZM719.562,437.992L719.562,444.36L713.834,446.312L712.44,431.429L719.562,437.992ZM933.051,443.952L931.656,429.068L920.883,432.74L933.051,443.952ZM835.867,426.656L837.175,441.541L847.972,437.916L835.867,426.656ZM673.307,429.185L673.307,435.03L682.171,441.366L678.475,426.677L673.307,429.185ZM719.562,430.65L719.562,432.71L727.194,438.003L732.619,424.074L719.562,430.65ZM796.407,421.128L797.715,436.014L808.512,432.389L796.407,421.128ZM658.683,424.393L654.358,435.688L660.967,432.321L660.967,424.393L658.683,424.393ZM598.478,417.789L593.053,431.718L583.701,425.232L598.478,417.789ZM700.983,415.137L702.377,430.021L713.15,426.35L700.983,415.137ZM617.021,426.508L610.121,428.97L617.706,415.858L626.022,423.297L622.949,424.393L617.021,424.393L617.021,426.508ZM970.092,427.101L968.698,412.218L957.925,415.889L970.092,427.101ZM857.612,412.046L861.308,426.736L871.347,421.865L857.612,412.046ZM938.305,414.998L938.649,415.317L938.345,415.317L939.568,425.049L942.16,424.094L942.16,415.317L938.651,415.317L938.651,415.32L938.649,415.317L938.651,415.317L938.241,410.658L937.7,410.184L938.305,414.998ZM888.662,410.63L883.319,424.585L873.931,418.136L888.662,410.63ZM833.662,408.839C833.228,412.156 833.011,415.59 833.011,419.139C833.011,419.851 833.02,420.56 833.038,421.264L835.531,423.561L834.136,408.677L833.662,408.839ZM671.706,408.179L656.677,415.269L665.831,421.96L671.706,408.179ZM637.845,406.305L632.42,420.234L623.068,413.748L637.845,406.305ZM812.152,413.205L800.258,404.702L803.954,419.391L812.152,415.413L812.152,413.205ZM768.772,404.062L776.782,401.333L778.176,416.216L773.683,412.076L768.772,404.062ZM756.92,400.784L760.616,415.474L770.654,410.603L756.92,400.784ZM928.291,410.343L928.654,410.603L928.086,410.879L926.687,414.533L924.386,415.317L918.938,415.317L918.616,415.474L918.577,415.317L918.938,415.317L928.086,410.879L928.291,410.343L927.371,409.685L928.827,408.943L928.291,410.343ZM978.817,413.633L977.508,398.748L966.712,402.373L978.817,413.633ZM916.745,402.089L915.702,403.892L917.398,410.632L910.348,413.147L915.702,403.892L914.92,400.784L916.745,402.089ZM898.22,401.955L896.46,404.997L892.341,406.996L892.838,412.299L880.671,401.087L887.636,398.713L886.309,393.44L898.22,401.955ZM734.838,412.299L733.444,397.415L722.671,401.087L734.838,412.299ZM826.693,400.603L834.108,405.904C834.017,406.429 833.932,406.957 833.852,407.488L825.286,411.644L822.364,400.034L816.577,396.058L831.307,388.552L826.693,400.603ZM950.513,411.461L958.098,398.35L966.415,405.788L950.513,411.461ZM790.258,396.263L790.258,399.946L799.508,408.469L798.113,393.586L790.258,396.263ZM887.636,398.713L890.005,408.129L892.341,406.996L891.444,397.415L887.636,398.713ZM863.251,394.528L871.178,391.827L872.572,406.71L863.619,398.46L863.251,394.528ZM898.22,401.955L903.196,393.354L911.512,400.793L895.611,406.465L896.46,404.997L900.044,403.258L898.22,401.955ZM840.18,389.793L852.686,400.736L842.048,404.658L840.18,389.793ZM822.364,400.034L825.964,402.507L826.693,400.603L821.59,396.955L822.364,400.034ZM942.59,393.001L943.286,395.766L946.305,394.301L943.361,391.668L942.59,393.001ZM771.216,388.356L771.88,395.448L769.382,393.146L771.216,388.356L770.701,382.864L773.952,381.207L771.216,388.356ZM929.033,386.409L928.486,380.565L917.713,384.236L929.88,395.448L929.536,391.773L924.844,388.519L929.033,386.409ZM770.701,382.864L762.667,386.958L769.382,393.146L768.609,395.163L759.469,388.883L759.331,388.658L762.667,386.958L759.713,384.236L770.486,380.565L770.701,382.864ZM938.571,381.605L938.331,381.726L938.604,381.98L938.571,381.605L939.593,381.091L939.59,381.077L939.603,381.086L939.593,381.091L939.602,381.126L938.04,385.136C939.132,387.746 940.001,390.536 940.647,393.503L934.32,394.687L934.196,395.006L933.86,394.773L934.32,394.687L938.04,385.136C937.662,384.231 937.257,383.347 936.826,382.485L938.331,381.726L934.012,377.709C932.558,375.592 930.907,373.633 929.06,371.832L934.663,369.766L933.187,368.474L937.296,367.095L938.571,381.605ZM899.597,380.377C899.925,380.464 900.25,380.556 900.571,380.653L900.63,381.281L909.993,389.474L899.356,393.396L898.37,385.552L898.404,385.463L898.353,385.416L898.105,383.443L899.456,382.763L898.404,385.463L901.269,388.104L900.63,381.281L899.597,380.377C898.966,380.211 898.322,380.064 897.664,379.937L897.487,378.531L899.597,380.377ZM739.487,378.531L751.993,389.474L741.356,393.396L739.487,378.531ZM836.549,391.619L835.155,376.735L824.382,380.407L836.549,391.619ZM719.562,382.922L719.562,387.323L725.272,391.245L730.615,377.29L719.562,382.922ZM852.993,391.07L860.578,377.959L868.894,385.397L852.993,391.07ZM829.316,367.125L827.324,368.128L831.281,370.873L822.885,373.869L823.942,385.898L812.152,374.93L812.152,374.531L819.171,372.175L824.555,362.867L829.316,367.125ZM844.824,373.034L843.057,376.089L845.274,378.151L844.824,373.034L845.841,371.277L849.621,374.657C849.242,375.034 848.87,375.417 848.504,375.806L845.274,377.452L846.38,378.211C845.208,379.627 844.11,381.112 843.085,382.665L838.256,384.388L843.057,376.089L837.952,371.34L840.665,364.374L843.966,363.265L844.824,373.034ZM850.033,375.026L854.157,378.715L849.521,380.369L854.661,383.901L860.004,369.945L850.033,375.026ZM779.143,367.146L769.969,360.783L784.747,353.341L779.321,367.27L779.311,367.263L779.296,367.095L779.143,367.146L779.311,367.263L780.604,381.98L768.499,370.72L779.143,367.146ZM916.116,377.733L910.301,379.808L910.387,379.659L916.113,377.708L916.116,377.733ZM790.258,365.517L790.258,373.705L780.901,377.043L788.486,363.932L790.258,365.517ZM819.171,372.175L816.97,375.978L822.885,373.869L822.634,371.012L819.171,372.175ZM954.549,375.74L953.155,360.857L942.382,364.528L954.549,375.74ZM840.665,364.374L833.169,366.891L837.952,371.34L836.676,374.615L831.281,370.873L832.872,370.306L829.316,367.125L842.101,360.685L840.665,364.374ZM902.004,361.993L897.889,363.375L899.314,364.701L898.554,365.088L899.741,365.904L895.564,373.126L904.82,369.824L903.052,368.179L899.741,365.904L900.044,365.381L899.314,364.701L900.907,363.889L902.004,361.993L904.445,361.174L903.149,360.015L902.004,361.993ZM895.563,359.297C894.07,359.226 892.538,359.19 890.969,359.19C889.981,359.19 889.008,359.205 888.048,359.236L888.972,359.876L881.69,372.463L897.591,366.791L892.934,362.625L888.972,359.876L889.275,359.352L892.934,362.625L893.984,363.353L895.563,359.297ZM908.7,359.918L907.142,360.712C907.703,360.829 908.256,360.953 908.802,361.083L909.183,365.412L910.005,366.147L909.389,367.757L909.426,368.181L909.195,368.263L907.941,371.537L905.233,369.677L909.195,368.263L909.389,367.757L909.183,365.412L905.095,361.755L907.142,360.712C906.868,360.655 906.593,360.6 906.315,360.546L908.685,359.75L908.7,359.918ZM806.928,361.181L802.233,369.296L812.152,365.758L812.152,361.181L806.928,361.181ZM963.274,362.272L961.966,347.387L951.169,351.012L963.274,362.272ZM934.97,360.1L942.555,346.989L950.872,354.427L934.97,360.1ZM806.078,345.594L800.653,359.523L791.301,353.037L806.078,345.594ZM870.798,342.079L865.373,356.008L856.021,349.521L870.798,342.079ZM920.233,353.418L927.818,340.307L936.134,347.745L920.233,353.418ZM924.078,329.716L918.653,343.645L909.301,337.158L924.078,329.716Z" style="fill:url(#_Linear1);"/>
        </g>
    </g>
    <defs>
        <linearGradient id="_Linear1" x1="0" y1="0" x2="1" y2="0" gradientUnits="userSpaceOnUse" gradientTransform="matrix(453.219,-7.94016,7.94016,453.219,510.79,429.068)"><stop offset="0" style="stop-color:rgb(134,0,255);stop-opacity:1"/><stop offset="1" style="stop-color:rgb(0,170,255);stop-opacity:1"/></linearGradient>
    </defs>
</svg>
